<svg width="1128" height="2294" viewBox="0 0 1128 2294" fill="none" xmlns="http://www.w3.org/2000/svg">
<path d="M127.043 613.499C127.043 613.499 272.013 541.23 263.16 445.63C254.306 350.03 150.762 280.261 127.043 274.499" fill="#E68236"/>
<path fill-rule="evenodd" clip-rule="evenodd" d="M644.543 198.998C644.543 198.998 432.556 256.501 412.495 374.3C392.431 491.976 501.06 600.903 529.546 614L577.146 442.22H525.542L525.542 321L610.736 321L644.543 198.998ZM845.543 442.22L970.596 442.22V321L845.543 321V442.22Z" fill="#E68236"/>
<path d="M126.543 218V142.552C156.625 138.979 219.583 131.832 230.751 131.832C244.712 131.832 681.49 127.71 688.969 131.832C696.448 135.955 676.005 159.455 654.565 165.64C637.413 170.587 293.077 202.471 126.543 218Z" fill="#E68236"/>
<path d="M127.043 1163.5C127.043 1163.5 272.013 1091.23 263.16 995.63C254.306 900.03 150.762 830.261 127.043 824.499" fill="#E68236"/>
<path fill-rule="evenodd" clip-rule="evenodd" d="M644.543 748.998C644.543 748.998 432.556 806.501 412.495 924.3C392.431 1041.98 501.06 1150.9 529.546 1164L577.146 992.22H525.542L525.542 871L610.736 871L644.543 748.998ZM813.543 992.22L938.596 992.22V871L813.543 871V992.22Z" fill="#E68236"/>
<path d="M126.543 768V692.552C156.625 688.979 219.583 681.832 230.751 681.832C244.712 681.832 681.49 677.71 688.969 681.832C696.448 685.955 676.005 709.455 654.565 715.64C637.413 720.587 293.077 752.471 126.543 768Z" fill="#E68236"/>
<path d="M127.043 1715.5C127.043 1715.5 272.013 1643.23 263.16 1547.63C254.306 1452.03 150.762 1382.26 127.043 1376.5" fill="#E68236"/>
<path fill-rule="evenodd" clip-rule="evenodd" d="M643.543 1301C643.543 1301 431.556 1358.5 411.495 1476.3C391.431 1593.98 500.06 1702.9 528.546 1716L576.146 1544.22L674.596 1544.22V1423L549.543 1423L549.543 1544.22L524.542 1544.22L524.542 1423L609.736 1423L643.543 1301Z" fill="#E68236"/>
<path d="M126.543 1320V1244.55C156.625 1240.98 219.583 1233.83 230.751 1233.83C244.712 1233.83 681.49 1229.71 688.969 1233.83C696.448 1237.96 676.005 1261.46 654.565 1267.64C637.413 1272.59 293.077 1304.47 126.543 1320Z" fill="#E68236"/>
<path d="M641.543 1305L661.543 1262" stroke="#E68236" stroke-width="3"/>
<path d="M127.043 2265.5C127.043 2265.5 272.013 2193.23 263.16 2097.63C254.306 2002.03 150.762 1932.26 127.043 1926.5" fill="#E68236"/>
<path d="M644.543 1851C644.543 1851 432.556 1908.5 412.495 2026.3C392.431 2143.98 501.06 2252.9 529.546 2266" fill="#E68236"/>
<path d="M126.543 1870V1794.55C156.625 1790.98 219.583 1783.83 230.751 1783.83C244.712 1783.83 681.49 1779.71 688.969 1783.83C696.448 1787.96 676.005 1811.46 654.565 1817.64C637.413 1822.59 293.077 1854.47 126.543 1870Z" fill="#E68236"/>
<path d="M641.543 1983L661.543 1940" stroke="#E68236" stroke-width="3"/>
</svg>
