<svg width="1015" height="1618" viewBox="0 0 1015 1618" fill="none" xmlns="http://www.w3.org/2000/svg">
<rect x="581.053" y="121.219" width="125.052" height="121.219" transform="rotate(-180 581.053 121.219)" fill="#E68236"/>
<path d="M19.1869 505.605C19.2155 506.243 19.5107 506.86 20.0119 507.259C24.5912 510.985 49.3349 526.659 90.9199 471.569C137.176 410.271 245.863 340.216 260.448 331.8C272.34 324.948 284.43 333.855 288.485 337.37C289.335 338.118 290.591 338.133 291.459 337.414L403.123 246.152C404.097 245.351 404.259 243.923 403.481 242.93C402.703 241.938 401.268 241.742 400.255 242.518L314.052 308.222C313.342 308.759 312.38 308.854 311.596 308.431C308.514 306.831 301.377 302.583 304.924 299.294C309.018 295.501 379.87 239.905 391.439 230.837C392.326 230.142 392.468 228.881 391.772 227.993C391.085 227.117 389.827 226.954 388.942 227.628L302.167 293.781C301.329 294.419 300.177 294.417 299.347 293.766C296.712 291.703 291.522 287.173 293.689 284.985C296.311 282.344 367.85 226.758 380.272 217.097C381.276 216.31 381.461 214.863 380.665 213.847L379.786 212.726C378.999 211.722 377.541 211.545 376.537 212.332L291.065 279.33C290.365 279.879 289.411 279.985 288.604 279.58C285.298 277.911 277.241 273.234 281.208 269.087C285.707 264.392 355.478 210.663 367.78 201.208C368.805 200.424 368.981 198.966 368.185 197.95L367.315 196.84C366.528 195.836 365.07 195.659 364.066 196.446L251.944 284.334C251.057 285.029 250.848 286.23 251.339 287.24C252.345 289.318 253.114 294.314 250.088 306.321C245.252 325.517 106.624 427.771 70.6967 448.221C35.2393 468.454 17.9938 479.993 19.1869 505.605Z" fill="#BE000D"/>
<path d="M821.523 366.538C821.523 366.538 961.379 491.98 971.707 503.066C979.192 511.109 991.993 507.971 998.443 505.638C1001.41 504.562 1003.72 502.181 1004.66 499.188C1006.55 493.184 1007.14 482.354 993.718 471.223C973.569 454.508 676.211 220.59 676.211 220.59C676.211 220.59 633.736 194.335 662.044 237.667C690.353 280.999 773.276 400.225 824.926 367.121" fill="#BE000D"/>
<rect x="581.053" y="841.219" width="125.052" height="121.219" transform="rotate(-180 581.053 841.219)" fill="#E68236"/>
<path d="M19.1869 1047.61C19.2155 1048.24 19.5107 1048.86 20.0119 1049.26C24.5912 1052.98 49.3349 1068.66 90.9199 1013.57C137.176 952.271 245.863 882.216 260.448 873.8C272.34 866.948 284.43 875.855 288.485 879.37C289.335 880.118 290.591 880.133 291.459 879.414L403.123 788.152C404.097 787.351 404.259 785.923 403.481 784.93C402.703 783.938 401.268 783.742 400.255 784.518L314.052 850.222C313.342 850.759 312.38 850.854 311.596 850.431C308.514 848.831 301.377 844.583 304.924 841.294C309.018 837.501 379.87 781.905 391.439 772.837C392.326 772.142 392.468 770.881 391.772 769.993C391.085 769.117 389.827 768.954 388.942 769.628L302.167 835.781C301.329 836.419 300.177 836.417 299.347 835.766C296.712 833.703 291.522 829.173 293.689 826.985C296.311 824.344 367.85 768.758 380.272 759.097C381.276 758.31 381.461 756.863 380.665 755.847L379.786 754.726C378.999 753.722 377.541 753.545 376.537 754.332L291.065 821.33C290.365 821.879 289.411 821.985 288.604 821.58C285.298 819.911 277.241 815.234 281.208 811.087C285.707 806.392 355.478 752.663 367.78 743.208C368.805 742.424 368.981 740.966 368.185 739.95L367.315 738.84C366.528 737.836 365.07 737.659 364.066 738.446L251.944 826.334C251.057 827.029 250.848 828.23 251.339 829.24C252.345 831.318 253.114 836.314 250.088 848.321C245.252 867.517 106.624 969.771 70.6967 990.221C35.2393 1010.45 17.9938 1021.99 19.1869 1047.61Z" fill="#BE000D"/>
<path d="M821.523 908.538C821.523 908.538 961.379 1033.98 971.707 1045.07C979.192 1053.11 991.993 1049.97 998.443 1047.64C1001.41 1046.56 1003.72 1044.18 1004.66 1041.19C1006.55 1035.18 1007.14 1024.35 993.718 1013.22C973.569 996.508 676.211 762.59 676.211 762.59C676.211 762.59 633.736 736.335 662.044 779.667C690.353 822.999 773.276 942.225 824.926 909.121" fill="#BE000D"/>
<path d="M19.1869 1589.61C19.2155 1590.24 19.5107 1590.86 20.0119 1591.26C24.5912 1594.98 49.3349 1610.66 90.9199 1555.57C137.176 1494.27 245.863 1424.22 260.448 1415.8C272.34 1408.95 284.43 1417.86 288.485 1421.37C289.335 1422.12 290.591 1422.13 291.459 1421.41L403.123 1330.15C404.097 1329.35 404.259 1327.92 403.481 1326.93C402.703 1325.94 401.268 1325.74 400.255 1326.52L314.052 1392.22C313.342 1392.76 312.38 1392.85 311.596 1392.43C308.514 1390.83 301.377 1386.58 304.924 1383.29C309.018 1379.5 379.87 1323.91 391.439 1314.84C392.326 1314.14 392.468 1312.88 391.772 1311.99C391.085 1311.12 389.827 1310.95 388.942 1311.63L302.167 1377.78C301.329 1378.42 300.177 1378.42 299.347 1377.77C296.712 1375.7 291.522 1371.17 293.689 1368.98C296.311 1366.34 367.85 1310.76 380.272 1301.1C381.276 1300.31 381.461 1298.86 380.665 1297.85L379.786 1296.73C378.999 1295.72 377.541 1295.54 376.537 1296.33L291.065 1363.33C290.365 1363.88 289.411 1363.98 288.604 1363.58C285.298 1361.91 277.241 1357.23 281.208 1353.09C285.707 1348.39 355.478 1294.66 367.78 1285.21C368.805 1284.42 368.981 1282.97 368.185 1281.95L367.315 1280.84C366.528 1279.84 365.07 1279.66 364.066 1280.45L251.944 1368.33C251.057 1369.03 250.848 1370.23 251.339 1371.24C252.345 1373.32 253.114 1378.31 250.088 1390.32C245.252 1409.52 106.624 1511.77 70.6967 1532.22C35.2393 1552.45 17.9938 1563.99 19.1869 1589.61Z" fill="#BE000D"/>
<path d="M821.523 1450.54C821.523 1450.54 961.379 1575.98 971.707 1587.07C979.192 1595.11 991.993 1591.97 998.443 1589.64C1001.41 1588.56 1003.72 1586.18 1004.66 1583.19C1006.55 1577.18 1007.14 1566.35 993.718 1555.22C973.569 1538.51 676.211 1304.59 676.211 1304.59C676.211 1304.59 633.736 1278.34 662.044 1321.67C690.353 1365 773.276 1484.22 824.926 1451.12" fill="#BE000D"/>
<path d="M312.417 1295.92C312.417 1295.92 279.85 1341.02 294.976 1399.23C310.102 1457.44 344.545 1451.65 364.637 1439.13C384.677 1426.65 310.601 1340.75 312.417 1295.92Z" fill="#E68236" stroke="#BE000D" stroke-width="3" stroke-miterlimit="10"/>
<path d="M393.651 1214.78C393.651 1214.78 281.529 1250.5 315.012 1344.96C348.495 1439.43 393.256 1439.87 393.256 1439.87C393.256 1439.87 429.811 1437.43 432.4 1422.45C434.989 1407.48 361.923 1259.08 393.87 1219.71" fill="#E68236"/>
<path d="M393.651 1214.78C393.651 1214.78 281.529 1250.5 315.012 1344.96C348.495 1439.43 393.256 1439.87 393.256 1439.87C393.256 1439.87 429.811 1437.43 432.4 1422.45C434.989 1407.48 361.923 1259.08 393.87 1219.71" stroke="#BE000D" stroke-width="3" stroke-miterlimit="10"/>
<path d="M423.401 1400.65C434.46 1424.24 460.57 1436.46 485.628 1430.15C542.194 1415.98 640.185 1385.23 635.534 1343.56C629.039 1285.13 536.84 1168.85 469.303 1173.11C404.663 1177.2 370.873 1201.77 392.551 1303.83C401.986 1348.18 413.44 1379.41 423.401 1400.65Z" fill="#E68236" stroke="#BE000D" stroke-width="3" stroke-miterlimit="10"/>
<path d="M501.141 1178.8C501.141 1178.8 514.064 1128.3 588.464 1156.65C662.864 1185.01 701.462 1270.44 696.247 1290.13C691.077 1309.83 657.142 1348 645.006 1343.68C632.871 1339.36 624.194 1321.14 602.993 1272.19C581.747 1223.29 501.141 1178.8 501.141 1178.8Z" fill="#E68236" stroke="#BE000D" stroke-width="3" stroke-miterlimit="10"/>
<path d="M572.943 1151.53C572.943 1151.53 717.128 1162.68 731.079 1197.8C745.031 1232.92 739.959 1251.85 721.724 1258.67C703.486 1265.45 694.769 1268.79 694.769 1268.79C694.769 1268.79 659.977 1210.94 628.455 1182.46C596.931 1153.94 572.943 1151.53 572.943 1151.53Z" fill="#E68236" stroke="#BE000D" stroke-width="3" stroke-miterlimit="10"/>
</svg>
