<svg width="567" height="2160" viewBox="0 0 567 2160" fill="none" xmlns="http://www.w3.org/2000/svg">
<path d="M6.69491 519C-2.50509 517.4 2.69141 483 14.6918 473C192.358 473 543.093 474.6 556.693 481C570.293 487.4 565.027 509 560.693 519C379.86 519.667 15.8949 520.6 6.69491 519Z" stroke="#BE000D" stroke-width="3"/>
<rect x="313" y="72" width="74" height="72" transform="rotate(-180 313 72)" fill="#E68236"/>
<path d="M115.881 466.779C58.7227 466.779 41.0281 455.133 40.3477 448.283C-12.7279 470.89 7.68851 470.89 32.1849 497.607C56.6813 524.324 62.8054 518.159 81.1778 509.938C99.5501 501.717 115.881 497.607 146.502 509.938C177.122 522.269 195.494 509.938 222.032 497.607C248.57 485.276 260.818 489.386 287.356 509.938C313.894 530.49 338.39 509.938 354.721 497.607C371.052 485.276 389.424 489.386 422.086 509.938C454.748 530.49 479.245 516.104 489.451 497.607C499.658 479.111 513.948 487.331 550.692 489.386C587.437 491.441 542.527 427.731 536.403 442.117C531.504 453.626 492.171 459.244 475.159 462.669C377.854 462.669 173.039 466.779 115.881 466.779Z" fill="#F9EEEC" stroke="#BE000D" stroke-width="4"/>
<path fill-rule="evenodd" clip-rule="evenodd" d="M238.999 232L312.999 232V196.944C390.202 194.396 461.637 192.185 499.168 259.149C546.133 342.945 568.594 422.655 537.965 445.137C533.183 448.647 530.193 451.559 527.696 453.99C526.13 455.516 524.759 456.851 523.261 458.026C512.699 466.315 495.868 466.616 360.322 469.038H360.321H360.321H360.32H360.319H360.319H360.318H360.318C349.519 469.231 337.966 469.437 325.603 469.662C295.379 470.212 268.458 470.763 244.461 471.253H244.461C90.1249 474.406 56.7709 475.088 43.818 457.4C17.9535 434.918 -19.8991 369.106 35.6416 302.069C101.403 222.695 150.682 198.335 238.999 197.721V232ZM79.9467 388.803C67.3151 391.347 62.052 368.661 60.9993 357C65.2099 357 75.5256 358.908 83.1046 366.541C92.5783 376.082 95.7362 385.622 79.9467 388.803ZM131.999 396C133.052 407.661 138.315 430.347 150.947 427.803C166.736 424.622 163.578 415.082 154.105 405.541C146.526 397.908 136.21 396 131.999 396ZM108.034 332.6C97.6132 325.021 110.755 305.795 118.628 297.129C121.477 300.229 127.053 309.115 126.562 319.861C125.948 333.292 121.06 342.073 108.034 332.6ZM179.574 335.497C167.941 336.825 145.385 342.622 148.227 355.19C151.78 370.9 161.243 367.518 170.558 357.822C178.009 350.064 179.673 339.706 179.574 335.497ZM263.201 412.662C250.336 411.952 250.938 388.672 252.847 377.12C256.923 378.177 266.429 382.615 271.848 391.906C278.623 403.52 279.284 413.548 263.201 412.662ZM209.222 245.634C200.567 253.519 185.671 271.421 195.331 279.948C207.406 290.607 213.1 282.326 214.977 269.012C216.479 258.361 211.766 248.989 209.222 245.634ZM264.578 325.415C255.665 316.109 272.007 299.517 281.292 292.384C283.547 295.94 287.459 305.675 285.07 316.162C282.085 329.272 275.718 337.048 264.578 325.415ZM372.941 341C361.365 342.759 339.041 349.39 342.348 361.844C346.481 377.411 355.813 373.68 364.76 363.644C371.918 355.615 373.196 345.203 372.941 341ZM443.911 386.74C431.572 383.026 437.631 360.54 442.202 349.761C445.915 351.747 454.112 358.295 457.195 368.599C461.049 381.481 459.334 391.383 443.911 386.74ZM506.093 371C501.522 381.779 495.463 404.266 507.801 407.98C523.224 412.622 524.94 402.72 521.086 389.839C518.002 379.534 509.806 372.986 506.093 371ZM417.801 313.98C405.463 310.266 411.522 287.779 416.093 277C419.806 278.986 428.002 285.534 431.086 295.839C434.94 308.72 433.224 318.622 417.801 313.98ZM344.683 255.391C349.168 266.206 360.964 286.286 372.26 280.087C386.38 272.339 380.518 264.176 368.628 257.898C359.117 252.875 348.701 254.134 344.683 255.391ZM466.154 344.829C457.831 334.992 475.164 319.438 484.87 312.89C486.902 316.578 490.207 326.535 487.177 336.856C483.39 349.757 476.556 357.126 466.154 344.829Z" fill="#E68236"/>
<path d="M6.69491 1065C-2.50509 1063.4 2.69141 1029 14.6918 1019C192.358 1019 543.093 1020.6 556.693 1027C570.293 1033.4 565.027 1055 560.693 1065C379.86 1065.67 15.8949 1066.6 6.69491 1065Z" stroke="#BE000D" stroke-width="3"/>
<rect x="313" y="677" width="74" height="72" transform="rotate(-180 313 677)" fill="#E68236"/>
<path d="M115.881 1012.78C58.7227 1012.78 41.0281 1001.13 40.3477 994.283C-12.7279 1016.89 7.68851 1016.89 32.1849 1043.61C56.6813 1070.32 62.8054 1064.16 81.1778 1055.94C99.5501 1047.72 115.881 1043.61 146.502 1055.94C177.122 1068.27 195.494 1055.94 222.032 1043.61C248.57 1031.28 260.818 1035.39 287.356 1055.94C313.894 1076.49 338.39 1055.94 354.721 1043.61C371.052 1031.28 389.424 1035.39 422.086 1055.94C454.748 1076.49 479.245 1062.1 489.451 1043.61C499.658 1025.11 513.948 1033.33 550.692 1035.39C587.437 1037.44 542.527 973.731 536.403 988.117C531.504 999.626 492.171 1005.24 475.159 1008.67C377.854 1008.67 173.039 1012.78 115.881 1012.78Z" fill="#F9EEEC" stroke="#BE000D" stroke-width="4"/>
<path fill-rule="evenodd" clip-rule="evenodd" d="M238.999 778L312.999 778V742.944C390.202 740.396 461.637 738.185 499.168 805.149C546.133 888.945 568.594 968.655 537.965 991.137C533.183 994.647 530.193 997.559 527.696 999.99C526.13 1001.52 524.759 1002.85 523.261 1004.03C512.699 1012.32 495.868 1012.62 360.322 1015.04H360.321H360.321H360.32H360.319H360.319H360.318H360.318C349.519 1015.23 337.966 1015.44 325.603 1015.66C295.379 1016.21 268.458 1016.76 244.461 1017.25H244.461C90.1249 1020.41 56.7709 1021.09 43.818 1003.4C17.9535 980.918 -19.8991 915.106 35.6416 848.069C101.403 768.695 150.682 744.335 238.999 743.721V778ZM79.9467 934.803C67.3151 937.347 62.052 914.661 60.9993 903C65.2099 903 75.5256 904.908 83.1046 912.541C92.5783 922.082 95.7362 931.622 79.9467 934.803ZM131.999 942C133.052 953.661 138.315 976.347 150.947 973.803C166.736 970.622 163.578 961.082 154.105 951.541C146.526 943.908 136.21 942 131.999 942ZM108.034 878.6C97.6132 871.021 110.755 851.795 118.628 843.129C121.477 846.229 127.053 855.115 126.562 865.861C125.948 879.292 121.06 888.073 108.034 878.6ZM179.574 881.497C167.941 882.825 145.385 888.622 148.227 901.19C151.78 916.9 161.243 913.518 170.558 903.822C178.009 896.064 179.673 885.706 179.574 881.497ZM263.201 958.662C250.336 957.952 250.938 934.672 252.847 923.12C256.923 924.177 266.429 928.615 271.848 937.906C278.623 949.52 279.284 959.548 263.201 958.662ZM209.222 791.634C200.567 799.519 185.671 817.421 195.331 825.948C207.406 836.607 213.1 828.326 214.977 815.012C216.479 804.361 211.766 794.989 209.222 791.634ZM264.578 871.415C255.665 862.109 272.007 845.517 281.292 838.384C283.547 841.94 287.459 851.675 285.07 862.162C282.085 875.272 275.718 883.048 264.578 871.415ZM372.941 887C361.365 888.759 339.041 895.39 342.348 907.844C346.481 923.411 355.813 919.68 364.76 909.644C371.918 901.615 373.196 891.203 372.941 887ZM443.911 932.74C431.572 929.026 437.631 906.54 442.202 895.761C445.915 897.747 454.112 904.295 457.195 914.599C461.049 927.481 459.334 937.383 443.911 932.74ZM506.093 917C501.522 927.779 495.463 950.266 507.801 953.98C523.224 958.622 524.94 948.72 521.086 935.839C518.002 925.534 509.806 918.986 506.093 917ZM417.801 859.98C405.463 856.266 411.522 833.779 416.093 823C419.806 824.986 428.002 831.534 431.086 841.839C434.94 854.72 433.224 864.622 417.801 859.98ZM344.683 801.391C349.168 812.206 360.964 832.286 372.26 826.087C386.38 818.339 380.518 810.176 368.628 803.898C359.117 798.875 348.701 800.134 344.683 801.391ZM466.154 890.829C457.831 880.992 475.164 865.438 484.87 858.89C486.902 862.578 490.207 872.535 487.177 882.856C483.39 895.757 476.556 903.126 466.154 890.829Z" fill="#E68236"/>
<path d="M6.69491 1611C-2.50509 1609.4 2.69141 1575 14.6918 1565C192.358 1565 543.093 1566.6 556.693 1573C570.293 1579.4 565.027 1601 560.693 1611C379.86 1611.67 15.8949 1612.6 6.69491 1611Z" stroke="#BE000D" stroke-width="3"/>
<path d="M115.881 1558.78C58.7227 1558.78 41.0281 1547.13 40.3477 1540.28C-12.7279 1562.89 7.68851 1562.89 32.1849 1589.61C56.6813 1616.32 62.8054 1610.16 81.1778 1601.94C99.5501 1593.72 115.881 1589.61 146.502 1601.94C177.122 1614.27 195.494 1601.94 222.032 1589.61C248.57 1577.28 260.818 1581.39 287.356 1601.94C313.894 1622.49 338.39 1601.94 354.721 1589.61C371.052 1577.28 389.424 1581.39 422.086 1601.94C454.748 1622.49 479.245 1608.1 489.451 1589.61C499.658 1571.11 513.948 1579.33 550.692 1581.39C587.437 1583.44 542.527 1519.73 536.403 1534.12C531.504 1545.63 492.171 1551.24 475.159 1554.67C377.854 1554.67 173.039 1558.78 115.881 1558.78Z" fill="#F9EEEC" stroke="#BE000D" stroke-width="4"/>
<rect x="313" y="1318" width="74" height="72" transform="rotate(-180 313 1318)" fill="#E68236"/>
<path fill-rule="evenodd" clip-rule="evenodd" d="M238.999 1324L312.999 1324V1288.94C390.202 1286.4 461.637 1284.19 499.168 1351.15C546.133 1434.95 568.594 1514.65 537.965 1537.14C533.183 1540.65 530.193 1543.56 527.696 1545.99C526.13 1547.52 524.759 1548.85 523.261 1550.03C512.699 1558.32 495.868 1558.62 360.322 1561.04H360.321H360.321H360.32H360.319H360.319H360.318H360.318C349.519 1561.23 337.966 1561.44 325.603 1561.66C295.379 1562.21 268.458 1562.76 244.461 1563.25H244.461C90.125 1566.41 56.7709 1567.09 43.818 1549.4C17.9535 1526.92 -19.8991 1461.11 35.6416 1394.07C101.403 1314.7 150.682 1290.33 238.999 1289.72V1324ZM79.9467 1480.8C67.3151 1483.35 62.052 1460.66 60.9993 1449C65.2099 1449 75.5256 1450.91 83.1046 1458.54C92.5783 1468.08 95.7362 1477.62 79.9467 1480.8ZM131.999 1488C133.052 1499.66 138.315 1522.35 150.947 1519.8C166.736 1516.62 163.578 1507.08 154.105 1497.54C146.526 1489.91 136.21 1488 131.999 1488ZM108.034 1424.6C97.6132 1417.02 110.755 1397.79 118.628 1389.13C121.477 1392.23 127.053 1401.12 126.562 1411.86C125.948 1425.29 121.06 1434.07 108.034 1424.6ZM179.574 1427.5C167.941 1428.82 145.385 1434.62 148.227 1447.19C151.78 1462.9 161.243 1459.52 170.558 1449.82C178.009 1442.06 179.673 1431.71 179.574 1427.5ZM263.201 1504.66C250.336 1503.95 250.938 1480.67 252.847 1469.12C256.923 1470.18 266.429 1474.62 271.848 1483.91C278.623 1495.52 279.284 1505.55 263.201 1504.66ZM209.222 1337.63C200.567 1345.52 185.671 1363.42 195.331 1371.95C207.406 1382.61 213.1 1374.32 214.977 1361.01C216.479 1350.36 211.766 1340.99 209.222 1337.63ZM264.578 1417.42C255.665 1408.11 272.007 1391.52 281.292 1384.38C283.547 1387.94 287.459 1397.68 285.07 1408.16C282.085 1421.27 275.718 1429.05 264.578 1417.42ZM372.941 1433C361.365 1434.76 339.041 1441.39 342.348 1453.84C346.481 1469.41 355.813 1465.68 364.76 1455.64C371.918 1447.62 373.196 1437.2 372.941 1433ZM443.911 1478.74C431.572 1475.03 437.631 1452.54 442.202 1441.76C445.915 1443.75 454.112 1450.3 457.195 1460.6C461.049 1473.48 459.334 1483.38 443.911 1478.74ZM506.093 1463C501.522 1473.78 495.463 1496.27 507.801 1499.98C523.224 1504.62 524.94 1494.72 521.086 1481.84C518.002 1471.53 509.806 1464.99 506.093 1463ZM417.801 1405.98C405.463 1402.27 411.522 1379.78 416.093 1369C419.806 1370.99 428.002 1377.53 431.086 1387.84C434.94 1400.72 433.224 1410.62 417.801 1405.98ZM344.683 1347.39C349.169 1358.21 360.964 1378.29 372.26 1372.09C386.38 1364.34 380.518 1356.18 368.628 1349.9C359.117 1344.88 348.701 1346.13 344.683 1347.39ZM466.154 1436.83C457.831 1426.99 475.164 1411.44 484.87 1404.89C486.902 1408.58 490.207 1418.54 487.177 1428.86C483.39 1441.76 476.557 1449.13 466.154 1436.83Z" fill="#E68236"/>
<path d="M6.69491 2157C-2.50509 2155.4 2.69141 2121 14.6918 2111C192.358 2111 543.093 2112.6 556.693 2119C570.293 2125.4 565.027 2147 560.693 2157C379.86 2157.67 15.8949 2158.6 6.69491 2157Z" stroke="#BE000D" stroke-width="3"/>
<path d="M115.881 2104.78C58.7227 2104.78 41.0281 2093.13 40.3477 2086.28C-12.7279 2108.89 7.68851 2108.89 32.1849 2135.61C56.6813 2162.32 62.8054 2156.16 81.1778 2147.94C99.5501 2139.72 115.881 2135.61 146.502 2147.94C177.122 2160.27 195.494 2147.94 222.032 2135.61C248.57 2123.28 260.818 2127.39 287.356 2147.94C313.894 2168.49 338.39 2147.94 354.721 2135.61C371.052 2123.28 389.424 2127.39 422.086 2147.94C454.748 2168.49 479.245 2154.1 489.451 2135.61C499.658 2117.11 513.948 2125.33 550.692 2127.39C587.437 2129.44 542.527 2065.73 536.403 2080.12C531.504 2091.63 492.171 2097.24 475.159 2100.67C377.854 2100.67 173.039 2104.78 115.881 2104.78Z" fill="#F9EEEC" stroke="#BE000D" stroke-width="4"/>
<path fill-rule="evenodd" clip-rule="evenodd" d="M43.818 2095.4C17.9535 2072.92 -19.8991 2007.11 35.6416 1940.07C105.068 1856.27 156.123 1833.79 254.136 1835.83C273.655 1836.24 293.256 1835.59 312.502 1834.96C389.896 1832.41 461.557 1830.04 499.168 1897.15C546.133 1980.95 568.594 2060.65 537.965 2083.14C533.183 2086.65 530.193 2089.56 527.696 2091.99C526.13 2093.52 524.759 2094.85 523.261 2096.03C512.699 2104.32 495.868 2104.62 360.324 2107.04H360.323H360.323H360.322H360.322H360.321H360.321H360.32H360.319H360.319H360.318H360.318C349.519 2107.23 337.966 2107.44 325.603 2107.66C295.379 2108.21 268.458 2108.76 244.461 2109.25H244.461C90.1249 2112.41 56.7709 2113.09 43.818 2095.4ZM50 1995.37C51.0526 2007.03 56.3158 2029.71 68.9474 2027.17C84.7368 2023.99 81.5789 2014.45 72.1053 2004.91C64.5263 1997.27 54.2105 1995.37 50 1995.37ZM139.947 2066.17C127.316 2068.71 122.053 2046.03 121 2034.37C125.211 2034.37 135.526 2036.27 143.105 2043.91C152.579 2053.45 155.737 2062.99 139.947 2066.17ZM107.629 1935.5C99.7555 1944.16 86.6139 1963.39 97.0347 1970.97C110.061 1980.44 114.948 1971.66 115.562 1958.23C116.054 1947.48 110.478 1938.6 107.629 1935.5ZM137.228 1993.56C134.386 1980.99 156.941 1975.19 168.574 1973.86C168.674 1978.07 167.01 1988.43 159.558 1996.19C150.244 2005.88 140.78 2009.27 137.228 1993.56ZM241.848 2015.49C239.938 2027.04 239.336 2050.32 252.202 2051.03C268.284 2051.91 267.623 2041.89 260.849 2030.27C255.429 2020.98 245.923 2016.54 241.848 2015.49ZM184.332 1918.31C174.672 1909.79 189.567 1891.89 198.223 1884C200.767 1887.35 205.48 1896.73 203.978 1907.38C202.101 1920.69 196.407 1928.97 184.332 1918.31ZM270.293 1930.75C261.008 1937.88 244.666 1954.48 253.578 1963.78C264.718 1975.41 271.086 1967.64 274.071 1954.53C276.459 1944.04 272.547 1934.31 270.293 1930.75ZM331.348 2000.21C328.042 1987.76 350.366 1981.13 361.941 1979.37C362.197 1983.57 360.919 1993.98 353.761 2002.01C344.813 2012.05 335.482 2015.78 331.348 2000.21ZM431.203 1988.13C426.632 1998.91 420.573 2021.39 432.911 2025.11C448.334 2029.75 450.05 2019.85 446.196 2006.97C443.112 1996.66 434.916 1990.11 431.203 1988.13ZM496.802 2046.35C484.464 2042.63 490.522 2020.15 495.094 2009.37C498.807 2011.35 507.003 2017.9 510.086 2028.2C513.94 2041.09 512.225 2050.99 496.802 2046.35ZM405.094 1915.37C400.522 1926.15 394.464 1948.63 406.802 1952.35C422.225 1956.99 423.94 1947.09 420.086 1934.2C417.003 1923.9 408.807 1917.35 405.094 1915.37ZM361.261 1918.45C349.964 1924.65 338.169 1904.57 333.684 1893.76C337.702 1892.5 348.117 1891.24 357.629 1896.26C369.519 1902.54 375.381 1910.7 361.261 1918.45ZM473.871 1951.26C464.165 1957.8 446.832 1973.36 455.154 1983.2C465.557 1995.49 472.391 1988.12 476.178 1975.22C479.207 1964.9 475.902 1954.95 473.871 1951.26Z" fill="#E68236"/>
</svg>
