<svg width="647.218750" height="420.494141" viewBox="0 0 647.219 420.494" fill="none" xmlns="http://www.w3.org/2000/svg" xmlns:xlink="http://www.w3.org/1999/xlink">
	<desc>
			Created with Pixso.
	</desc>
	<defs/>
	<path id="Vector 42" d="M626.498 303.352C626.023 308.572 626.213 321.293 630.77 330.404C636.465 341.795 635.041 347.492 630.77 348.916C626.498 350.34 590.902 338.947 582.359 317.59" stroke="#E68236" stroke-opacity="1.000000" stroke-width="3.000000"/>
	<path id="Vector 43" d="M632.189 348.914C631.715 353.186 632.189 364.291 637.885 374.543C645.004 387.357 654.977 412.988 627.922 415.836C600.869 418.684 556.729 408.717 526.828 415.836C496.928 422.955 495.504 415.836 464.178 415.836C432.854 415.836 392.984 405.869 363.084 405.869C339.164 405.869 128.146 384.984 25.6289 374.543" stroke="#E68236" stroke-opacity="1.000000" stroke-width="3.000000"/>
	<path id="Vector 41" d="M573.816 280.568C574.291 291.484 576.094 313.887 579.512 316.166C583.783 319.014 586.631 317.59 602.293 309.047C617.957 300.504 632.195 309.047 630.771 294.807C629.348 280.568 627.924 267.754 625.076 256.363" stroke="#E68236" stroke-opacity="1.000000" stroke-width="3.000000"/>
	<path id="Vector 38" d="M546.783 113.977C545.645 101.447 559.559 99.7383 573.816 96.8906C574.766 99.2637 579.533 105.434 585.229 116.824C592.348 131.062 599.467 149.574 590.924 152.422C582.381 155.27 541.457 163.812 542.512 158.117C544.41 148.625 547.924 126.508 546.783 113.977Z" stroke="#E68236" stroke-opacity="1.000000" stroke-width="3.000000"/>
	<path id="Vector 39" d="M542.492 205.105C555.307 209.377 585.777 205.389 593.752 189.443C603.719 169.508 599.447 163.812 593.752 148.15" stroke="#E68236" stroke-opacity="1.000000" stroke-width="3.000000"/>
	<path id="Vector 40" d="M598.02 178.051C601.816 180.424 609.125 187.449 607.986 196.561C606.562 207.951 606.562 219.344 612.258 226.463C617.953 233.582 633.617 252.092 622.225 260.635C610.834 269.178 573.814 286.264 570.967 279.145C568.119 272.025 553.881 257.787 559.576 242.125C564.133 229.594 551.984 212.223 545.34 205.104" stroke="#E68236" stroke-opacity="1.000000" stroke-width="3.000000"/>
	<path id="Vector 37" d="M11.3906 375.967C23.2559 380.713 46.418 383.086 44.1406 354.607C43.2578 343.594 40.332 331.215 37.5117 319.287C31.2207 292.668 25.457 268.295 44.1406 266.328C57.7324 264.898 95.4121 270.656 136.404 276.922L136.406 276.922C176.994 283.125 220.832 289.826 247.752 290.535C273.135 291.203 297.576 295.631 318.432 299.408C342.035 303.686 361.045 307.129 371.629 303.35C382.328 299.527 395.898 303.09 409.918 306.771C422.02 309.947 434.455 313.211 445.668 311.893C448.316 311.582 450.982 311.252 453.65 310.924C475.363 308.246 497.217 305.553 511.166 311.893C526.828 319.012 573.816 323.283 578.088 317.588C581.506 313.031 575.715 288.162 572.393 276.297L504.047 276.297C484.113 276.297 395.834 266.328 402.953 266.328C410.072 266.328 324.641 252.092 308.979 259.209C298.219 264.1 290.146 261.6 274.605 256.785C267.525 254.592 258.895 251.918 247.752 249.244C212.156 240.701 165.168 240.701 140.963 242.125C126.826 242.955 103.465 237.961 83.3535 233.66C69.0273 230.596 56.3516 227.887 49.8359 227.887C34.1719 227.887 27.0527 168.084 32.748 160.965C38.4434 153.846 78.3125 143.879 106.789 160.965C129.23 174.43 156.092 174.631 179.711 174.809C186.064 174.855 192.182 174.902 197.916 175.203C224.971 176.627 250.6 186.594 270.533 190.865C290.469 195.137 451.363 196.561 472.723 199.408C489.809 201.688 532.049 207.002 551.035 209.375C544.391 200.832 532.24 180.898 536.797 169.508C539.725 162.186 541.242 159.178 541.951 158.217C542.137 158.184 542.316 158.15 542.492 158.117C542.492 157.777 542.346 157.682 541.951 158.217C534.059 159.629 516.289 161.455 504.047 158.117C488.385 153.846 449.941 155.27 421.463 152.422C392.986 149.574 370.205 148.15 343.15 141.031C326.494 136.646 303.359 136.582 279.396 136.514C264.441 136.473 249.164 136.43 234.938 135.336C197.916 132.488 138.115 133.912 122.451 125.367C112.473 119.926 92.668 119.684 76.6621 119.488C67.5469 119.379 59.6641 119.281 55.5312 118.248C44.1406 115.4 34.1719 66.9902 55.5312 58.4473C76.8887 49.9043 103.941 47.0566 122.451 58.4473C135.459 66.4512 150.574 63.207 162.859 60.5684C168.059 59.4531 172.748 58.4473 176.559 58.4473C189.373 58.4473 223.547 71.2617 240.633 75.5332C247.496 77.248 260.334 76.8965 274.531 76.5078C295.676 75.9277 319.834 75.2656 331.76 81.2285C348.453 89.5742 381.121 88.9355 403.01 88.5059C407.26 88.4219 411.104 88.3477 414.344 88.3477C434.277 88.3477 533.949 94.043 542.492 109.705C551.035 125.367 578.088 105.434 578.088 96.8906C578.088 88.3477 533.949 68.4141 511.166 68.4141C488.385 68.4141 343.15 28.5449 326.064 24.2734C308.979 20.002 210.732 -1.35547 183.678 0.0683594C156.625 1.49219 76.8887 18.5781 49.8359 38.5117C22.7812 58.4473 14.2383 76.957 11.3906 104.01C8.54297 131.062 0 156.693 0 199.408C0 242.125 5.69531 299.08 5.69531 316.166C5.69531 318.363 5.67188 320.951 5.64648 323.795C5.4707 343.059 5.1875 374.109 11.3906 375.967Z" fill="#BE000D" fill-opacity="1.000000" fill-rule="evenodd"/>
</svg>
