<svg width="691" height="512" viewBox="0 0 691 512" fill="none" xmlns="http://www.w3.org/2000/svg">
<path d="M127.5 483.5C127.5 483.5 272.47 411.231 263.617 315.631C254.763 220.031 151.219 150.262 127.5 144.5" fill="#E68236"/>
<path fill-rule="evenodd" clip-rule="evenodd" d="M412.952 244.3C433.013 126.501 645 68.998 645 68.998L611.193 191L525.999 191L525.999 312.22H577.603L530.003 484C501.517 470.903 392.888 361.976 412.952 244.3Z" fill="#E68236"/>
<path d="M127 88V12.5518C157.082 8.97866 220.04 1.83238 231.208 1.83238C245.169 1.83238 681.947 -2.29047 689.426 1.83238C696.905 5.95523 676.462 29.4554 655.022 35.6397C637.87 40.5872 293.534 72.4706 127 88Z" fill="#E68236"/>
</svg>
