<svg width="1936.304688" height="970.134766" viewBox="0 0 1936.3 970.135" fill="none" xmlns="http://www.w3.org/2000/svg" xmlns:xlink="http://www.w3.org/1999/xlink">
	<desc>
			Created with Pixso.
	</desc>
	<defs/>
	<path id="Vector 113" d="M5.76758 1.76758C284.768 280.934 1075.17 675.768 1934.77 5.76758" stroke="#0E0B04" stroke-opacity="1.000000" stroke-width="5.000000"/>
	<line id="Line 27" x1="1809.792969" y1="97.246094" x2="1811.289062" y2="169.025391" stroke="#0E0B04" stroke-opacity="1.000000" stroke-width="2.000000"/>
	<path id="Vector 34" d="M1834.7 241.541C1843.67 251.262 1868.35 267.711 1861.62 297.617C1854.89 327.525 1846.67 336.498 1825.73 341.732C1804.79 346.965 1779.37 340.984 1770.4 322.291C1761.43 303.6 1755.45 284.16 1763.67 269.205C1771.9 254.252 1789.84 235.559 1794.32 224.344C1797.91 215.371 1817.34 220.605 1827.81 221.354C1827.06 222.848 1827.52 233.766 1834.7 241.541Z" stroke="#0E0B04" stroke-opacity="1.000000" stroke-width="2.000000"/>
	<path id="Vector 35" d="M1802.55 257.99C1794.33 267.711 1776.38 274.439 1780.87 284.16C1785.36 293.881 1792.83 293.133 1795.82 284.16C1798.81 275.188 1789.09 292.385 1795.82 294.627C1802.55 296.871 1810.03 290.889 1806.29 282.664C1802.55 274.439 1803.3 297.619 1809.28 297.619C1815.26 297.619 1824.98 293.133 1821.24 287.898C1817.5 282.664 1813.77 294.627 1821.24 297.619C1828.72 300.609 1840.68 293.133 1833.21 287.898C1825.73 282.664 1833.21 296.871 1836.94 294.627C1840.68 292.385 1845.17 286.402 1833.21 272.197C1821.24 257.99 1816.76 228.084 1819 225.092C1820.79 222.699 1808.78 222.102 1802.55 222.102C1805.29 230.824 1809.13 250.215 1802.55 257.99Z" stroke="#0E0B04" stroke-opacity="1.000000" stroke-width="2.000000"/>
	<rect id="Rectangle 262" x="1792.830078" y="168.267578" width="37.384594" height="56.824585" fill="#BE000D" fill-opacity="1.000000"/>
	<line id="Line 27" x1="1485.792969" y1="266.246094" x2="1487.289062" y2="338.025391" stroke="#0E0B04" stroke-opacity="1.000000" stroke-width="2.000000"/>
	<path id="Vector 34" d="M1510.7 410.541C1519.67 420.262 1544.35 436.711 1537.62 466.617C1530.89 496.525 1522.67 505.498 1501.73 510.732C1480.79 515.965 1455.37 509.984 1446.4 491.291C1437.43 472.6 1431.45 453.16 1439.67 438.205C1447.9 423.252 1465.84 404.559 1470.32 393.344C1473.91 384.371 1493.34 389.605 1503.81 390.354C1503.06 391.848 1503.52 402.766 1510.7 410.541Z" stroke="#0E0B04" stroke-opacity="1.000000" stroke-width="2.000000"/>
	<path id="Vector 35" d="M1478.55 426.99C1470.33 436.711 1452.38 443.439 1456.87 453.16C1461.36 462.881 1468.83 462.133 1471.82 453.16C1474.81 444.188 1465.09 461.385 1471.82 463.627C1478.55 465.871 1486.03 459.889 1482.29 451.664C1478.55 443.439 1479.3 466.619 1485.28 466.619C1491.26 466.619 1500.98 462.133 1497.24 456.898C1493.5 451.664 1489.77 463.627 1497.24 466.619C1504.72 469.609 1516.68 462.133 1509.21 456.898C1501.73 451.664 1509.21 465.871 1512.94 463.627C1516.68 461.385 1521.17 455.402 1509.21 441.197C1497.24 426.99 1492.76 397.084 1495 394.092C1496.79 391.699 1484.78 391.102 1478.55 391.102C1481.29 399.824 1485.13 419.215 1478.55 426.99Z" stroke="#0E0B04" stroke-opacity="1.000000" stroke-width="2.000000"/>
	<rect id="Rectangle 948" x="1468.830078" y="337.267578" width="37.384594" height="56.824585" fill="#BE000D" fill-opacity="1.000000"/>
	<line id="Line 27" x1="1181.792969" y1="357.246094" x2="1183.289062" y2="429.025391" stroke="#0E0B04" stroke-opacity="1.000000" stroke-width="2.000000"/>
	<path id="Vector 34" d="M1206.7 501.541C1215.67 511.262 1240.35 527.711 1233.62 557.617C1226.89 587.525 1218.67 596.498 1197.73 601.732C1176.79 606.965 1151.37 600.984 1142.4 582.291C1133.43 563.6 1127.45 544.16 1135.67 529.205C1143.9 514.252 1161.84 495.559 1166.32 484.344C1169.91 475.371 1189.34 480.605 1199.81 481.354C1199.06 482.848 1199.52 493.766 1206.7 501.541Z" stroke="#0E0B04" stroke-opacity="1.000000" stroke-width="2.000000"/>
	<path id="Vector 35" d="M1174.55 517.99C1166.33 527.711 1148.38 534.439 1152.87 544.16C1157.36 553.881 1164.83 553.133 1167.82 544.16C1170.81 535.188 1161.09 552.385 1167.82 554.627C1174.55 556.871 1182.03 550.889 1178.29 542.664C1174.55 534.439 1175.3 557.619 1181.28 557.619C1187.26 557.619 1196.98 553.133 1193.24 547.898C1189.5 542.664 1185.77 554.627 1193.24 557.619C1200.72 560.609 1212.68 553.133 1205.21 547.898C1197.73 542.664 1205.21 556.871 1208.94 554.627C1212.68 552.385 1217.17 546.402 1205.21 532.197C1193.24 517.99 1188.76 488.084 1191 485.092C1192.79 482.699 1180.78 482.102 1174.55 482.102C1177.29 490.824 1181.13 510.215 1174.55 517.99Z" stroke="#0E0B04" stroke-opacity="1.000000" stroke-width="2.000000"/>
	<rect id="Rectangle 948" x="1164.830078" y="428.267578" width="37.384594" height="56.824585" fill="#BE000D" fill-opacity="1.000000"/>
	<line id="Line 27" x1="831.792969" y1="367.246094" x2="833.289062" y2="439.025391" stroke="#0E0B04" stroke-opacity="1.000000" stroke-width="2.000000"/>
	<path id="Vector 34" d="M856.701 511.541C865.674 521.262 890.35 537.711 883.619 567.617C876.891 597.525 868.666 606.498 847.73 611.732C826.795 616.965 801.373 610.984 792.402 592.291C783.43 573.6 777.447 554.16 785.672 539.205C793.896 524.252 811.838 505.559 816.324 494.344C819.914 485.371 839.34 490.605 849.807 491.354C849.061 492.848 849.523 503.766 856.701 511.541Z" stroke="#0E0B04" stroke-opacity="1.000000" stroke-width="2.000000"/>
	<path id="Vector 35" d="M824.553 527.99C816.328 537.711 798.383 544.439 802.869 554.16C807.355 563.881 814.83 563.133 817.82 554.16C820.812 545.188 811.09 562.385 817.82 564.627C824.553 566.871 832.025 560.889 828.289 552.664C824.553 544.439 825.297 567.619 831.279 567.619C837.262 567.619 846.98 563.133 843.242 557.898C839.504 552.664 835.766 564.627 843.242 567.619C850.719 570.609 862.682 563.133 855.205 557.898C847.729 552.664 855.205 566.871 858.943 564.627C862.682 562.385 867.168 556.402 855.205 542.197C843.242 527.99 838.756 498.084 841 495.092C842.793 492.699 830.783 492.102 824.553 492.102C827.293 500.824 831.133 520.215 824.553 527.99Z" stroke="#0E0B04" stroke-opacity="1.000000" stroke-width="2.000000"/>
	<rect id="Rectangle 948" x="814.830078" y="438.267578" width="37.384594" height="56.824585" fill="#BE000D" fill-opacity="1.000000"/>
	<line id="Line 27" x1="409.792969" y1="262.246094" x2="411.289062" y2="334.025391" stroke="#0E0B04" stroke-opacity="1.000000" stroke-width="2.000000"/>
	<path id="Vector 34" d="M434.701 406.541C443.674 416.262 468.35 432.711 461.619 462.617C454.891 492.525 446.666 501.498 425.73 506.732C404.795 511.965 379.373 505.984 370.402 487.291C361.43 468.6 355.447 449.16 363.672 434.205C371.896 419.252 389.838 400.559 394.324 389.344C397.914 380.371 417.34 385.605 427.807 386.354C427.061 387.848 427.523 398.766 434.701 406.541Z" stroke="#0E0B04" stroke-opacity="1.000000" stroke-width="2.000000"/>
	<path id="Vector 35" d="M402.553 422.99C394.328 432.711 376.383 439.439 380.869 449.16C385.355 458.881 392.83 458.133 395.82 449.16C398.812 440.188 389.09 457.385 395.82 459.627C402.553 461.871 410.025 455.889 406.289 447.664C402.553 439.439 403.297 462.619 409.279 462.619C415.262 462.619 424.98 458.133 421.242 452.898C417.504 447.664 413.766 459.627 421.242 462.619C428.719 465.609 440.682 458.133 433.205 452.898C425.729 447.664 433.205 461.871 436.943 459.627C440.682 457.385 445.168 451.402 433.205 437.197C421.242 422.99 416.756 393.084 419 390.092C420.793 387.699 408.783 387.102 402.553 387.102C405.293 395.824 409.133 415.215 402.553 422.99Z" stroke="#0E0B04" stroke-opacity="1.000000" stroke-width="2.000000"/>
	<rect id="Rectangle 948" x="392.830078" y="333.267578" width="37.384594" height="56.824585" fill="#BE000D" fill-opacity="1.000000"/>
	<line id="Line 27" x1="79.792969" y1="65.246094" x2="81.289062" y2="137.025391" stroke="#0E0B04" stroke-opacity="1.000000" stroke-width="2.000000"/>
	<path id="Vector 34" d="M104.701 209.541C113.674 219.262 138.35 235.711 131.619 265.617C124.891 295.525 116.666 304.498 95.7305 309.732C74.7949 314.965 49.373 308.984 40.4023 290.291C31.4297 271.6 25.4473 252.16 33.6719 237.205C41.8965 222.252 59.8379 203.559 64.3242 192.344C67.9141 183.371 87.3398 188.605 97.8066 189.354C97.0605 190.848 97.5234 201.766 104.701 209.541Z" stroke="#0E0B04" stroke-opacity="1.000000" stroke-width="2.000000"/>
	<path id="Vector 35" d="M72.5527 225.99C64.3281 235.711 46.3828 242.439 50.8691 252.16C55.3555 261.881 62.8301 261.133 65.8203 252.16C68.8125 243.188 59.0898 260.385 65.8203 262.627C72.5527 264.871 80.0254 258.889 76.2891 250.664C72.5527 242.439 73.2969 265.619 79.2793 265.619C85.2617 265.619 94.9805 261.133 91.2422 255.898C87.5039 250.664 83.7656 262.627 91.2422 265.619C98.7188 268.609 110.682 261.133 103.205 255.898C95.7285 250.664 103.205 264.871 106.943 262.627C110.682 260.385 115.168 254.402 103.205 240.197C91.2422 225.99 86.7559 196.084 89 193.092C90.793 190.699 78.7832 190.102 72.5527 190.102C75.293 198.824 79.1328 218.215 72.5527 225.99Z" stroke="#0E0B04" stroke-opacity="1.000000" stroke-width="2.000000"/>
	<rect id="Rectangle 948" x="62.830078" y="136.267578" width="37.384594" height="56.824585" fill="#BE000D" fill-opacity="1.000000"/>
	<path id="Vector 123" d="M1.76758 357.268C280.768 636.434 1071.17 1031.27 1930.77 361.268" stroke="#0E0B04" stroke-opacity="1.000000" stroke-width="5.000000"/>
	<line id="Line 27" x1="1805.792969" y1="452.746094" x2="1807.289062" y2="524.525391" stroke="#0E0B04" stroke-opacity="1.000000" stroke-width="2.000000"/>
	<path id="Vector 34" d="M1830.7 597.041C1839.67 606.762 1864.35 623.211 1857.62 653.117C1850.89 683.025 1842.67 691.998 1821.73 697.232C1800.79 702.465 1775.37 696.484 1766.4 677.791C1757.43 659.1 1751.45 639.66 1759.67 624.705C1767.9 609.752 1785.84 591.059 1790.32 579.844C1793.91 570.871 1813.34 576.105 1823.81 576.854C1823.06 578.348 1823.52 589.266 1830.7 597.041Z" stroke="#0E0B04" stroke-opacity="1.000000" stroke-width="2.000000"/>
	<path id="Vector 35" d="M1798.55 613.49C1790.33 623.211 1772.38 629.939 1776.87 639.66C1781.36 649.381 1788.83 648.633 1791.82 639.66C1794.81 630.688 1785.09 647.885 1791.82 650.127C1798.55 652.371 1806.03 646.389 1802.29 638.164C1798.55 629.939 1799.3 653.119 1805.28 653.119C1811.26 653.119 1820.98 648.633 1817.24 643.398C1813.5 638.164 1809.77 650.127 1817.24 653.119C1824.72 656.109 1836.68 648.633 1829.21 643.398C1821.73 638.164 1829.21 652.371 1832.94 650.127C1836.68 647.885 1841.17 641.902 1829.21 627.697C1817.24 613.49 1812.76 583.584 1815 580.592C1816.79 578.199 1804.78 577.602 1798.55 577.602C1801.29 586.324 1805.13 605.715 1798.55 613.49Z" stroke="#0E0B04" stroke-opacity="1.000000" stroke-width="2.000000"/>
	<rect id="Rectangle 262" x="1788.830078" y="523.767578" width="37.384594" height="56.824585" fill="#BE000D" fill-opacity="1.000000"/>
	<line id="Line 27" x1="1481.792969" y1="621.746094" x2="1483.289062" y2="693.525391" stroke="#0E0B04" stroke-opacity="1.000000" stroke-width="2.000000"/>
	<path id="Vector 34" d="M1506.7 766.041C1515.67 775.762 1540.35 792.211 1533.62 822.117C1526.89 852.025 1518.67 860.998 1497.73 866.232C1476.79 871.465 1451.37 865.484 1442.4 846.791C1433.43 828.1 1427.45 808.66 1435.67 793.705C1443.9 778.752 1461.84 760.059 1466.32 748.844C1469.91 739.871 1489.34 745.105 1499.81 745.854C1499.06 747.348 1499.52 758.266 1506.7 766.041Z" stroke="#0E0B04" stroke-opacity="1.000000" stroke-width="2.000000"/>
	<path id="Vector 35" d="M1474.55 782.49C1466.33 792.211 1448.38 798.939 1452.87 808.66C1457.36 818.381 1464.83 817.633 1467.82 808.66C1470.81 799.688 1461.09 816.885 1467.82 819.127C1474.55 821.371 1482.03 815.389 1478.29 807.164C1474.55 798.939 1475.3 822.119 1481.28 822.119C1487.26 822.119 1496.98 817.633 1493.24 812.398C1489.5 807.164 1485.77 819.127 1493.24 822.119C1500.72 825.109 1512.68 817.633 1505.21 812.398C1497.73 807.164 1505.21 821.371 1508.94 819.127C1512.68 816.885 1517.17 810.902 1505.21 796.697C1493.24 782.49 1488.76 752.584 1491 749.592C1492.79 747.199 1480.78 746.602 1474.55 746.602C1477.29 755.324 1481.13 774.715 1474.55 782.49Z" stroke="#0E0B04" stroke-opacity="1.000000" stroke-width="2.000000"/>
	<rect id="Rectangle 948" x="1464.830078" y="692.767578" width="37.384594" height="56.824585" fill="#BE000D" fill-opacity="1.000000"/>
	<line id="Line 27" x1="1177.792969" y1="712.746094" x2="1179.289062" y2="784.525391" stroke="#0E0B04" stroke-opacity="1.000000" stroke-width="2.000000"/>
	<path id="Vector 34" d="M1202.7 857.041C1211.67 866.762 1236.35 883.211 1229.62 913.117C1222.89 943.025 1214.67 951.998 1193.73 957.232C1172.79 962.465 1147.37 956.484 1138.4 937.791C1129.43 919.1 1123.45 899.66 1131.67 884.705C1139.9 869.752 1157.84 851.059 1162.32 839.844C1165.91 830.871 1185.34 836.105 1195.81 836.854C1195.06 838.348 1195.52 849.266 1202.7 857.041Z" stroke="#0E0B04" stroke-opacity="1.000000" stroke-width="2.000000"/>
	<path id="Vector 35" d="M1170.55 873.49C1162.33 883.211 1144.38 889.939 1148.87 899.66C1153.36 909.381 1160.83 908.633 1163.82 899.66C1166.81 890.688 1157.09 907.885 1163.82 910.127C1170.55 912.371 1178.03 906.389 1174.29 898.164C1170.55 889.939 1171.3 913.119 1177.28 913.119C1183.26 913.119 1192.98 908.633 1189.24 903.398C1185.5 898.164 1181.77 910.127 1189.24 913.119C1196.72 916.109 1208.68 908.633 1201.21 903.398C1193.73 898.164 1201.21 912.371 1204.94 910.127C1208.68 907.885 1213.17 901.902 1201.21 887.697C1189.24 873.49 1184.76 843.584 1187 840.592C1188.79 838.199 1176.78 837.602 1170.55 837.602C1173.29 846.324 1177.13 865.715 1170.55 873.49Z" stroke="#0E0B04" stroke-opacity="1.000000" stroke-width="2.000000"/>
	<rect id="Rectangle 948" x="1160.830078" y="783.767578" width="37.384594" height="56.824585" fill="#BE000D" fill-opacity="1.000000"/>
	<line id="Line 27" x1="827.792969" y1="722.746094" x2="829.289062" y2="794.525391" stroke="#0E0B04" stroke-opacity="1.000000" stroke-width="2.000000"/>
	<path id="Vector 34" d="M852.701 867.041C861.674 876.762 886.35 893.211 879.619 923.117C872.891 953.025 864.666 961.998 843.73 967.232C822.795 972.465 797.373 966.484 788.402 947.791C779.43 929.1 773.447 909.66 781.672 894.705C789.896 879.752 807.838 861.059 812.324 849.844C815.914 840.871 835.34 846.105 845.807 846.854C845.061 848.348 845.523 859.266 852.701 867.041Z" stroke="#0E0B04" stroke-opacity="1.000000" stroke-width="2.000000"/>
	<path id="Vector 35" d="M820.553 883.49C812.328 893.211 794.383 899.939 798.869 909.66C803.355 919.381 810.83 918.633 813.82 909.66C816.812 900.688 807.09 917.885 813.82 920.127C820.553 922.371 828.025 916.389 824.289 908.164C820.553 899.939 821.297 923.119 827.279 923.119C833.262 923.119 842.98 918.633 839.242 913.398C835.504 908.164 831.766 920.127 839.242 923.119C846.719 926.109 858.682 918.633 851.205 913.398C843.729 908.164 851.205 922.371 854.943 920.127C858.682 917.885 863.168 911.902 851.205 897.697C839.242 883.49 834.756 853.584 837 850.592C838.793 848.199 826.783 847.602 820.553 847.602C823.293 856.324 827.133 875.715 820.553 883.49Z" stroke="#0E0B04" stroke-opacity="1.000000" stroke-width="2.000000"/>
	<rect id="Rectangle 948" x="810.830078" y="793.767578" width="37.384594" height="56.824585" fill="#BE000D" fill-opacity="1.000000"/>
	<line id="Line 27" x1="405.792969" y1="617.746094" x2="407.289062" y2="689.525391" stroke="#0E0B04" stroke-opacity="1.000000" stroke-width="2.000000"/>
	<path id="Vector 34" d="M430.701 762.041C439.674 771.762 464.35 788.211 457.619 818.117C450.891 848.025 442.666 856.998 421.73 862.232C400.795 867.465 375.373 861.484 366.402 842.791C357.43 824.1 351.447 804.66 359.672 789.705C367.896 774.752 385.838 756.059 390.324 744.844C393.914 735.871 413.34 741.105 423.807 741.854C423.061 743.348 423.523 754.266 430.701 762.041Z" stroke="#0E0B04" stroke-opacity="1.000000" stroke-width="2.000000"/>
	<path id="Vector 35" d="M398.553 778.49C390.328 788.211 372.383 794.939 376.869 804.66C381.355 814.381 388.83 813.633 391.82 804.66C394.812 795.688 385.09 812.885 391.82 815.127C398.553 817.371 406.025 811.389 402.289 803.164C398.553 794.939 399.297 818.119 405.279 818.119C411.262 818.119 420.98 813.633 417.242 808.398C413.504 803.164 409.766 815.127 417.242 818.119C424.719 821.109 436.682 813.633 429.205 808.398C421.729 803.164 429.205 817.371 432.943 815.127C436.682 812.885 441.168 806.902 429.205 792.697C417.242 778.49 412.756 748.584 415 745.592C416.793 743.199 404.783 742.602 398.553 742.602C401.293 751.324 405.133 770.715 398.553 778.49Z" stroke="#0E0B04" stroke-opacity="1.000000" stroke-width="2.000000"/>
	<rect id="Rectangle 948" x="388.830078" y="688.767578" width="37.384594" height="56.824585" fill="#BE000D" fill-opacity="1.000000"/>
	<line id="Line 27" x1="75.792969" y1="420.746094" x2="77.289062" y2="492.525391" stroke="#0E0B04" stroke-opacity="1.000000" stroke-width="2.000000"/>
	<path id="Vector 34" d="M100.701 565.041C109.674 574.762 134.35 591.211 127.619 621.117C120.891 651.025 112.666 659.998 91.7305 665.232C70.7949 670.465 45.373 664.484 36.4023 645.791C27.4297 627.1 21.4473 607.66 29.6719 592.705C37.8965 577.752 55.8379 559.059 60.3242 547.844C63.9141 538.871 83.3398 544.105 93.8066 544.854C93.0605 546.348 93.5234 557.266 100.701 565.041Z" stroke="#0E0B04" stroke-opacity="1.000000" stroke-width="2.000000"/>
	<path id="Vector 35" d="M68.5527 581.49C60.3281 591.211 42.3828 597.939 46.8691 607.66C51.3555 617.381 58.8301 616.633 61.8203 607.66C64.8125 598.688 55.0898 615.885 61.8203 618.127C68.5527 620.371 76.0254 614.389 72.2891 606.164C68.5527 597.939 69.2969 621.119 75.2793 621.119C81.2617 621.119 90.9805 616.633 87.2422 611.398C83.5039 606.164 79.7656 618.127 87.2422 621.119C94.7188 624.109 106.682 616.633 99.2051 611.398C91.7285 606.164 99.2051 620.371 102.943 618.127C106.682 615.885 111.168 609.902 99.2051 595.697C87.2422 581.49 82.7559 551.584 85 548.592C86.793 546.199 74.7832 545.602 68.5527 545.602C71.293 554.324 75.1328 573.715 68.5527 581.49Z" stroke="#0E0B04" stroke-opacity="1.000000" stroke-width="2.000000"/>
	<rect id="Rectangle 948" x="58.830078" y="491.767578" width="37.384594" height="56.824585" fill="#BE000D" fill-opacity="1.000000"/>
</svg>
