<svg width="1932.304688" height="614.634766" viewBox="0 0 1932.3 614.635" fill="none" xmlns="http://www.w3.org/2000/svg" xmlns:xlink="http://www.w3.org/1999/xlink">
	<desc>
			Created with Pixso.
	</desc>
	<defs/>
	<path id="Vector 113" d="M1.76758 1.76758C280.768 280.934 1071.17 675.768 1930.77 5.76758" stroke="#0E0B04" stroke-opacity="1.000000" stroke-width="5.000000"/>
	<line id="Line 27" x1="1805.792969" y1="97.246094" x2="1807.289062" y2="169.025391" stroke="#0E0B04" stroke-opacity="1.000000" stroke-width="2.000000"/>
	<path id="Vector 34" d="M1830.7 241.541C1839.67 251.262 1864.35 267.711 1857.62 297.617C1850.89 327.525 1842.67 336.498 1821.73 341.732C1800.79 346.965 1775.37 340.984 1766.4 322.291C1757.43 303.6 1751.45 284.16 1759.67 269.205C1767.9 254.252 1785.84 235.559 1790.32 224.344C1793.91 215.371 1813.34 220.605 1823.81 221.354C1823.06 222.848 1823.52 233.766 1830.7 241.541Z" stroke="#0E0B04" stroke-opacity="1.000000" stroke-width="2.000000"/>
	<path id="Vector 35" d="M1798.55 257.99C1790.33 267.711 1772.38 274.439 1776.87 284.16C1781.36 293.881 1788.83 293.133 1791.82 284.16C1794.81 275.188 1785.09 292.385 1791.82 294.627C1798.55 296.871 1806.03 290.889 1802.29 282.664C1798.55 274.439 1799.3 297.619 1805.28 297.619C1811.26 297.619 1820.98 293.133 1817.24 287.898C1813.5 282.664 1809.77 294.627 1817.24 297.619C1824.72 300.609 1836.68 293.133 1829.21 287.898C1821.73 282.664 1829.21 296.871 1832.94 294.627C1836.68 292.385 1841.17 286.402 1829.21 272.197C1817.24 257.99 1812.76 228.084 1815 225.092C1816.79 222.699 1804.78 222.102 1798.55 222.102C1801.29 230.824 1805.13 250.215 1798.55 257.99Z" stroke="#0E0B04" stroke-opacity="1.000000" stroke-width="2.000000"/>
	<rect id="Rectangle 262" x="1788.830078" y="168.267578" width="37.384594" height="56.824585" fill="#BE000D" fill-opacity="1.000000"/>
	<line id="Line 27" x1="1481.792969" y1="266.246094" x2="1483.289062" y2="338.025391" stroke="#0E0B04" stroke-opacity="1.000000" stroke-width="2.000000"/>
	<path id="Vector 34" d="M1506.7 410.541C1515.67 420.262 1540.35 436.711 1533.62 466.617C1526.89 496.525 1518.67 505.498 1497.73 510.732C1476.79 515.965 1451.37 509.984 1442.4 491.291C1433.43 472.6 1427.45 453.16 1435.67 438.205C1443.9 423.252 1461.84 404.559 1466.32 393.344C1469.91 384.371 1489.34 389.605 1499.81 390.354C1499.06 391.848 1499.52 402.766 1506.7 410.541Z" stroke="#0E0B04" stroke-opacity="1.000000" stroke-width="2.000000"/>
	<path id="Vector 35" d="M1474.55 426.99C1466.33 436.711 1448.38 443.439 1452.87 453.16C1457.36 462.881 1464.83 462.133 1467.82 453.16C1470.81 444.188 1461.09 461.385 1467.82 463.627C1474.55 465.871 1482.03 459.889 1478.29 451.664C1474.55 443.439 1475.3 466.619 1481.28 466.619C1487.26 466.619 1496.98 462.133 1493.24 456.898C1489.5 451.664 1485.77 463.627 1493.24 466.619C1500.72 469.609 1512.68 462.133 1505.21 456.898C1497.73 451.664 1505.21 465.871 1508.94 463.627C1512.68 461.385 1517.17 455.402 1505.21 441.197C1493.24 426.99 1488.76 397.084 1491 394.092C1492.79 391.699 1480.78 391.102 1474.55 391.102C1477.29 399.824 1481.13 419.215 1474.55 426.99Z" stroke="#0E0B04" stroke-opacity="1.000000" stroke-width="2.000000"/>
	<rect id="Rectangle 948" x="1464.830078" y="337.267578" width="37.384594" height="56.824585" fill="#BE000D" fill-opacity="1.000000"/>
	<line id="Line 27" x1="1177.792969" y1="357.246094" x2="1179.289062" y2="429.025391" stroke="#0E0B04" stroke-opacity="1.000000" stroke-width="2.000000"/>
	<path id="Vector 34" d="M1202.7 501.541C1211.67 511.262 1236.35 527.711 1229.62 557.617C1222.89 587.525 1214.67 596.498 1193.73 601.732C1172.79 606.965 1147.37 600.984 1138.4 582.291C1129.43 563.6 1123.45 544.16 1131.67 529.205C1139.9 514.252 1157.84 495.559 1162.32 484.344C1165.91 475.371 1185.34 480.605 1195.81 481.354C1195.06 482.848 1195.52 493.766 1202.7 501.541Z" stroke="#0E0B04" stroke-opacity="1.000000" stroke-width="2.000000"/>
	<path id="Vector 35" d="M1170.55 517.99C1162.33 527.711 1144.38 534.439 1148.87 544.16C1153.36 553.881 1160.83 553.133 1163.82 544.16C1166.81 535.188 1157.09 552.385 1163.82 554.627C1170.55 556.871 1178.03 550.889 1174.29 542.664C1170.55 534.439 1171.3 557.619 1177.28 557.619C1183.26 557.619 1192.98 553.133 1189.24 547.898C1185.5 542.664 1181.77 554.627 1189.24 557.619C1196.72 560.609 1208.68 553.133 1201.21 547.898C1193.73 542.664 1201.21 556.871 1204.94 554.627C1208.68 552.385 1213.17 546.402 1201.21 532.197C1189.24 517.99 1184.76 488.084 1187 485.092C1188.79 482.699 1176.78 482.102 1170.55 482.102C1173.29 490.824 1177.13 510.215 1170.55 517.99Z" stroke="#0E0B04" stroke-opacity="1.000000" stroke-width="2.000000"/>
	<rect id="Rectangle 948" x="1160.830078" y="428.267578" width="37.384594" height="56.824585" fill="#BE000D" fill-opacity="1.000000"/>
	<line id="Line 27" x1="827.792969" y1="367.246094" x2="829.289062" y2="439.025391" stroke="#0E0B04" stroke-opacity="1.000000" stroke-width="2.000000"/>
	<path id="Vector 34" d="M852.701 511.541C861.674 521.262 886.35 537.711 879.619 567.617C872.891 597.525 864.666 606.498 843.73 611.732C822.795 616.965 797.373 610.984 788.402 592.291C779.43 573.6 773.447 554.16 781.672 539.205C789.896 524.252 807.838 505.559 812.324 494.344C815.914 485.371 835.34 490.605 845.807 491.354C845.061 492.848 845.523 503.766 852.701 511.541Z" stroke="#0E0B04" stroke-opacity="1.000000" stroke-width="2.000000"/>
	<path id="Vector 35" d="M820.553 527.99C812.328 537.711 794.383 544.439 798.869 554.16C803.355 563.881 810.83 563.133 813.82 554.16C816.812 545.188 807.09 562.385 813.82 564.627C820.553 566.871 828.025 560.889 824.289 552.664C820.553 544.439 821.297 567.619 827.279 567.619C833.262 567.619 842.98 563.133 839.242 557.898C835.504 552.664 831.766 564.627 839.242 567.619C846.719 570.609 858.682 563.133 851.205 557.898C843.729 552.664 851.205 566.871 854.943 564.627C858.682 562.385 863.168 556.402 851.205 542.197C839.242 527.99 834.756 498.084 837 495.092C838.793 492.699 826.783 492.102 820.553 492.102C823.293 500.824 827.133 520.215 820.553 527.99Z" stroke="#0E0B04" stroke-opacity="1.000000" stroke-width="2.000000"/>
	<rect id="Rectangle 948" x="810.830078" y="438.267578" width="37.384594" height="56.824585" fill="#BE000D" fill-opacity="1.000000"/>
	<line id="Line 27" x1="405.792969" y1="262.246094" x2="407.289062" y2="334.025391" stroke="#0E0B04" stroke-opacity="1.000000" stroke-width="2.000000"/>
	<path id="Vector 34" d="M430.701 406.541C439.674 416.262 464.35 432.711 457.619 462.617C450.891 492.525 442.666 501.498 421.73 506.732C400.795 511.965 375.373 505.984 366.402 487.291C357.43 468.6 351.447 449.16 359.672 434.205C367.896 419.252 385.838 400.559 390.324 389.344C393.914 380.371 413.34 385.605 423.807 386.354C423.061 387.848 423.523 398.766 430.701 406.541Z" stroke="#0E0B04" stroke-opacity="1.000000" stroke-width="2.000000"/>
	<path id="Vector 35" d="M398.553 422.99C390.328 432.711 372.383 439.439 376.869 449.16C381.355 458.881 388.83 458.133 391.82 449.16C394.812 440.188 385.09 457.385 391.82 459.627C398.553 461.871 406.025 455.889 402.289 447.664C398.553 439.439 399.297 462.619 405.279 462.619C411.262 462.619 420.98 458.133 417.242 452.898C413.504 447.664 409.766 459.627 417.242 462.619C424.719 465.609 436.682 458.133 429.205 452.898C421.729 447.664 429.205 461.871 432.943 459.627C436.682 457.385 441.168 451.402 429.205 437.197C417.242 422.99 412.756 393.084 415 390.092C416.793 387.699 404.783 387.102 398.553 387.102C401.293 395.824 405.133 415.215 398.553 422.99Z" stroke="#0E0B04" stroke-opacity="1.000000" stroke-width="2.000000"/>
	<rect id="Rectangle 948" x="388.830078" y="333.267578" width="37.384594" height="56.824585" fill="#BE000D" fill-opacity="1.000000"/>
	<line id="Line 27" x1="75.792969" y1="65.246094" x2="77.289062" y2="137.025391" stroke="#0E0B04" stroke-opacity="1.000000" stroke-width="2.000000"/>
	<path id="Vector 34" d="M100.701 209.541C109.674 219.262 134.35 235.711 127.619 265.617C120.891 295.525 112.666 304.498 91.7305 309.732C70.7949 314.965 45.373 308.984 36.4023 290.291C27.4297 271.6 21.4473 252.16 29.6719 237.205C37.8965 222.252 55.8379 203.559 60.3242 192.344C63.9141 183.371 83.3398 188.605 93.8066 189.354C93.0605 190.848 93.5234 201.766 100.701 209.541Z" stroke="#0E0B04" stroke-opacity="1.000000" stroke-width="2.000000"/>
	<path id="Vector 35" d="M68.5527 225.99C60.3281 235.711 42.3828 242.439 46.8691 252.16C51.3555 261.881 58.8301 261.133 61.8203 252.16C64.8125 243.188 55.0898 260.385 61.8203 262.627C68.5527 264.871 76.0254 258.889 72.2891 250.664C68.5527 242.439 69.2969 265.619 75.2793 265.619C81.2617 265.619 90.9805 261.133 87.2422 255.898C83.5039 250.664 79.7656 262.627 87.2422 265.619C94.7188 268.609 106.682 261.133 99.2051 255.898C91.7285 250.664 99.2051 264.871 102.943 262.627C106.682 260.385 111.168 254.402 99.2051 240.197C87.2422 225.99 82.7559 196.084 85 193.092C86.793 190.699 74.7832 190.102 68.5527 190.102C71.293 198.824 75.1328 218.215 68.5527 225.99Z" stroke="#0E0B04" stroke-opacity="1.000000" stroke-width="2.000000"/>
	<rect id="Rectangle 948" x="58.830078" y="136.267578" width="37.384594" height="56.824585" fill="#BE000D" fill-opacity="1.000000"/>
</svg>
