<svg width="130.277344" height="308.427734" viewBox="0 0 130.277 308.428" fill="none" xmlns="http://www.w3.org/2000/svg" xmlns:xlink="http://www.w3.org/1999/xlink">
	<desc>
			Created with Pixso.
	</desc>
	<defs/>
	<line id="Line 27" x1="72.041016" y1="0.025391" x2="70.183594" y2="89.226562" stroke="#0E0B04" stroke-opacity="1.000000" stroke-width="2.485437"/>
	<path id="Vector 34" d="M36.1133 180.309C24.9629 192.389 -5.70117 212.83 2.66016 249.998C11.0234 287.164 21.2441 298.314 47.2617 304.818C73.2773 311.322 104.869 303.889 116.02 280.66C127.17 257.43 134.604 233.271 124.383 214.689C114.162 196.105 91.8652 172.877 86.2891 158.939C81.8301 147.789 57.6875 154.293 44.6797 155.223C45.6094 157.08 45.0332 170.646 36.1133 180.309Z" stroke="#0E0B04" stroke-opacity="1.000000" stroke-width="2.485437"/>
	<path id="Vector 35" d="M76.0684 200.752C86.291 212.832 108.59 221.193 103.016 233.273C97.4395 245.354 88.1523 244.424 84.4355 233.273C80.7188 222.123 92.8008 243.494 84.4355 246.281C76.0684 249.07 66.7832 241.637 71.4258 231.416C76.0684 221.193 75.1426 249.998 67.709 249.998C60.2754 249.998 48.1973 244.424 52.8438 237.92C57.4883 231.416 62.1348 246.281 52.8438 249.998C43.5508 253.715 28.6836 244.424 37.9766 237.92C47.2676 231.416 37.9766 249.07 33.3301 246.281C28.6836 243.494 23.1094 236.061 37.9766 218.406C52.8438 200.752 58.418 163.586 55.6309 159.869C53.4004 156.896 68.3281 156.152 76.0684 156.152C72.6621 166.992 67.8926 191.09 76.0684 200.752Z" stroke="#0E0B04" stroke-opacity="1.000000" stroke-width="2.485437"/>
	<rect id="Rectangle 539" width="46.458523" height="70.616959" transform="matrix(-1 0 0 1 88.1484 89.25)" fill="#BE000D" fill-opacity="1.000000"/>
</svg>
