<svg width="1731" height="1480" viewBox="0 0 1731 1480" fill="none" xmlns="http://www.w3.org/2000/svg">
<path d="M4.5 126.815C1.16868 87.5776 5.73349 26.1006 9.57733 0H23.6724L22.0708 8.60458C22.2843 7.17049 21.9426 9.12086 18.8676 28.3951C15.0237 52.488 12.8395 88.9907 20.4692 136.813C29.1178 191.022 25.9146 215.975 20.4692 269.323C15.0237 322.672 11.5002 383.764 20.4692 426.787C29.4381 469.81 26.8756 511.973 25.9146 536.066C25.0274 558.31 17.1205 613.544 14.7034 642.763C12.7815 665.995 21.003 717.049 25.9146 739.994H14.7034C14.4899 740.281 12.3971 729.841 5.73447 685.785C-2.59384 630.716 9.57733 573.065 14.0628 522.298C18.5482 471.531 7.65594 446.578 2.20997 406.997C-3.236 367.416 2.20997 313.207 9.57733 248.673C16.9447 184.138 8.66416 175.861 4.5 126.815Z" fill="#E68236"/>
<path d="M38.5 126.815C35.1687 87.5776 39.7335 26.1006 43.5773 0H57.6724L56.0708 8.60458C56.2843 7.17049 55.9426 9.12086 52.8676 28.3951C49.0237 52.488 46.8395 88.9907 54.4692 136.813C63.1178 191.022 59.9146 215.975 54.4692 269.323C49.0237 322.672 45.5002 383.764 54.4692 426.787C63.4381 469.81 60.8756 511.973 59.9146 536.066C59.0274 558.31 51.1205 613.544 48.7034 642.763C46.7815 665.995 55.003 717.049 59.9146 739.994H48.7034C48.4899 740.281 46.3971 729.841 39.7345 685.785C31.4062 630.716 43.5773 573.065 48.0628 522.298C52.5482 471.531 41.6559 446.578 36.21 406.997C30.764 367.416 36.21 313.207 43.5773 248.673C50.9447 184.138 42.6642 175.861 38.5 126.815Z" fill="#E68236"/>
<path d="M72.5 126.815C69.1687 87.5776 73.7335 26.1006 77.5773 0H91.6724L90.0708 8.60458C90.2843 7.17049 89.9426 9.12086 86.8676 28.3951C83.0237 52.488 80.8395 88.9907 88.4692 136.813C97.1178 191.022 93.9146 215.975 88.4692 269.323C83.0237 322.672 79.5002 383.764 88.4692 426.787C97.4381 469.81 94.8756 511.973 93.9146 536.066C93.0274 558.31 85.1205 613.544 82.7034 642.763C80.7815 665.995 89.003 717.049 93.9146 739.994H82.7034C82.4899 740.281 80.3971 729.841 73.7345 685.785C65.4062 630.716 77.5773 573.065 82.0628 522.298C86.5482 471.531 75.6559 446.578 70.21 406.997C64.764 367.416 70.21 313.207 77.5773 248.673C84.9447 184.138 76.6642 175.861 72.5 126.815Z" fill="#E68236"/>
<path d="M106.5 126.815C103.169 87.5776 107.733 26.1006 111.577 0H125.672L124.071 8.60458C124.284 7.17049 123.943 9.12086 120.868 28.3951C117.024 52.488 114.839 88.9907 122.469 136.813C131.118 191.022 127.915 215.975 122.469 269.323C117.024 322.672 113.5 383.764 122.469 426.787C131.438 469.81 128.876 511.973 127.915 536.066C127.027 558.31 119.121 613.544 116.703 642.763C114.782 665.995 123.003 717.049 127.915 739.994H116.703C116.49 740.281 114.397 729.841 107.734 685.785C99.4062 630.716 111.577 573.065 116.063 522.298C120.548 471.531 109.656 446.578 104.21 406.997C98.764 367.416 104.21 313.207 111.577 248.673C118.945 184.138 110.664 175.861 106.5 126.815Z" fill="#E68236"/>
<path d="M140.5 126.815C137.169 87.5776 141.733 26.1006 145.577 0H159.672L158.071 8.60458C158.284 7.17049 157.943 9.12086 154.868 28.3951C151.024 52.488 148.839 88.9907 156.469 136.813C165.118 191.022 161.915 215.975 156.469 269.323C151.024 322.672 147.5 383.764 156.469 426.787C165.438 469.81 162.876 511.973 161.915 536.066C161.027 558.31 153.121 613.544 150.703 642.763C148.782 665.995 157.003 717.049 161.915 739.994H150.703C150.49 740.281 148.397 729.841 141.734 685.785C133.406 630.716 145.577 573.065 150.063 522.298C154.548 471.531 143.656 446.578 138.21 406.997C132.764 367.416 138.21 313.207 145.577 248.673C152.945 184.138 144.664 175.861 140.5 126.815Z" fill="#E68236"/>
<path d="M174.5 126.815C171.169 87.5776 175.733 26.1006 179.577 0H193.672L192.071 8.60458C192.284 7.17049 191.943 9.12086 188.868 28.3951C185.024 52.488 182.839 88.9907 190.469 136.813C199.118 191.022 195.915 215.975 190.469 269.323C185.024 322.672 181.5 383.764 190.469 426.787C199.438 469.81 196.876 511.973 195.915 536.066C195.027 558.31 187.121 613.544 184.703 642.763C182.782 665.995 191.003 717.049 195.915 739.994H184.703C184.49 740.281 182.397 729.841 175.734 685.785C167.406 630.716 179.577 573.065 184.063 522.298C188.548 471.531 177.656 446.578 172.21 406.997C166.764 367.416 172.21 313.207 179.577 248.673C186.945 184.138 178.664 175.861 174.5 126.815Z" fill="#E68236"/>
<path d="M208.5 126.815C205.169 87.5776 209.733 26.1006 213.577 0H227.672L226.071 8.60458C226.284 7.17049 225.943 9.12086 222.868 28.3951C219.024 52.488 216.839 88.9907 224.469 136.813C233.118 191.022 229.915 215.975 224.469 269.323C219.024 322.672 215.5 383.764 224.469 426.787C233.438 469.81 230.876 511.973 229.915 536.066C229.027 558.31 221.121 613.544 218.703 642.763C216.782 665.995 225.003 717.049 229.915 739.994H218.703C218.49 740.281 216.397 729.841 209.734 685.785C201.406 630.716 213.577 573.065 218.063 522.298C222.548 471.531 211.656 446.578 206.21 406.997C200.764 367.416 206.21 313.207 213.577 248.673C220.945 184.138 212.664 175.861 208.5 126.815Z" fill="#E68236"/>
<path d="M242.5 126.815C239.169 87.5776 243.733 26.1006 247.577 0H261.672L260.071 8.60458C260.284 7.17049 259.943 9.12086 256.868 28.3951C253.024 52.488 250.839 88.9907 258.469 136.813C267.118 191.022 263.915 215.975 258.469 269.323C253.024 322.672 249.5 383.764 258.469 426.787C267.438 469.81 264.876 511.973 263.915 536.066C263.027 558.31 255.121 613.544 252.703 642.763C250.782 665.995 259.003 717.049 263.915 739.994H252.703C252.49 740.281 250.397 729.841 243.734 685.785C235.406 630.716 247.577 573.065 252.063 522.298C256.548 471.531 245.656 446.578 240.21 406.997C234.764 367.416 240.21 313.207 247.577 248.673C254.945 184.138 246.664 175.861 242.5 126.815Z" fill="#E68236"/>
<path d="M276.5 126.815C273.169 87.5776 277.733 26.1006 281.577 0H295.672L294.071 8.60458C294.284 7.17049 293.943 9.12086 290.868 28.3951C287.024 52.488 284.839 88.9907 292.469 136.813C301.118 191.022 297.915 215.975 292.469 269.323C287.024 322.672 283.5 383.764 292.469 426.787C301.438 469.81 298.876 511.973 297.915 536.066C297.027 558.31 289.121 613.544 286.703 642.763C284.782 665.995 293.003 717.049 297.915 739.994H286.703C286.49 740.281 284.397 729.841 277.734 685.785C269.406 630.716 281.577 573.065 286.063 522.298C290.548 471.531 279.656 446.578 274.21 406.997C268.764 367.416 274.21 313.207 281.577 248.673C288.945 184.138 280.664 175.861 276.5 126.815Z" fill="#E68236"/>
<path d="M310.5 126.815C307.169 87.5776 311.733 26.1006 315.577 0H329.672L328.071 8.60458C328.284 7.17049 327.943 9.12086 324.868 28.3951C321.024 52.488 318.839 88.9907 326.469 136.813C335.118 191.022 331.915 215.975 326.469 269.323C321.024 322.672 317.5 383.764 326.469 426.787C335.438 469.81 332.876 511.973 331.915 536.066C331.027 558.31 323.121 613.544 320.703 642.763C318.782 665.995 327.003 717.049 331.915 739.994H320.703C320.49 740.281 318.397 729.841 311.734 685.785C303.406 630.716 315.577 573.065 320.063 522.298C324.548 471.531 313.656 446.578 308.21 406.997C302.764 367.416 308.21 313.207 315.577 248.673C322.945 184.138 314.664 175.861 310.5 126.815Z" fill="#E68236"/>
<path d="M344.5 126.815C341.169 87.5776 345.733 26.1006 349.577 0H363.672L362.071 8.60458C362.284 7.17049 361.943 9.12086 358.868 28.3951C355.024 52.488 352.839 88.9907 360.469 136.813C369.118 191.022 365.915 215.975 360.469 269.323C355.024 322.672 351.5 383.764 360.469 426.787C369.438 469.81 366.876 511.973 365.915 536.066C365.027 558.31 357.121 613.544 354.703 642.763C352.782 665.995 361.003 717.049 365.915 739.994H354.703C354.49 740.281 352.397 729.841 345.734 685.785C337.406 630.716 349.577 573.065 354.063 522.298C358.548 471.531 347.656 446.578 342.21 406.997C336.764 367.416 342.21 313.207 349.577 248.673C356.945 184.138 348.664 175.861 344.5 126.815Z" fill="#E68236"/>
<path d="M378.5 126.815C375.169 87.5776 379.733 26.1006 383.577 0H397.672L396.071 8.60458C396.284 7.17049 395.943 9.12086 392.868 28.3951C389.024 52.488 386.839 88.9907 394.469 136.813C403.118 191.022 399.915 215.975 394.469 269.323C389.024 322.672 385.5 383.764 394.469 426.787C403.438 469.81 400.876 511.973 399.915 536.066C399.027 558.31 391.121 613.544 388.703 642.763C386.782 665.995 395.003 717.049 399.915 739.994H388.703C388.49 740.281 386.397 729.841 379.734 685.785C371.406 630.716 383.577 573.065 388.063 522.298C392.548 471.531 381.656 446.578 376.21 406.997C370.764 367.416 376.21 313.207 383.577 248.673C390.945 184.138 382.664 175.861 378.5 126.815Z" fill="#E68236"/>
<path d="M412.5 126.815C409.169 87.5776 413.733 26.1006 417.577 0H431.672L430.071 8.60458C430.284 7.17049 429.943 9.12086 426.868 28.3951C423.024 52.488 420.839 88.9907 428.469 136.813C437.118 191.022 433.915 215.975 428.469 269.323C423.024 322.672 419.5 383.764 428.469 426.787C437.438 469.81 434.876 511.973 433.915 536.066C433.027 558.31 425.121 613.544 422.703 642.763C420.782 665.995 429.003 717.049 433.915 739.994H422.703C422.49 740.281 420.397 729.841 413.734 685.785C405.406 630.716 417.577 573.065 422.063 522.298C426.548 471.531 415.656 446.578 410.21 406.997C404.764 367.416 410.21 313.207 417.577 248.673C424.945 184.138 416.664 175.861 412.5 126.815Z" fill="#E68236"/>
<path d="M446.5 126.815C443.169 87.5776 447.733 26.1006 451.577 0H465.672L464.071 8.60458C464.284 7.17049 463.943 9.12086 460.868 28.3951C457.024 52.488 454.839 88.9907 462.469 136.813C471.118 191.022 467.915 215.975 462.469 269.323C457.024 322.672 453.5 383.764 462.469 426.787C471.438 469.81 468.876 511.973 467.915 536.066C467.027 558.31 459.121 613.544 456.703 642.763C454.782 665.995 463.003 717.049 467.915 739.994H456.703C456.49 740.281 454.397 729.841 447.734 685.785C439.406 630.716 451.577 573.065 456.063 522.298C460.548 471.531 449.656 446.578 444.21 406.997C438.764 367.416 444.21 313.207 451.577 248.673C458.945 184.138 450.664 175.861 446.5 126.815Z" fill="#E68236"/>
<path d="M480.5 126.815C477.169 87.5776 481.733 26.1006 485.577 0H499.672L498.071 8.60458C498.284 7.17049 497.943 9.12086 494.868 28.3951C491.024 52.488 488.839 88.9907 496.469 136.813C505.118 191.022 501.915 215.975 496.469 269.323C491.024 322.672 487.5 383.764 496.469 426.787C505.438 469.81 502.876 511.973 501.915 536.066C501.027 558.31 493.121 613.544 490.703 642.763C488.782 665.995 497.003 717.049 501.915 739.994H490.703C490.49 740.281 488.397 729.841 481.734 685.785C473.406 630.716 485.577 573.065 490.063 522.298C494.548 471.531 483.656 446.578 478.21 406.997C472.764 367.416 478.21 313.207 485.577 248.673C492.945 184.138 484.664 175.861 480.5 126.815Z" fill="#E68236"/>
<path d="M514.5 126.815C511.169 87.5776 515.733 26.1006 519.577 0H533.672L532.071 8.60458C532.284 7.17049 531.943 9.12086 528.868 28.3951C525.024 52.488 522.839 88.9907 530.469 136.813C539.118 191.022 535.915 215.975 530.469 269.323C525.024 322.672 521.5 383.764 530.469 426.787C539.438 469.81 536.876 511.973 535.915 536.066C535.027 558.31 527.121 613.544 524.703 642.763C522.782 665.995 531.003 717.049 535.915 739.994H524.703C524.49 740.281 522.397 729.841 515.734 685.785C507.406 630.716 519.577 573.065 524.063 522.298C528.548 471.531 517.656 446.578 512.21 406.997C506.764 367.416 512.21 313.207 519.577 248.673C526.945 184.138 518.664 175.861 514.5 126.815Z" fill="#E68236"/>
<path d="M548.5 126.815C545.169 87.5776 549.733 26.1006 553.577 0H567.672L566.071 8.60458C566.284 7.17049 565.943 9.12086 562.868 28.3951C559.024 52.488 556.839 88.9907 564.469 136.813C573.118 191.022 569.915 215.975 564.469 269.323C559.024 322.672 555.5 383.764 564.469 426.787C573.438 469.81 570.876 511.973 569.915 536.066C569.027 558.31 561.121 613.544 558.703 642.763C556.782 665.995 565.003 717.049 569.915 739.994H558.703C558.49 740.281 556.397 729.841 549.734 685.785C541.406 630.716 553.577 573.065 558.063 522.298C562.548 471.531 551.656 446.578 546.21 406.997C540.764 367.416 546.21 313.207 553.577 248.673C560.945 184.138 552.664 175.861 548.5 126.815Z" fill="#E68236"/>
<path d="M582.5 126.815C579.169 87.5776 583.733 26.1006 587.577 0H601.672L600.071 8.60458C600.284 7.17049 599.943 9.12086 596.868 28.3951C593.024 52.488 590.839 88.9907 598.469 136.813C607.118 191.022 603.915 215.975 598.469 269.323C593.024 322.672 589.5 383.764 598.469 426.787C607.438 469.81 604.876 511.973 603.915 536.066C603.027 558.31 595.121 613.544 592.703 642.763C590.782 665.995 599.003 717.049 603.915 739.994H592.703C592.49 740.281 590.397 729.841 583.734 685.785C575.406 630.716 587.577 573.065 592.063 522.298C596.548 471.531 585.656 446.578 580.21 406.997C574.764 367.416 580.21 313.207 587.577 248.673C594.945 184.138 586.664 175.861 582.5 126.815Z" fill="#E68236"/>
<path d="M616.5 126.815C613.169 87.5776 617.733 26.1006 621.577 0H635.672L634.071 8.60458C634.284 7.17049 633.943 9.12086 630.868 28.3951C627.024 52.488 624.839 88.9907 632.469 136.813C641.118 191.022 637.915 215.975 632.469 269.323C627.024 322.672 623.5 383.764 632.469 426.787C641.438 469.81 638.876 511.973 637.915 536.066C637.027 558.31 629.121 613.544 626.703 642.763C624.782 665.995 633.003 717.049 637.915 739.994H626.703C626.49 740.281 624.397 729.841 617.734 685.785C609.406 630.716 621.577 573.065 626.063 522.298C630.548 471.531 619.656 446.578 614.21 406.997C608.764 367.416 614.21 313.207 621.577 248.673C628.945 184.138 620.664 175.861 616.5 126.815Z" fill="#E68236"/>
<path d="M650.5 126.815C647.169 87.5776 651.733 26.1006 655.577 0H669.672L668.071 8.60458C668.284 7.17049 667.943 9.12086 664.868 28.3951C661.024 52.488 658.839 88.9907 666.469 136.813C675.118 191.022 671.915 215.975 666.469 269.323C661.024 322.672 657.5 383.764 666.469 426.787C675.438 469.81 672.876 511.973 671.915 536.066C671.027 558.31 663.121 613.544 660.703 642.763C658.782 665.995 667.003 717.049 671.915 739.994H660.703C660.49 740.281 658.397 729.841 651.734 685.785C643.406 630.716 655.577 573.065 660.063 522.298C664.548 471.531 653.656 446.578 648.21 406.997C642.764 367.416 648.21 313.207 655.577 248.673C662.945 184.138 654.664 175.861 650.5 126.815Z" fill="#E68236"/>
<path d="M684.5 126.815C681.169 87.5776 685.733 26.1006 689.577 0H703.672L702.071 8.60458C702.284 7.17049 701.943 9.12086 698.868 28.3951C695.024 52.488 692.839 88.9907 700.469 136.813C709.118 191.022 705.915 215.975 700.469 269.323C695.024 322.672 691.5 383.764 700.469 426.787C709.438 469.81 706.876 511.973 705.915 536.066C705.027 558.31 697.121 613.544 694.703 642.763C692.782 665.995 701.003 717.049 705.915 739.994H694.703C694.49 740.281 692.397 729.841 685.734 685.785C677.406 630.716 689.577 573.065 694.063 522.298C698.548 471.531 687.656 446.578 682.21 406.997C676.764 367.416 682.21 313.207 689.577 248.673C696.945 184.138 688.664 175.861 684.5 126.815Z" fill="#E68236"/>
<path d="M718.5 126.815C715.169 87.5776 719.733 26.1006 723.577 0H737.672L736.071 8.60458C736.284 7.17049 735.943 9.12086 732.868 28.3951C729.024 52.488 726.839 88.9907 734.469 136.813C743.118 191.022 739.915 215.975 734.469 269.323C729.024 322.672 725.5 383.764 734.469 426.787C743.438 469.81 740.876 511.973 739.915 536.066C739.027 558.31 731.121 613.544 728.703 642.763C726.782 665.995 735.003 717.049 739.915 739.994H728.703C728.49 740.281 726.397 729.841 719.734 685.785C711.406 630.716 723.577 573.065 728.063 522.298C732.548 471.531 721.656 446.578 716.21 406.997C710.764 367.416 716.21 313.207 723.577 248.673C730.945 184.138 722.664 175.861 718.5 126.815Z" fill="#E68236"/>
<path d="M752.5 126.815C749.169 87.5776 753.733 26.1006 757.577 0H771.672L770.071 8.60458C770.284 7.17049 769.943 9.12086 766.868 28.3951C763.024 52.488 760.839 88.9907 768.469 136.813C777.118 191.022 773.915 215.975 768.469 269.323C763.024 322.672 759.5 383.764 768.469 426.787C777.438 469.81 774.876 511.973 773.915 536.066C773.027 558.31 765.121 613.544 762.703 642.763C760.782 665.995 769.003 717.049 773.915 739.994H762.703C762.49 740.281 760.397 729.841 753.734 685.785C745.406 630.716 757.577 573.065 762.063 522.298C766.548 471.531 755.656 446.578 750.21 406.997C744.764 367.416 750.21 313.207 757.577 248.673C764.945 184.138 756.664 175.861 752.5 126.815Z" fill="#E68236"/>
<path d="M786.5 126.815C783.169 87.5776 787.733 26.1006 791.577 0H805.672L804.071 8.60458C804.284 7.17049 803.943 9.12086 800.868 28.3951C797.024 52.488 794.839 88.9907 802.469 136.813C811.118 191.022 807.915 215.975 802.469 269.323C797.024 322.672 793.5 383.764 802.469 426.787C811.438 469.81 808.876 511.973 807.915 536.066C807.027 558.31 799.121 613.544 796.703 642.763C794.782 665.995 803.003 717.049 807.915 739.994H796.703C796.49 740.281 794.397 729.841 787.734 685.785C779.406 630.716 791.577 573.065 796.063 522.298C800.548 471.531 789.656 446.578 784.21 406.997C778.764 367.416 784.21 313.207 791.577 248.673C798.945 184.138 790.664 175.861 786.5 126.815Z" fill="#E68236"/>
<path d="M820.5 126.815C817.169 87.5776 821.733 26.1006 825.577 0H839.672L838.071 8.60458C838.284 7.17049 837.943 9.12086 834.868 28.3951C831.024 52.488 828.839 88.9907 836.469 136.813C845.118 191.022 841.915 215.975 836.469 269.323C831.024 322.672 827.5 383.764 836.469 426.787C845.438 469.81 842.876 511.973 841.915 536.066C841.027 558.31 833.121 613.544 830.703 642.763C828.782 665.995 837.003 717.049 841.915 739.994H830.703C830.49 740.281 828.397 729.841 821.734 685.785C813.406 630.716 825.577 573.065 830.063 522.298C834.548 471.531 823.656 446.578 818.21 406.997C812.764 367.416 818.21 313.207 825.577 248.673C832.945 184.138 824.664 175.861 820.5 126.815Z" fill="#E68236"/>
<path d="M854.5 126.815C851.169 87.5776 855.733 26.1006 859.577 0H873.672L872.071 8.60458C872.284 7.17049 871.943 9.12086 868.868 28.3951C865.024 52.488 862.839 88.9907 870.469 136.813C879.118 191.022 875.915 215.975 870.469 269.323C865.024 322.672 861.5 383.764 870.469 426.787C879.438 469.81 876.876 511.973 875.915 536.066C875.027 558.31 867.121 613.544 864.703 642.763C862.782 665.995 871.003 717.049 875.915 739.994H864.703C864.49 740.281 862.397 729.841 855.734 685.785C847.406 630.716 859.577 573.065 864.063 522.298C868.548 471.531 857.656 446.578 852.21 406.997C846.764 367.416 852.21 313.207 859.577 248.673C866.945 184.138 858.664 175.861 854.5 126.815Z" fill="#E68236"/>
<path d="M888.5 126.815C885.169 87.5776 889.733 26.1006 893.577 0H907.672L906.071 8.60458C906.284 7.17049 905.943 9.12086 902.868 28.3951C899.024 52.488 896.839 88.9907 904.469 136.813C913.118 191.022 909.915 215.975 904.469 269.323C899.024 322.672 895.5 383.764 904.469 426.787C913.438 469.81 910.876 511.973 909.915 536.066C909.027 558.31 901.121 613.544 898.703 642.763C896.782 665.995 905.003 717.049 909.915 739.994H898.703C898.49 740.281 896.397 729.841 889.734 685.785C881.406 630.716 893.577 573.065 898.063 522.298C902.548 471.531 891.656 446.578 886.21 406.997C880.764 367.416 886.21 313.207 893.577 248.673C900.945 184.138 892.664 175.861 888.5 126.815Z" fill="#E68236"/>
<path d="M922.5 126.815C919.169 87.5776 923.733 26.1006 927.577 0H941.672L940.071 8.60458C940.284 7.17049 939.943 9.12086 936.868 28.3951C933.024 52.488 930.839 88.9907 938.469 136.813C947.118 191.022 943.915 215.975 938.469 269.323C933.024 322.672 929.5 383.764 938.469 426.787C947.438 469.81 944.876 511.973 943.915 536.066C943.027 558.31 935.121 613.544 932.703 642.763C930.782 665.995 939.003 717.049 943.915 739.994H932.703C932.49 740.281 930.397 729.841 923.734 685.785C915.406 630.716 927.577 573.065 932.063 522.298C936.548 471.531 925.656 446.578 920.21 406.997C914.764 367.416 920.21 313.207 927.577 248.673C934.945 184.138 926.664 175.861 922.5 126.815Z" fill="#E68236"/>
<path d="M956.5 126.815C953.169 87.5776 957.733 26.1006 961.577 0H975.672L974.071 8.60458C974.284 7.17049 973.943 9.12086 970.868 28.3951C967.024 52.488 964.839 88.9907 972.469 136.813C981.118 191.022 977.915 215.975 972.469 269.323C967.024 322.672 963.5 383.764 972.469 426.787C981.438 469.81 978.876 511.973 977.915 536.066C977.027 558.31 969.121 613.544 966.703 642.763C964.782 665.995 973.003 717.049 977.915 739.994H966.703C966.49 740.281 964.397 729.841 957.734 685.785C949.406 630.716 961.577 573.065 966.063 522.298C970.548 471.531 959.656 446.578 954.21 406.997C948.764 367.416 954.21 313.207 961.577 248.673C968.945 184.138 960.664 175.861 956.5 126.815Z" fill="#E68236"/>
<path d="M990.5 126.815C987.169 87.5776 991.733 26.1006 995.577 0H1009.67L1008.07 8.60458C1008.28 7.17049 1007.94 9.12086 1004.87 28.3951C1001.02 52.488 998.839 88.9907 1006.47 136.813C1015.12 191.022 1011.91 215.975 1006.47 269.323C1001.02 322.672 997.5 383.764 1006.47 426.787C1015.44 469.81 1012.88 511.973 1011.91 536.066C1011.03 558.31 1003.12 613.544 1000.7 642.763C998.782 665.995 1007 717.049 1011.91 739.994H1000.7C1000.49 740.281 998.397 729.841 991.734 685.785C983.406 630.716 995.577 573.065 1000.06 522.298C1004.55 471.531 993.656 446.578 988.21 406.997C982.764 367.416 988.21 313.207 995.577 248.673C1002.94 184.138 994.664 175.861 990.5 126.815Z" fill="#E68236"/>
<path d="M1024.5 126.815C1021.17 87.5776 1025.73 26.1006 1029.58 0H1043.67L1042.07 8.60458C1042.28 7.17049 1041.94 9.12086 1038.87 28.3951C1035.02 52.488 1032.84 88.9907 1040.47 136.813C1049.12 191.022 1045.91 215.975 1040.47 269.323C1035.02 322.672 1031.5 383.764 1040.47 426.787C1049.44 469.81 1046.88 511.973 1045.91 536.066C1045.03 558.31 1037.12 613.544 1034.7 642.763C1032.78 665.995 1041 717.049 1045.91 739.994H1034.7C1034.49 740.281 1032.4 729.841 1025.73 685.785C1017.41 630.716 1029.58 573.065 1034.06 522.298C1038.55 471.531 1027.66 446.578 1022.21 406.997C1016.76 367.416 1022.21 313.207 1029.58 248.673C1036.94 184.138 1028.66 175.861 1024.5 126.815Z" fill="#E68236"/>
<path d="M1058.5 126.815C1055.17 87.5776 1059.73 26.1006 1063.58 0H1077.67L1076.07 8.60458C1076.28 7.17049 1075.94 9.12086 1072.87 28.3951C1069.02 52.488 1066.84 88.9907 1074.47 136.813C1083.12 191.022 1079.91 215.975 1074.47 269.323C1069.02 322.672 1065.5 383.764 1074.47 426.787C1083.44 469.81 1080.88 511.973 1079.91 536.066C1079.03 558.31 1071.12 613.544 1068.7 642.763C1066.78 665.995 1075 717.049 1079.91 739.994H1068.7C1068.49 740.281 1066.4 729.841 1059.73 685.785C1051.41 630.716 1063.58 573.065 1068.06 522.298C1072.55 471.531 1061.66 446.578 1056.21 406.997C1050.76 367.416 1056.21 313.207 1063.58 248.673C1070.94 184.138 1062.66 175.861 1058.5 126.815Z" fill="#E68236"/>
<path d="M1092.5 126.815C1089.17 87.5776 1093.73 26.1006 1097.58 0H1111.67L1110.07 8.60458C1110.28 7.17049 1109.94 9.12086 1106.87 28.3951C1103.02 52.488 1100.84 88.9907 1108.47 136.813C1117.12 191.022 1113.91 215.975 1108.47 269.323C1103.02 322.672 1099.5 383.764 1108.47 426.787C1117.44 469.81 1114.88 511.973 1113.91 536.066C1113.03 558.31 1105.12 613.544 1102.7 642.763C1100.78 665.995 1109 717.049 1113.91 739.994H1102.7C1102.49 740.281 1100.4 729.841 1093.73 685.785C1085.41 630.716 1097.58 573.065 1102.06 522.298C1106.55 471.531 1095.66 446.578 1090.21 406.997C1084.76 367.416 1090.21 313.207 1097.58 248.673C1104.94 184.138 1096.66 175.861 1092.5 126.815Z" fill="#E68236"/>
<path d="M1126.5 126.815C1123.17 87.5776 1127.73 26.1006 1131.58 0H1145.67L1144.07 8.60458C1144.28 7.17049 1143.94 9.12086 1140.87 28.3951C1137.02 52.488 1134.84 88.9907 1142.47 136.813C1151.12 191.022 1147.91 215.975 1142.47 269.323C1137.02 322.672 1133.5 383.764 1142.47 426.787C1151.44 469.81 1148.88 511.973 1147.91 536.066C1147.03 558.31 1139.12 613.544 1136.7 642.763C1134.78 665.995 1143 717.049 1147.91 739.994H1136.7C1136.49 740.281 1134.4 729.841 1127.73 685.785C1119.41 630.716 1131.58 573.065 1136.06 522.298C1140.55 471.531 1129.66 446.578 1124.21 406.997C1118.76 367.416 1124.21 313.207 1131.58 248.673C1138.94 184.138 1130.66 175.861 1126.5 126.815Z" fill="#E68236"/>
<path d="M1160.5 126.815C1157.17 87.5776 1161.73 26.1006 1165.58 0H1179.67L1178.07 8.60458C1178.28 7.17049 1177.94 9.12086 1174.87 28.3951C1171.02 52.488 1168.84 88.9907 1176.47 136.813C1185.12 191.022 1181.91 215.975 1176.47 269.323C1171.02 322.672 1167.5 383.764 1176.47 426.787C1185.44 469.81 1182.88 511.973 1181.91 536.066C1181.03 558.31 1173.12 613.544 1170.7 642.763C1168.78 665.995 1177 717.049 1181.91 739.994H1170.7C1170.49 740.281 1168.4 729.841 1161.73 685.785C1153.41 630.716 1165.58 573.065 1170.06 522.298C1174.55 471.531 1163.66 446.578 1158.21 406.997C1152.76 367.416 1158.21 313.207 1165.58 248.673C1172.94 184.138 1164.66 175.861 1160.5 126.815Z" fill="#E68236"/>
<path d="M1194.5 126.815C1191.17 87.5776 1195.73 26.1006 1199.58 0H1213.67L1212.07 8.60458C1212.28 7.17049 1211.94 9.12086 1208.87 28.3951C1205.02 52.488 1202.84 88.9907 1210.47 136.813C1219.12 191.022 1215.91 215.975 1210.47 269.323C1205.02 322.672 1201.5 383.764 1210.47 426.787C1219.44 469.81 1216.88 511.973 1215.91 536.066C1215.03 558.31 1207.12 613.544 1204.7 642.763C1202.78 665.995 1211 717.049 1215.91 739.994H1204.7C1204.49 740.281 1202.4 729.841 1195.73 685.785C1187.41 630.716 1199.58 573.065 1204.06 522.298C1208.55 471.531 1197.66 446.578 1192.21 406.997C1186.76 367.416 1192.21 313.207 1199.58 248.673C1206.94 184.138 1198.66 175.861 1194.5 126.815Z" fill="#E68236"/>
<path d="M1228.5 126.815C1225.17 87.5776 1229.73 26.1006 1233.58 0H1247.67L1246.07 8.60458C1246.28 7.17049 1245.94 9.12086 1242.87 28.3951C1239.02 52.488 1236.84 88.9907 1244.47 136.813C1253.12 191.022 1249.91 215.975 1244.47 269.323C1239.02 322.672 1235.5 383.764 1244.47 426.787C1253.44 469.81 1250.88 511.973 1249.91 536.066C1249.03 558.31 1241.12 613.544 1238.7 642.763C1236.78 665.995 1245 717.049 1249.91 739.994H1238.7C1238.49 740.281 1236.4 729.841 1229.73 685.785C1221.41 630.716 1233.58 573.065 1238.06 522.298C1242.55 471.531 1231.66 446.578 1226.21 406.997C1220.76 367.416 1226.21 313.207 1233.58 248.673C1240.94 184.138 1232.66 175.861 1228.5 126.815Z" fill="#E68236"/>
<path d="M1262.5 126.815C1259.17 87.5776 1263.73 26.1006 1267.58 0H1281.67L1280.07 8.60458C1280.28 7.17049 1279.94 9.12086 1276.87 28.3951C1273.02 52.488 1270.84 88.9907 1278.47 136.813C1287.12 191.022 1283.91 215.975 1278.47 269.323C1273.02 322.672 1269.5 383.764 1278.47 426.787C1287.44 469.81 1284.88 511.973 1283.91 536.066C1283.03 558.31 1275.12 613.544 1272.7 642.763C1270.78 665.995 1279 717.049 1283.91 739.994H1272.7C1272.49 740.281 1270.4 729.841 1263.73 685.785C1255.41 630.716 1267.58 573.065 1272.06 522.298C1276.55 471.531 1265.66 446.578 1260.21 406.997C1254.76 367.416 1260.21 313.207 1267.58 248.673C1274.94 184.138 1266.66 175.861 1262.5 126.815Z" fill="#E68236"/>
<path d="M1296.5 126.815C1293.17 87.5776 1297.73 26.1006 1301.58 0H1315.67L1314.07 8.60458C1314.28 7.17049 1313.94 9.12086 1310.87 28.3951C1307.02 52.488 1304.84 88.9907 1312.47 136.813C1321.12 191.022 1317.91 215.975 1312.47 269.323C1307.02 322.672 1303.5 383.764 1312.47 426.787C1321.44 469.81 1318.88 511.973 1317.91 536.066C1317.03 558.31 1309.12 613.544 1306.7 642.763C1304.78 665.995 1313 717.049 1317.91 739.994H1306.7C1306.49 740.281 1304.4 729.841 1297.73 685.785C1289.41 630.716 1301.58 573.065 1306.06 522.298C1310.55 471.531 1299.66 446.578 1294.21 406.997C1288.76 367.416 1294.21 313.207 1301.58 248.673C1308.94 184.138 1300.66 175.861 1296.5 126.815Z" fill="#E68236"/>
<path d="M1330.5 126.815C1327.17 87.5776 1331.73 26.1006 1335.58 0H1349.67L1348.07 8.60458C1348.28 7.17049 1347.94 9.12086 1344.87 28.3951C1341.02 52.488 1338.84 88.9907 1346.47 136.813C1355.12 191.022 1351.91 215.975 1346.47 269.323C1341.02 322.672 1337.5 383.764 1346.47 426.787C1355.44 469.81 1352.88 511.973 1351.91 536.066C1351.03 558.31 1343.12 613.544 1340.7 642.763C1338.78 665.995 1347 717.049 1351.91 739.994H1340.7C1340.49 740.281 1338.4 729.841 1331.73 685.785C1323.41 630.716 1335.58 573.065 1340.06 522.298C1344.55 471.531 1333.66 446.578 1328.21 406.997C1322.76 367.416 1328.21 313.207 1335.58 248.673C1342.94 184.138 1334.66 175.861 1330.5 126.815Z" fill="#E68236"/>
<path d="M1364.5 126.815C1361.17 87.5776 1365.73 26.1006 1369.58 0H1383.67L1382.07 8.60458C1382.28 7.17049 1381.94 9.12086 1378.87 28.3951C1375.02 52.488 1372.84 88.9907 1380.47 136.813C1389.12 191.022 1385.91 215.975 1380.47 269.323C1375.02 322.672 1371.5 383.764 1380.47 426.787C1389.44 469.81 1386.88 511.973 1385.91 536.066C1385.03 558.31 1377.12 613.544 1374.7 642.763C1372.78 665.995 1381 717.049 1385.91 739.994H1374.7C1374.49 740.281 1372.4 729.841 1365.73 685.785C1357.41 630.716 1369.58 573.065 1374.06 522.298C1378.55 471.531 1367.66 446.578 1362.21 406.997C1356.76 367.416 1362.21 313.207 1369.58 248.673C1376.94 184.138 1368.66 175.861 1364.5 126.815Z" fill="#E68236"/>
<path d="M1398.5 126.815C1395.17 87.5776 1399.73 26.1006 1403.58 0H1417.67L1416.07 8.60458C1416.28 7.17049 1415.94 9.12086 1412.87 28.3951C1409.02 52.488 1406.84 88.9907 1414.47 136.813C1423.12 191.022 1419.91 215.975 1414.47 269.323C1409.02 322.672 1405.5 383.764 1414.47 426.787C1423.44 469.81 1420.88 511.973 1419.91 536.066C1419.03 558.31 1411.12 613.544 1408.7 642.763C1406.78 665.995 1415 717.049 1419.91 739.994H1408.7C1408.49 740.281 1406.4 729.841 1399.73 685.785C1391.41 630.716 1403.58 573.065 1408.06 522.298C1412.55 471.531 1401.66 446.578 1396.21 406.997C1390.76 367.416 1396.21 313.207 1403.58 248.673C1410.94 184.138 1402.66 175.861 1398.5 126.815Z" fill="#E68236"/>
<path d="M1432.5 126.815C1429.17 87.5776 1433.73 26.1006 1437.58 0H1451.67L1450.07 8.60458C1450.28 7.17049 1449.94 9.12086 1446.87 28.3951C1443.02 52.488 1440.84 88.9907 1448.47 136.813C1457.12 191.022 1453.91 215.975 1448.47 269.323C1443.02 322.672 1439.5 383.764 1448.47 426.787C1457.44 469.81 1454.88 511.973 1453.91 536.066C1453.03 558.31 1445.12 613.544 1442.7 642.763C1440.78 665.995 1449 717.049 1453.91 739.994H1442.7C1442.49 740.281 1440.4 729.841 1433.73 685.785C1425.41 630.716 1437.58 573.065 1442.06 522.298C1446.55 471.531 1435.66 446.578 1430.21 406.997C1424.76 367.416 1430.21 313.207 1437.58 248.673C1444.94 184.138 1436.66 175.861 1432.5 126.815Z" fill="#E68236"/>
<path d="M1466.5 126.815C1463.17 87.5776 1467.73 26.1006 1471.58 0H1485.67L1484.07 8.60458C1484.28 7.17049 1483.94 9.12086 1480.87 28.3951C1477.02 52.488 1474.84 88.9907 1482.47 136.813C1491.12 191.022 1487.91 215.975 1482.47 269.323C1477.02 322.672 1473.5 383.764 1482.47 426.787C1491.44 469.81 1488.88 511.973 1487.91 536.066C1487.03 558.31 1479.12 613.544 1476.7 642.763C1474.78 665.995 1483 717.049 1487.91 739.994H1476.7C1476.49 740.281 1474.4 729.841 1467.73 685.785C1459.41 630.716 1471.58 573.065 1476.06 522.298C1480.55 471.531 1469.66 446.578 1464.21 406.997C1458.76 367.416 1464.21 313.207 1471.58 248.673C1478.94 184.138 1470.66 175.861 1466.5 126.815Z" fill="#E68236"/>
<path d="M1500.5 126.815C1497.17 87.5776 1501.73 26.1006 1505.58 0H1519.67L1518.07 8.60458C1518.28 7.17049 1517.94 9.12086 1514.87 28.3951C1511.02 52.488 1508.84 88.9907 1516.47 136.813C1525.12 191.022 1521.91 215.975 1516.47 269.323C1511.02 322.672 1507.5 383.764 1516.47 426.787C1525.44 469.81 1522.88 511.973 1521.91 536.066C1521.03 558.31 1513.12 613.544 1510.7 642.763C1508.78 665.995 1517 717.049 1521.91 739.994H1510.7C1510.49 740.281 1508.4 729.841 1501.73 685.785C1493.41 630.716 1505.58 573.065 1510.06 522.298C1514.55 471.531 1503.66 446.578 1498.21 406.997C1492.76 367.416 1498.21 313.207 1505.58 248.673C1512.94 184.138 1504.66 175.861 1500.5 126.815Z" fill="#E68236"/>
<path d="M1534.5 126.815C1531.17 87.5776 1535.73 26.1006 1539.58 0H1553.67L1552.07 8.60458C1552.28 7.17049 1551.94 9.12086 1548.87 28.3951C1545.02 52.488 1542.84 88.9907 1550.47 136.813C1559.12 191.022 1555.91 215.975 1550.47 269.323C1545.02 322.672 1541.5 383.764 1550.47 426.787C1559.44 469.81 1556.88 511.973 1555.91 536.066C1555.03 558.31 1547.12 613.544 1544.7 642.763C1542.78 665.995 1551 717.049 1555.91 739.994H1544.7C1544.49 740.281 1542.4 729.841 1535.73 685.785C1527.41 630.716 1539.58 573.065 1544.06 522.298C1548.55 471.531 1537.66 446.578 1532.21 406.997C1526.76 367.416 1532.21 313.207 1539.58 248.673C1546.94 184.138 1538.66 175.861 1534.5 126.815Z" fill="#E68236"/>
<path d="M1568.5 126.815C1565.17 87.5776 1569.73 26.1006 1573.58 0H1587.67L1586.07 8.60458C1586.28 7.17049 1585.94 9.12086 1582.87 28.3951C1579.02 52.488 1576.84 88.9907 1584.47 136.813C1593.12 191.022 1589.91 215.975 1584.47 269.323C1579.02 322.672 1575.5 383.764 1584.47 426.787C1593.44 469.81 1590.88 511.973 1589.91 536.066C1589.03 558.31 1581.12 613.544 1578.7 642.763C1576.78 665.995 1585 717.049 1589.91 739.994H1578.7C1578.49 740.281 1576.4 729.841 1569.73 685.785C1561.41 630.716 1573.58 573.065 1578.06 522.298C1582.55 471.531 1571.66 446.578 1566.21 406.997C1560.76 367.416 1566.21 313.207 1573.58 248.673C1580.94 184.138 1572.66 175.861 1568.5 126.815Z" fill="#E68236"/>
<path d="M1602.5 126.815C1599.17 87.5776 1603.73 26.1006 1607.58 0H1621.67L1620.07 8.60458C1620.28 7.17049 1619.94 9.12086 1616.87 28.3951C1613.02 52.488 1610.84 88.9907 1618.47 136.813C1627.12 191.022 1623.91 215.975 1618.47 269.323C1613.02 322.672 1609.5 383.764 1618.47 426.787C1627.44 469.81 1624.88 511.973 1623.91 536.066C1623.03 558.31 1615.12 613.544 1612.7 642.763C1610.78 665.995 1619 717.049 1623.91 739.994H1612.7C1612.49 740.281 1610.4 729.841 1603.73 685.785C1595.41 630.716 1607.58 573.065 1612.06 522.298C1616.55 471.531 1605.66 446.578 1600.21 406.997C1594.76 367.416 1600.21 313.207 1607.58 248.673C1614.94 184.138 1606.66 175.861 1602.5 126.815Z" fill="#E68236"/>
<path d="M1636.5 126.815C1633.17 87.5776 1637.73 26.1006 1641.58 0H1655.67L1654.07 8.60458C1654.28 7.17049 1653.94 9.12086 1650.87 28.3951C1647.02 52.488 1644.84 88.9907 1652.47 136.813C1661.12 191.022 1657.91 215.975 1652.47 269.323C1647.02 322.672 1643.5 383.764 1652.47 426.787C1661.44 469.81 1658.88 511.973 1657.91 536.066C1657.03 558.31 1649.12 613.544 1646.7 642.763C1644.78 665.995 1653 717.049 1657.91 739.994H1646.7C1646.49 740.281 1644.4 729.841 1637.73 685.785C1629.41 630.716 1641.58 573.065 1646.06 522.298C1650.55 471.531 1639.66 446.578 1634.21 406.997C1628.76 367.416 1634.21 313.207 1641.58 248.673C1648.94 184.138 1640.66 175.861 1636.5 126.815Z" fill="#E68236"/>
<path d="M1670.5 126.815C1667.17 87.5776 1671.73 26.1006 1675.58 0H1689.67L1688.07 8.60458C1688.28 7.17049 1687.94 9.12086 1684.87 28.3951C1681.02 52.488 1678.84 88.9907 1686.47 136.813C1695.12 191.022 1691.91 215.975 1686.47 269.323C1681.02 322.672 1677.5 383.764 1686.47 426.787C1695.44 469.81 1692.88 511.973 1691.91 536.066C1691.03 558.31 1683.12 613.544 1680.7 642.763C1678.78 665.995 1687 717.049 1691.91 739.994H1680.7C1680.49 740.281 1678.4 729.841 1671.73 685.785C1663.41 630.716 1675.58 573.065 1680.06 522.298C1684.55 471.531 1673.66 446.578 1668.21 406.997C1662.76 367.416 1668.21 313.207 1675.58 248.673C1682.94 184.138 1674.66 175.861 1670.5 126.815Z" fill="#E68236"/>
<path d="M1704.5 126.815C1701.17 87.5776 1705.73 26.1006 1709.58 0H1723.67L1722.07 8.60458C1722.28 7.17049 1721.94 9.12086 1718.87 28.3951C1715.02 52.488 1712.84 88.9907 1720.47 136.813C1729.12 191.022 1725.91 215.975 1720.47 269.323C1715.02 322.672 1711.5 383.764 1720.47 426.787C1729.44 469.81 1726.88 511.973 1725.91 536.066C1725.03 558.31 1717.12 613.544 1714.7 642.763C1712.78 665.995 1721 717.049 1725.91 739.994H1714.7C1714.49 740.281 1712.4 729.841 1705.73 685.785C1697.41 630.716 1709.58 573.065 1714.06 522.298C1718.55 471.531 1707.66 446.578 1702.21 406.997C1696.76 367.416 1702.21 313.207 1709.58 248.673C1716.94 184.138 1708.66 175.861 1704.5 126.815Z" fill="#E68236"/>
<path d="M8.5 866.815C5.16868 827.578 9.73349 766.101 13.5773 740H27.6724L26.0708 748.605C26.2843 747.17 25.9426 749.121 22.8676 768.395C19.0237 792.488 16.8395 828.991 24.4692 876.813C33.1178 931.022 29.9146 955.975 24.4692 1009.32C19.0237 1062.67 15.5002 1123.76 24.4692 1166.79C33.4381 1209.81 30.8756 1251.97 29.9146 1276.07C29.0274 1298.31 21.1205 1353.54 18.7034 1382.76C16.7815 1405.99 25.003 1457.05 29.9146 1479.99H18.7034C18.4899 1480.28 16.3971 1469.84 9.73447 1425.79C1.40616 1370.72 13.5773 1313.07 18.0628 1262.3C22.5482 1211.53 11.6559 1186.58 6.20997 1147C0.764004 1107.42 6.20997 1053.21 13.5773 988.673C20.9447 924.138 12.6642 915.861 8.5 866.815Z" fill="#E68236"/>
<path d="M42.5 866.815C39.1687 827.578 43.7335 766.101 47.5773 740H61.6724L60.0708 748.605C60.2843 747.17 59.9426 749.121 56.8676 768.395C53.0237 792.488 50.8395 828.991 58.4692 876.813C67.1178 931.022 63.9146 955.975 58.4692 1009.32C53.0237 1062.67 49.5002 1123.76 58.4692 1166.79C67.4381 1209.81 64.8756 1251.97 63.9146 1276.07C63.0274 1298.31 55.1205 1353.54 52.7034 1382.76C50.7815 1405.99 59.003 1457.05 63.9146 1479.99H52.7034C52.4899 1480.28 50.3971 1469.84 43.7345 1425.79C35.4062 1370.72 47.5773 1313.07 52.0628 1262.3C56.5482 1211.53 45.6559 1186.58 40.21 1147C34.764 1107.42 40.21 1053.21 47.5773 988.673C54.9447 924.138 46.6642 915.861 42.5 866.815Z" fill="#E68236"/>
<path d="M76.5 866.815C73.1687 827.578 77.7335 766.101 81.5773 740H95.6724L94.0708 748.605C94.2843 747.17 93.9426 749.121 90.8676 768.395C87.0237 792.488 84.8395 828.991 92.4692 876.813C101.118 931.022 97.9146 955.975 92.4692 1009.32C87.0237 1062.67 83.5002 1123.76 92.4692 1166.79C101.438 1209.81 98.8756 1251.97 97.9146 1276.07C97.0274 1298.31 89.1205 1353.54 86.7034 1382.76C84.7815 1405.99 93.003 1457.05 97.9146 1479.99H86.7034C86.4899 1480.28 84.3971 1469.84 77.7345 1425.79C69.4062 1370.72 81.5773 1313.07 86.0628 1262.3C90.5482 1211.53 79.6559 1186.58 74.21 1147C68.764 1107.42 74.21 1053.21 81.5773 988.673C88.9447 924.138 80.6642 915.861 76.5 866.815Z" fill="#E68236"/>
<path d="M110.5 866.815C107.169 827.578 111.733 766.101 115.577 740H129.672L128.071 748.605C128.284 747.17 127.943 749.121 124.868 768.395C121.024 792.488 118.839 828.991 126.469 876.813C135.118 931.022 131.915 955.975 126.469 1009.32C121.024 1062.67 117.5 1123.76 126.469 1166.79C135.438 1209.81 132.876 1251.97 131.915 1276.07C131.027 1298.31 123.121 1353.54 120.703 1382.76C118.782 1405.99 127.003 1457.05 131.915 1479.99H120.703C120.49 1480.28 118.397 1469.84 111.734 1425.79C103.406 1370.72 115.577 1313.07 120.063 1262.3C124.548 1211.53 113.656 1186.58 108.21 1147C102.764 1107.42 108.21 1053.21 115.577 988.673C122.945 924.138 114.664 915.861 110.5 866.815Z" fill="#E68236"/>
<path d="M144.5 866.815C141.169 827.578 145.733 766.101 149.577 740H163.672L162.071 748.605C162.284 747.17 161.943 749.121 158.868 768.395C155.024 792.488 152.839 828.991 160.469 876.813C169.118 931.022 165.915 955.975 160.469 1009.32C155.024 1062.67 151.5 1123.76 160.469 1166.79C169.438 1209.81 166.876 1251.97 165.915 1276.07C165.027 1298.31 157.121 1353.54 154.703 1382.76C152.782 1405.99 161.003 1457.05 165.915 1479.99H154.703C154.49 1480.28 152.397 1469.84 145.734 1425.79C137.406 1370.72 149.577 1313.07 154.063 1262.3C158.548 1211.53 147.656 1186.58 142.21 1147C136.764 1107.42 142.21 1053.21 149.577 988.673C156.945 924.138 148.664 915.861 144.5 866.815Z" fill="#E68236"/>
<path d="M178.5 866.815C175.169 827.578 179.733 766.101 183.577 740H197.672L196.071 748.605C196.284 747.17 195.943 749.121 192.868 768.395C189.024 792.488 186.839 828.991 194.469 876.813C203.118 931.022 199.915 955.975 194.469 1009.32C189.024 1062.67 185.5 1123.76 194.469 1166.79C203.438 1209.81 200.876 1251.97 199.915 1276.07C199.027 1298.31 191.121 1353.54 188.703 1382.76C186.782 1405.99 195.003 1457.05 199.915 1479.99H188.703C188.49 1480.28 186.397 1469.84 179.734 1425.79C171.406 1370.72 183.577 1313.07 188.063 1262.3C192.548 1211.53 181.656 1186.58 176.21 1147C170.764 1107.42 176.21 1053.21 183.577 988.673C190.945 924.138 182.664 915.861 178.5 866.815Z" fill="#E68236"/>
<path d="M212.5 866.815C209.169 827.578 213.733 766.101 217.577 740H231.672L230.071 748.605C230.284 747.17 229.943 749.121 226.868 768.395C223.024 792.488 220.839 828.991 228.469 876.813C237.118 931.022 233.915 955.975 228.469 1009.32C223.024 1062.67 219.5 1123.76 228.469 1166.79C237.438 1209.81 234.876 1251.97 233.915 1276.07C233.027 1298.31 225.121 1353.54 222.703 1382.76C220.782 1405.99 229.003 1457.05 233.915 1479.99H222.703C222.49 1480.28 220.397 1469.84 213.734 1425.79C205.406 1370.72 217.577 1313.07 222.063 1262.3C226.548 1211.53 215.656 1186.58 210.21 1147C204.764 1107.42 210.21 1053.21 217.577 988.673C224.945 924.138 216.664 915.861 212.5 866.815Z" fill="#E68236"/>
<path d="M246.5 866.815C243.169 827.578 247.733 766.101 251.577 740H265.672L264.071 748.605C264.284 747.17 263.943 749.121 260.868 768.395C257.024 792.488 254.839 828.991 262.469 876.813C271.118 931.022 267.915 955.975 262.469 1009.32C257.024 1062.67 253.5 1123.76 262.469 1166.79C271.438 1209.81 268.876 1251.97 267.915 1276.07C267.027 1298.31 259.121 1353.54 256.703 1382.76C254.782 1405.99 263.003 1457.05 267.915 1479.99H256.703C256.49 1480.28 254.397 1469.84 247.734 1425.79C239.406 1370.72 251.577 1313.07 256.063 1262.3C260.548 1211.53 249.656 1186.58 244.21 1147C238.764 1107.42 244.21 1053.21 251.577 988.673C258.945 924.138 250.664 915.861 246.5 866.815Z" fill="#E68236"/>
<path d="M280.5 866.815C277.169 827.578 281.733 766.101 285.577 740H299.672L298.071 748.605C298.284 747.17 297.943 749.121 294.868 768.395C291.024 792.488 288.839 828.991 296.469 876.813C305.118 931.022 301.915 955.975 296.469 1009.32C291.024 1062.67 287.5 1123.76 296.469 1166.79C305.438 1209.81 302.876 1251.97 301.915 1276.07C301.027 1298.31 293.121 1353.54 290.703 1382.76C288.782 1405.99 297.003 1457.05 301.915 1479.99H290.703C290.49 1480.28 288.397 1469.84 281.734 1425.79C273.406 1370.72 285.577 1313.07 290.063 1262.3C294.548 1211.53 283.656 1186.58 278.21 1147C272.764 1107.42 278.21 1053.21 285.577 988.673C292.945 924.138 284.664 915.861 280.5 866.815Z" fill="#E68236"/>
<path d="M314.5 866.815C311.169 827.578 315.733 766.101 319.577 740H333.672L332.071 748.605C332.284 747.17 331.943 749.121 328.868 768.395C325.024 792.488 322.839 828.991 330.469 876.813C339.118 931.022 335.915 955.975 330.469 1009.32C325.024 1062.67 321.5 1123.76 330.469 1166.79C339.438 1209.81 336.876 1251.97 335.915 1276.07C335.027 1298.31 327.121 1353.54 324.703 1382.76C322.782 1405.99 331.003 1457.05 335.915 1479.99H324.703C324.49 1480.28 322.397 1469.84 315.734 1425.79C307.406 1370.72 319.577 1313.07 324.063 1262.3C328.548 1211.53 317.656 1186.58 312.21 1147C306.764 1107.42 312.21 1053.21 319.577 988.673C326.945 924.138 318.664 915.861 314.5 866.815Z" fill="#E68236"/>
<path d="M348.5 866.815C345.169 827.578 349.733 766.101 353.577 740H367.672L366.071 748.605C366.284 747.17 365.943 749.121 362.868 768.395C359.024 792.488 356.839 828.991 364.469 876.813C373.118 931.022 369.915 955.975 364.469 1009.32C359.024 1062.67 355.5 1123.76 364.469 1166.79C373.438 1209.81 370.876 1251.97 369.915 1276.07C369.027 1298.31 361.121 1353.54 358.703 1382.76C356.782 1405.99 365.003 1457.05 369.915 1479.99H358.703C358.49 1480.28 356.397 1469.84 349.734 1425.79C341.406 1370.72 353.577 1313.07 358.063 1262.3C362.548 1211.53 351.656 1186.58 346.21 1147C340.764 1107.42 346.21 1053.21 353.577 988.673C360.945 924.138 352.664 915.861 348.5 866.815Z" fill="#E68236"/>
<path d="M382.5 866.815C379.169 827.578 383.733 766.101 387.577 740H401.672L400.071 748.605C400.284 747.17 399.943 749.121 396.868 768.395C393.024 792.488 390.839 828.991 398.469 876.813C407.118 931.022 403.915 955.975 398.469 1009.32C393.024 1062.67 389.5 1123.76 398.469 1166.79C407.438 1209.81 404.876 1251.97 403.915 1276.07C403.027 1298.31 395.121 1353.54 392.703 1382.76C390.782 1405.99 399.003 1457.05 403.915 1479.99H392.703C392.49 1480.28 390.397 1469.84 383.734 1425.79C375.406 1370.72 387.577 1313.07 392.063 1262.3C396.548 1211.53 385.656 1186.58 380.21 1147C374.764 1107.42 380.21 1053.21 387.577 988.673C394.945 924.138 386.664 915.861 382.5 866.815Z" fill="#E68236"/>
<path d="M416.5 866.815C413.169 827.578 417.733 766.101 421.577 740H435.672L434.071 748.605C434.284 747.17 433.943 749.121 430.868 768.395C427.024 792.488 424.839 828.991 432.469 876.813C441.118 931.022 437.915 955.975 432.469 1009.32C427.024 1062.67 423.5 1123.76 432.469 1166.79C441.438 1209.81 438.876 1251.97 437.915 1276.07C437.027 1298.31 429.121 1353.54 426.703 1382.76C424.782 1405.99 433.003 1457.05 437.915 1479.99H426.703C426.49 1480.28 424.397 1469.84 417.734 1425.79C409.406 1370.72 421.577 1313.07 426.063 1262.3C430.548 1211.53 419.656 1186.58 414.21 1147C408.764 1107.42 414.21 1053.21 421.577 988.673C428.945 924.138 420.664 915.861 416.5 866.815Z" fill="#E68236"/>
<path d="M450.5 866.815C447.169 827.578 451.733 766.101 455.577 740H469.672L468.071 748.605C468.284 747.17 467.943 749.121 464.868 768.395C461.024 792.488 458.839 828.991 466.469 876.813C475.118 931.022 471.915 955.975 466.469 1009.32C461.024 1062.67 457.5 1123.76 466.469 1166.79C475.438 1209.81 472.876 1251.97 471.915 1276.07C471.027 1298.31 463.121 1353.54 460.703 1382.76C458.782 1405.99 467.003 1457.05 471.915 1479.99H460.703C460.49 1480.28 458.397 1469.84 451.734 1425.79C443.406 1370.72 455.577 1313.07 460.063 1262.3C464.548 1211.53 453.656 1186.58 448.21 1147C442.764 1107.42 448.21 1053.21 455.577 988.673C462.945 924.138 454.664 915.861 450.5 866.815Z" fill="#E68236"/>
<path d="M484.5 866.815C481.169 827.578 485.733 766.101 489.577 740H503.672L502.071 748.605C502.284 747.17 501.943 749.121 498.868 768.395C495.024 792.488 492.839 828.991 500.469 876.813C509.118 931.022 505.915 955.975 500.469 1009.32C495.024 1062.67 491.5 1123.76 500.469 1166.79C509.438 1209.81 506.876 1251.97 505.915 1276.07C505.027 1298.31 497.121 1353.54 494.703 1382.76C492.782 1405.99 501.003 1457.05 505.915 1479.99H494.703C494.49 1480.28 492.397 1469.84 485.734 1425.79C477.406 1370.72 489.577 1313.07 494.063 1262.3C498.548 1211.53 487.656 1186.58 482.21 1147C476.764 1107.42 482.21 1053.21 489.577 988.673C496.945 924.138 488.664 915.861 484.5 866.815Z" fill="#E68236"/>
<path d="M518.5 866.815C515.169 827.578 519.733 766.101 523.577 740H537.672L536.071 748.605C536.284 747.17 535.943 749.121 532.868 768.395C529.024 792.488 526.839 828.991 534.469 876.813C543.118 931.022 539.915 955.975 534.469 1009.32C529.024 1062.67 525.5 1123.76 534.469 1166.79C543.438 1209.81 540.876 1251.97 539.915 1276.07C539.027 1298.31 531.121 1353.54 528.703 1382.76C526.782 1405.99 535.003 1457.05 539.915 1479.99H528.703C528.49 1480.28 526.397 1469.84 519.734 1425.79C511.406 1370.72 523.577 1313.07 528.063 1262.3C532.548 1211.53 521.656 1186.58 516.21 1147C510.764 1107.42 516.21 1053.21 523.577 988.673C530.945 924.138 522.664 915.861 518.5 866.815Z" fill="#E68236"/>
<path d="M552.5 866.815C549.169 827.578 553.733 766.101 557.577 740H571.672L570.071 748.605C570.284 747.17 569.943 749.121 566.868 768.395C563.024 792.488 560.839 828.991 568.469 876.813C577.118 931.022 573.915 955.975 568.469 1009.32C563.024 1062.67 559.5 1123.76 568.469 1166.79C577.438 1209.81 574.876 1251.97 573.915 1276.07C573.027 1298.31 565.121 1353.54 562.703 1382.76C560.782 1405.99 569.003 1457.05 573.915 1479.99H562.703C562.49 1480.28 560.397 1469.84 553.734 1425.79C545.406 1370.72 557.577 1313.07 562.063 1262.3C566.548 1211.53 555.656 1186.58 550.21 1147C544.764 1107.42 550.21 1053.21 557.577 988.673C564.945 924.138 556.664 915.861 552.5 866.815Z" fill="#E68236"/>
<path d="M586.5 866.815C583.169 827.578 587.733 766.101 591.577 740H605.672L604.071 748.605C604.284 747.17 603.943 749.121 600.868 768.395C597.024 792.488 594.839 828.991 602.469 876.813C611.118 931.022 607.915 955.975 602.469 1009.32C597.024 1062.67 593.5 1123.76 602.469 1166.79C611.438 1209.81 608.876 1251.97 607.915 1276.07C607.027 1298.31 599.121 1353.54 596.703 1382.76C594.782 1405.99 603.003 1457.05 607.915 1479.99H596.703C596.49 1480.28 594.397 1469.84 587.734 1425.79C579.406 1370.72 591.577 1313.07 596.063 1262.3C600.548 1211.53 589.656 1186.58 584.21 1147C578.764 1107.42 584.21 1053.21 591.577 988.673C598.945 924.138 590.664 915.861 586.5 866.815Z" fill="#E68236"/>
<path d="M620.5 866.815C617.169 827.578 621.733 766.101 625.577 740H639.672L638.071 748.605C638.284 747.17 637.943 749.121 634.868 768.395C631.024 792.488 628.839 828.991 636.469 876.813C645.118 931.022 641.915 955.975 636.469 1009.32C631.024 1062.67 627.5 1123.76 636.469 1166.79C645.438 1209.81 642.876 1251.97 641.915 1276.07C641.027 1298.31 633.121 1353.54 630.703 1382.76C628.782 1405.99 637.003 1457.05 641.915 1479.99H630.703C630.49 1480.28 628.397 1469.84 621.734 1425.79C613.406 1370.72 625.577 1313.07 630.063 1262.3C634.548 1211.53 623.656 1186.58 618.21 1147C612.764 1107.42 618.21 1053.21 625.577 988.673C632.945 924.138 624.664 915.861 620.5 866.815Z" fill="#E68236"/>
<path d="M654.5 866.815C651.169 827.578 655.733 766.101 659.577 740H673.672L672.071 748.605C672.284 747.17 671.943 749.121 668.868 768.395C665.024 792.488 662.839 828.991 670.469 876.813C679.118 931.022 675.915 955.975 670.469 1009.32C665.024 1062.67 661.5 1123.76 670.469 1166.79C679.438 1209.81 676.876 1251.97 675.915 1276.07C675.027 1298.31 667.121 1353.54 664.703 1382.76C662.782 1405.99 671.003 1457.05 675.915 1479.99H664.703C664.49 1480.28 662.397 1469.84 655.734 1425.79C647.406 1370.72 659.577 1313.07 664.063 1262.3C668.548 1211.53 657.656 1186.58 652.21 1147C646.764 1107.42 652.21 1053.21 659.577 988.673C666.945 924.138 658.664 915.861 654.5 866.815Z" fill="#E68236"/>
<path d="M688.5 866.815C685.169 827.578 689.733 766.101 693.577 740H707.672L706.071 748.605C706.284 747.17 705.943 749.121 702.868 768.395C699.024 792.488 696.839 828.991 704.469 876.813C713.118 931.022 709.915 955.975 704.469 1009.32C699.024 1062.67 695.5 1123.76 704.469 1166.79C713.438 1209.81 710.876 1251.97 709.915 1276.07C709.027 1298.31 701.121 1353.54 698.703 1382.76C696.782 1405.99 705.003 1457.05 709.915 1479.99H698.703C698.49 1480.28 696.397 1469.84 689.734 1425.79C681.406 1370.72 693.577 1313.07 698.063 1262.3C702.548 1211.53 691.656 1186.58 686.21 1147C680.764 1107.42 686.21 1053.21 693.577 988.673C700.945 924.138 692.664 915.861 688.5 866.815Z" fill="#E68236"/>
<path d="M722.5 866.815C719.169 827.578 723.733 766.101 727.577 740H741.672L740.071 748.605C740.284 747.17 739.943 749.121 736.868 768.395C733.024 792.488 730.839 828.991 738.469 876.813C747.118 931.022 743.915 955.975 738.469 1009.32C733.024 1062.67 729.5 1123.76 738.469 1166.79C747.438 1209.81 744.876 1251.97 743.915 1276.07C743.027 1298.31 735.121 1353.54 732.703 1382.76C730.782 1405.99 739.003 1457.05 743.915 1479.99H732.703C732.49 1480.28 730.397 1469.84 723.734 1425.79C715.406 1370.72 727.577 1313.07 732.063 1262.3C736.548 1211.53 725.656 1186.58 720.21 1147C714.764 1107.42 720.21 1053.21 727.577 988.673C734.945 924.138 726.664 915.861 722.5 866.815Z" fill="#E68236"/>
<path d="M756.5 866.815C753.169 827.578 757.733 766.101 761.577 740H775.672L774.071 748.605C774.284 747.17 773.943 749.121 770.868 768.395C767.024 792.488 764.839 828.991 772.469 876.813C781.118 931.022 777.915 955.975 772.469 1009.32C767.024 1062.67 763.5 1123.76 772.469 1166.79C781.438 1209.81 778.876 1251.97 777.915 1276.07C777.027 1298.31 769.121 1353.54 766.703 1382.76C764.782 1405.99 773.003 1457.05 777.915 1479.99H766.703C766.49 1480.28 764.397 1469.84 757.734 1425.79C749.406 1370.72 761.577 1313.07 766.063 1262.3C770.548 1211.53 759.656 1186.58 754.21 1147C748.764 1107.42 754.21 1053.21 761.577 988.673C768.945 924.138 760.664 915.861 756.5 866.815Z" fill="#E68236"/>
<path d="M790.5 866.815C787.169 827.578 791.733 766.101 795.577 740H809.672L808.071 748.605C808.284 747.17 807.943 749.121 804.868 768.395C801.024 792.488 798.839 828.991 806.469 876.813C815.118 931.022 811.915 955.975 806.469 1009.32C801.024 1062.67 797.5 1123.76 806.469 1166.79C815.438 1209.81 812.876 1251.97 811.915 1276.07C811.027 1298.31 803.121 1353.54 800.703 1382.76C798.782 1405.99 807.003 1457.05 811.915 1479.99H800.703C800.49 1480.28 798.397 1469.84 791.734 1425.79C783.406 1370.72 795.577 1313.07 800.063 1262.3C804.548 1211.53 793.656 1186.58 788.21 1147C782.764 1107.42 788.21 1053.21 795.577 988.673C802.945 924.138 794.664 915.861 790.5 866.815Z" fill="#E68236"/>
<path d="M824.5 866.815C821.169 827.578 825.733 766.101 829.577 740H843.672L842.071 748.605C842.284 747.17 841.943 749.121 838.868 768.395C835.024 792.488 832.839 828.991 840.469 876.813C849.118 931.022 845.915 955.975 840.469 1009.32C835.024 1062.67 831.5 1123.76 840.469 1166.79C849.438 1209.81 846.876 1251.97 845.915 1276.07C845.027 1298.31 837.121 1353.54 834.703 1382.76C832.782 1405.99 841.003 1457.05 845.915 1479.99H834.703C834.49 1480.28 832.397 1469.84 825.734 1425.79C817.406 1370.72 829.577 1313.07 834.063 1262.3C838.548 1211.53 827.656 1186.58 822.21 1147C816.764 1107.42 822.21 1053.21 829.577 988.673C836.945 924.138 828.664 915.861 824.5 866.815Z" fill="#E68236"/>
<path d="M858.5 866.815C855.169 827.578 859.733 766.101 863.577 740H877.672L876.071 748.605C876.284 747.17 875.943 749.121 872.868 768.395C869.024 792.488 866.839 828.991 874.469 876.813C883.118 931.022 879.915 955.975 874.469 1009.32C869.024 1062.67 865.5 1123.76 874.469 1166.79C883.438 1209.81 880.876 1251.97 879.915 1276.07C879.027 1298.31 871.121 1353.54 868.703 1382.76C866.782 1405.99 875.003 1457.05 879.915 1479.99H868.703C868.49 1480.28 866.397 1469.84 859.734 1425.79C851.406 1370.72 863.577 1313.07 868.063 1262.3C872.548 1211.53 861.656 1186.58 856.21 1147C850.764 1107.42 856.21 1053.21 863.577 988.673C870.945 924.138 862.664 915.861 858.5 866.815Z" fill="#E68236"/>
<path d="M892.5 866.815C889.169 827.578 893.733 766.101 897.577 740H911.672L910.071 748.605C910.284 747.17 909.943 749.121 906.868 768.395C903.024 792.488 900.839 828.991 908.469 876.813C917.118 931.022 913.915 955.975 908.469 1009.32C903.024 1062.67 899.5 1123.76 908.469 1166.79C917.438 1209.81 914.876 1251.97 913.915 1276.07C913.027 1298.31 905.121 1353.54 902.703 1382.76C900.782 1405.99 909.003 1457.05 913.915 1479.99H902.703C902.49 1480.28 900.397 1469.84 893.734 1425.79C885.406 1370.72 897.577 1313.07 902.063 1262.3C906.548 1211.53 895.656 1186.58 890.21 1147C884.764 1107.42 890.21 1053.21 897.577 988.673C904.945 924.138 896.664 915.861 892.5 866.815Z" fill="#E68236"/>
<path d="M926.5 866.815C923.169 827.578 927.733 766.101 931.577 740H945.672L944.071 748.605C944.284 747.17 943.943 749.121 940.868 768.395C937.024 792.488 934.839 828.991 942.469 876.813C951.118 931.022 947.915 955.975 942.469 1009.32C937.024 1062.67 933.5 1123.76 942.469 1166.79C951.438 1209.81 948.876 1251.97 947.915 1276.07C947.027 1298.31 939.121 1353.54 936.703 1382.76C934.782 1405.99 943.003 1457.05 947.915 1479.99H936.703C936.49 1480.28 934.397 1469.84 927.734 1425.79C919.406 1370.72 931.577 1313.07 936.063 1262.3C940.548 1211.53 929.656 1186.58 924.21 1147C918.764 1107.42 924.21 1053.21 931.577 988.673C938.945 924.138 930.664 915.861 926.5 866.815Z" fill="#E68236"/>
<path d="M960.5 866.815C957.169 827.578 961.733 766.101 965.577 740H979.672L978.071 748.605C978.284 747.17 977.943 749.121 974.868 768.395C971.024 792.488 968.839 828.991 976.469 876.813C985.118 931.022 981.915 955.975 976.469 1009.32C971.024 1062.67 967.5 1123.76 976.469 1166.79C985.438 1209.81 982.876 1251.97 981.915 1276.07C981.027 1298.31 973.121 1353.54 970.703 1382.76C968.782 1405.99 977.003 1457.05 981.915 1479.99H970.703C970.49 1480.28 968.397 1469.84 961.734 1425.79C953.406 1370.72 965.577 1313.07 970.063 1262.3C974.548 1211.53 963.656 1186.58 958.21 1147C952.764 1107.42 958.21 1053.21 965.577 988.673C972.945 924.138 964.664 915.861 960.5 866.815Z" fill="#E68236"/>
<path d="M994.5 866.815C991.169 827.578 995.733 766.101 999.577 740H1013.67L1012.07 748.605C1012.28 747.17 1011.94 749.121 1008.87 768.395C1005.02 792.488 1002.84 828.991 1010.47 876.813C1019.12 931.022 1015.91 955.975 1010.47 1009.32C1005.02 1062.67 1001.5 1123.76 1010.47 1166.79C1019.44 1209.81 1016.88 1251.97 1015.91 1276.07C1015.03 1298.31 1007.12 1353.54 1004.7 1382.76C1002.78 1405.99 1011 1457.05 1015.91 1479.99H1004.7C1004.49 1480.28 1002.4 1469.84 995.734 1425.79C987.406 1370.72 999.577 1313.07 1004.06 1262.3C1008.55 1211.53 997.656 1186.58 992.21 1147C986.764 1107.42 992.21 1053.21 999.577 988.673C1006.94 924.138 998.664 915.861 994.5 866.815Z" fill="#E68236"/>
<path d="M1028.5 866.815C1025.17 827.578 1029.73 766.101 1033.58 740H1047.67L1046.07 748.605C1046.28 747.17 1045.94 749.121 1042.87 768.395C1039.02 792.488 1036.84 828.991 1044.47 876.813C1053.12 931.022 1049.91 955.975 1044.47 1009.32C1039.02 1062.67 1035.5 1123.76 1044.47 1166.79C1053.44 1209.81 1050.88 1251.97 1049.91 1276.07C1049.03 1298.31 1041.12 1353.54 1038.7 1382.76C1036.78 1405.99 1045 1457.05 1049.91 1479.99H1038.7C1038.49 1480.28 1036.4 1469.84 1029.73 1425.79C1021.41 1370.72 1033.58 1313.07 1038.06 1262.3C1042.55 1211.53 1031.66 1186.58 1026.21 1147C1020.76 1107.42 1026.21 1053.21 1033.58 988.673C1040.94 924.138 1032.66 915.861 1028.5 866.815Z" fill="#E68236"/>
<path d="M1062.5 866.815C1059.17 827.578 1063.73 766.101 1067.58 740H1081.67L1080.07 748.605C1080.28 747.17 1079.94 749.121 1076.87 768.395C1073.02 792.488 1070.84 828.991 1078.47 876.813C1087.12 931.022 1083.91 955.975 1078.47 1009.32C1073.02 1062.67 1069.5 1123.76 1078.47 1166.79C1087.44 1209.81 1084.88 1251.97 1083.91 1276.07C1083.03 1298.31 1075.12 1353.54 1072.7 1382.76C1070.78 1405.99 1079 1457.05 1083.91 1479.99H1072.7C1072.49 1480.28 1070.4 1469.84 1063.73 1425.79C1055.41 1370.72 1067.58 1313.07 1072.06 1262.3C1076.55 1211.53 1065.66 1186.58 1060.21 1147C1054.76 1107.42 1060.21 1053.21 1067.58 988.673C1074.94 924.138 1066.66 915.861 1062.5 866.815Z" fill="#E68236"/>
<path d="M1096.5 866.815C1093.17 827.578 1097.73 766.101 1101.58 740H1115.67L1114.07 748.605C1114.28 747.17 1113.94 749.121 1110.87 768.395C1107.02 792.488 1104.84 828.991 1112.47 876.813C1121.12 931.022 1117.91 955.975 1112.47 1009.32C1107.02 1062.67 1103.5 1123.76 1112.47 1166.79C1121.44 1209.81 1118.88 1251.97 1117.91 1276.07C1117.03 1298.31 1109.12 1353.54 1106.7 1382.76C1104.78 1405.99 1113 1457.05 1117.91 1479.99H1106.7C1106.49 1480.28 1104.4 1469.84 1097.73 1425.79C1089.41 1370.72 1101.58 1313.07 1106.06 1262.3C1110.55 1211.53 1099.66 1186.58 1094.21 1147C1088.76 1107.42 1094.21 1053.21 1101.58 988.673C1108.94 924.138 1100.66 915.861 1096.5 866.815Z" fill="#E68236"/>
<path d="M1130.5 866.815C1127.17 827.578 1131.73 766.101 1135.58 740H1149.67L1148.07 748.605C1148.28 747.17 1147.94 749.121 1144.87 768.395C1141.02 792.488 1138.84 828.991 1146.47 876.813C1155.12 931.022 1151.91 955.975 1146.47 1009.32C1141.02 1062.67 1137.5 1123.76 1146.47 1166.79C1155.44 1209.81 1152.88 1251.97 1151.91 1276.07C1151.03 1298.31 1143.12 1353.54 1140.7 1382.76C1138.78 1405.99 1147 1457.05 1151.91 1479.99H1140.7C1140.49 1480.28 1138.4 1469.84 1131.73 1425.79C1123.41 1370.72 1135.58 1313.07 1140.06 1262.3C1144.55 1211.53 1133.66 1186.58 1128.21 1147C1122.76 1107.42 1128.21 1053.21 1135.58 988.673C1142.94 924.138 1134.66 915.861 1130.5 866.815Z" fill="#E68236"/>
<path d="M1164.5 866.815C1161.17 827.578 1165.73 766.101 1169.58 740H1183.67L1182.07 748.605C1182.28 747.17 1181.94 749.121 1178.87 768.395C1175.02 792.488 1172.84 828.991 1180.47 876.813C1189.12 931.022 1185.91 955.975 1180.47 1009.32C1175.02 1062.67 1171.5 1123.76 1180.47 1166.79C1189.44 1209.81 1186.88 1251.97 1185.91 1276.07C1185.03 1298.31 1177.12 1353.54 1174.7 1382.76C1172.78 1405.99 1181 1457.05 1185.91 1479.99H1174.7C1174.49 1480.28 1172.4 1469.84 1165.73 1425.79C1157.41 1370.72 1169.58 1313.07 1174.06 1262.3C1178.55 1211.53 1167.66 1186.58 1162.21 1147C1156.76 1107.42 1162.21 1053.21 1169.58 988.673C1176.94 924.138 1168.66 915.861 1164.5 866.815Z" fill="#E68236"/>
<path d="M1198.5 866.815C1195.17 827.578 1199.73 766.101 1203.58 740H1217.67L1216.07 748.605C1216.28 747.17 1215.94 749.121 1212.87 768.395C1209.02 792.488 1206.84 828.991 1214.47 876.813C1223.12 931.022 1219.91 955.975 1214.47 1009.32C1209.02 1062.67 1205.5 1123.76 1214.47 1166.79C1223.44 1209.81 1220.88 1251.97 1219.91 1276.07C1219.03 1298.31 1211.12 1353.54 1208.7 1382.76C1206.78 1405.99 1215 1457.05 1219.91 1479.99H1208.7C1208.49 1480.28 1206.4 1469.84 1199.73 1425.79C1191.41 1370.72 1203.58 1313.07 1208.06 1262.3C1212.55 1211.53 1201.66 1186.58 1196.21 1147C1190.76 1107.42 1196.21 1053.21 1203.58 988.673C1210.94 924.138 1202.66 915.861 1198.5 866.815Z" fill="#E68236"/>
<path d="M1232.5 866.815C1229.17 827.578 1233.73 766.101 1237.58 740H1251.67L1250.07 748.605C1250.28 747.17 1249.94 749.121 1246.87 768.395C1243.02 792.488 1240.84 828.991 1248.47 876.813C1257.12 931.022 1253.91 955.975 1248.47 1009.32C1243.02 1062.67 1239.5 1123.76 1248.47 1166.79C1257.44 1209.81 1254.88 1251.97 1253.91 1276.07C1253.03 1298.31 1245.12 1353.54 1242.7 1382.76C1240.78 1405.99 1249 1457.05 1253.91 1479.99H1242.7C1242.49 1480.28 1240.4 1469.84 1233.73 1425.79C1225.41 1370.72 1237.58 1313.07 1242.06 1262.3C1246.55 1211.53 1235.66 1186.58 1230.21 1147C1224.76 1107.42 1230.21 1053.21 1237.58 988.673C1244.94 924.138 1236.66 915.861 1232.5 866.815Z" fill="#E68236"/>
<path d="M1266.5 866.815C1263.17 827.578 1267.73 766.101 1271.58 740H1285.67L1284.07 748.605C1284.28 747.17 1283.94 749.121 1280.87 768.395C1277.02 792.488 1274.84 828.991 1282.47 876.813C1291.12 931.022 1287.91 955.975 1282.47 1009.32C1277.02 1062.67 1273.5 1123.76 1282.47 1166.79C1291.44 1209.81 1288.88 1251.97 1287.91 1276.07C1287.03 1298.31 1279.12 1353.54 1276.7 1382.76C1274.78 1405.99 1283 1457.05 1287.91 1479.99H1276.7C1276.49 1480.28 1274.4 1469.84 1267.73 1425.79C1259.41 1370.72 1271.58 1313.07 1276.06 1262.3C1280.55 1211.53 1269.66 1186.58 1264.21 1147C1258.76 1107.42 1264.21 1053.21 1271.58 988.673C1278.94 924.138 1270.66 915.861 1266.5 866.815Z" fill="#E68236"/>
<path d="M1300.5 866.815C1297.17 827.578 1301.73 766.101 1305.58 740H1319.67L1318.07 748.605C1318.28 747.17 1317.94 749.121 1314.87 768.395C1311.02 792.488 1308.84 828.991 1316.47 876.813C1325.12 931.022 1321.91 955.975 1316.47 1009.32C1311.02 1062.67 1307.5 1123.76 1316.47 1166.79C1325.44 1209.81 1322.88 1251.97 1321.91 1276.07C1321.03 1298.31 1313.12 1353.54 1310.7 1382.76C1308.78 1405.99 1317 1457.05 1321.91 1479.99H1310.7C1310.49 1480.28 1308.4 1469.84 1301.73 1425.79C1293.41 1370.72 1305.58 1313.07 1310.06 1262.3C1314.55 1211.53 1303.66 1186.58 1298.21 1147C1292.76 1107.42 1298.21 1053.21 1305.58 988.673C1312.94 924.138 1304.66 915.861 1300.5 866.815Z" fill="#E68236"/>
<path d="M1334.5 866.815C1331.17 827.578 1335.73 766.101 1339.58 740H1353.67L1352.07 748.605C1352.28 747.17 1351.94 749.121 1348.87 768.395C1345.02 792.488 1342.84 828.991 1350.47 876.813C1359.12 931.022 1355.91 955.975 1350.47 1009.32C1345.02 1062.67 1341.5 1123.76 1350.47 1166.79C1359.44 1209.81 1356.88 1251.97 1355.91 1276.07C1355.03 1298.31 1347.12 1353.54 1344.7 1382.76C1342.78 1405.99 1351 1457.05 1355.91 1479.99H1344.7C1344.49 1480.28 1342.4 1469.84 1335.73 1425.79C1327.41 1370.72 1339.58 1313.07 1344.06 1262.3C1348.55 1211.53 1337.66 1186.58 1332.21 1147C1326.76 1107.42 1332.21 1053.21 1339.58 988.673C1346.94 924.138 1338.66 915.861 1334.5 866.815Z" fill="#E68236"/>
<path d="M1368.5 866.815C1365.17 827.578 1369.73 766.101 1373.58 740H1387.67L1386.07 748.605C1386.28 747.17 1385.94 749.121 1382.87 768.395C1379.02 792.488 1376.84 828.991 1384.47 876.813C1393.12 931.022 1389.91 955.975 1384.47 1009.32C1379.02 1062.67 1375.5 1123.76 1384.47 1166.79C1393.44 1209.81 1390.88 1251.97 1389.91 1276.07C1389.03 1298.31 1381.12 1353.54 1378.7 1382.76C1376.78 1405.99 1385 1457.05 1389.91 1479.99H1378.7C1378.49 1480.28 1376.4 1469.84 1369.73 1425.79C1361.41 1370.72 1373.58 1313.07 1378.06 1262.3C1382.55 1211.53 1371.66 1186.58 1366.21 1147C1360.76 1107.42 1366.21 1053.21 1373.58 988.673C1380.94 924.138 1372.66 915.861 1368.5 866.815Z" fill="#E68236"/>
<path d="M1402.5 866.815C1399.17 827.578 1403.73 766.101 1407.58 740H1421.67L1420.07 748.605C1420.28 747.17 1419.94 749.121 1416.87 768.395C1413.02 792.488 1410.84 828.991 1418.47 876.813C1427.12 931.022 1423.91 955.975 1418.47 1009.32C1413.02 1062.67 1409.5 1123.76 1418.47 1166.79C1427.44 1209.81 1424.88 1251.97 1423.91 1276.07C1423.03 1298.31 1415.12 1353.54 1412.7 1382.76C1410.78 1405.99 1419 1457.05 1423.91 1479.99H1412.7C1412.49 1480.28 1410.4 1469.84 1403.73 1425.79C1395.41 1370.72 1407.58 1313.07 1412.06 1262.3C1416.55 1211.53 1405.66 1186.58 1400.21 1147C1394.76 1107.42 1400.21 1053.21 1407.58 988.673C1414.94 924.138 1406.66 915.861 1402.5 866.815Z" fill="#E68236"/>
<path d="M1436.5 866.815C1433.17 827.578 1437.73 766.101 1441.58 740H1455.67L1454.07 748.605C1454.28 747.17 1453.94 749.121 1450.87 768.395C1447.02 792.488 1444.84 828.991 1452.47 876.813C1461.12 931.022 1457.91 955.975 1452.47 1009.32C1447.02 1062.67 1443.5 1123.76 1452.47 1166.79C1461.44 1209.81 1458.88 1251.97 1457.91 1276.07C1457.03 1298.31 1449.12 1353.54 1446.7 1382.76C1444.78 1405.99 1453 1457.05 1457.91 1479.99H1446.7C1446.49 1480.28 1444.4 1469.84 1437.73 1425.79C1429.41 1370.72 1441.58 1313.07 1446.06 1262.3C1450.55 1211.53 1439.66 1186.58 1434.21 1147C1428.76 1107.42 1434.21 1053.21 1441.58 988.673C1448.94 924.138 1440.66 915.861 1436.5 866.815Z" fill="#E68236"/>
<path d="M1470.5 866.815C1467.17 827.578 1471.73 766.101 1475.58 740H1489.67L1488.07 748.605C1488.28 747.17 1487.94 749.121 1484.87 768.395C1481.02 792.488 1478.84 828.991 1486.47 876.813C1495.12 931.022 1491.91 955.975 1486.47 1009.32C1481.02 1062.67 1477.5 1123.76 1486.47 1166.79C1495.44 1209.81 1492.88 1251.97 1491.91 1276.07C1491.03 1298.31 1483.12 1353.54 1480.7 1382.76C1478.78 1405.99 1487 1457.05 1491.91 1479.99H1480.7C1480.49 1480.28 1478.4 1469.84 1471.73 1425.79C1463.41 1370.72 1475.58 1313.07 1480.06 1262.3C1484.55 1211.53 1473.66 1186.58 1468.21 1147C1462.76 1107.42 1468.21 1053.21 1475.58 988.673C1482.94 924.138 1474.66 915.861 1470.5 866.815Z" fill="#E68236"/>
<path d="M1504.5 866.815C1501.17 827.578 1505.73 766.101 1509.58 740H1523.67L1522.07 748.605C1522.28 747.17 1521.94 749.121 1518.87 768.395C1515.02 792.488 1512.84 828.991 1520.47 876.813C1529.12 931.022 1525.91 955.975 1520.47 1009.32C1515.02 1062.67 1511.5 1123.76 1520.47 1166.79C1529.44 1209.81 1526.88 1251.97 1525.91 1276.07C1525.03 1298.31 1517.12 1353.54 1514.7 1382.76C1512.78 1405.99 1521 1457.05 1525.91 1479.99H1514.7C1514.49 1480.28 1512.4 1469.84 1505.73 1425.79C1497.41 1370.72 1509.58 1313.07 1514.06 1262.3C1518.55 1211.53 1507.66 1186.58 1502.21 1147C1496.76 1107.42 1502.21 1053.21 1509.58 988.673C1516.94 924.138 1508.66 915.861 1504.5 866.815Z" fill="#E68236"/>
<path d="M1538.5 866.815C1535.17 827.578 1539.73 766.101 1543.58 740H1557.67L1556.07 748.605C1556.28 747.17 1555.94 749.121 1552.87 768.395C1549.02 792.488 1546.84 828.991 1554.47 876.813C1563.12 931.022 1559.91 955.975 1554.47 1009.32C1549.02 1062.67 1545.5 1123.76 1554.47 1166.79C1563.44 1209.81 1560.88 1251.97 1559.91 1276.07C1559.03 1298.31 1551.12 1353.54 1548.7 1382.76C1546.78 1405.99 1555 1457.05 1559.91 1479.99H1548.7C1548.49 1480.28 1546.4 1469.84 1539.73 1425.79C1531.41 1370.72 1543.58 1313.07 1548.06 1262.3C1552.55 1211.53 1541.66 1186.58 1536.21 1147C1530.76 1107.42 1536.21 1053.21 1543.58 988.673C1550.94 924.138 1542.66 915.861 1538.5 866.815Z" fill="#E68236"/>
<path d="M1572.5 866.815C1569.17 827.578 1573.73 766.101 1577.58 740H1591.67L1590.07 748.605C1590.28 747.17 1589.94 749.121 1586.87 768.395C1583.02 792.488 1580.84 828.991 1588.47 876.813C1597.12 931.022 1593.91 955.975 1588.47 1009.32C1583.02 1062.67 1579.5 1123.76 1588.47 1166.79C1597.44 1209.81 1594.88 1251.97 1593.91 1276.07C1593.03 1298.31 1585.12 1353.54 1582.7 1382.76C1580.78 1405.99 1589 1457.05 1593.91 1479.99H1582.7C1582.49 1480.28 1580.4 1469.84 1573.73 1425.79C1565.41 1370.72 1577.58 1313.07 1582.06 1262.3C1586.55 1211.53 1575.66 1186.58 1570.21 1147C1564.76 1107.42 1570.21 1053.21 1577.58 988.673C1584.94 924.138 1576.66 915.861 1572.5 866.815Z" fill="#E68236"/>
<path d="M1606.5 866.815C1603.17 827.578 1607.73 766.101 1611.58 740H1625.67L1624.07 748.605C1624.28 747.17 1623.94 749.121 1620.87 768.395C1617.02 792.488 1614.84 828.991 1622.47 876.813C1631.12 931.022 1627.91 955.975 1622.47 1009.32C1617.02 1062.67 1613.5 1123.76 1622.47 1166.79C1631.44 1209.81 1628.88 1251.97 1627.91 1276.07C1627.03 1298.31 1619.12 1353.54 1616.7 1382.76C1614.78 1405.99 1623 1457.05 1627.91 1479.99H1616.7C1616.49 1480.28 1614.4 1469.84 1607.73 1425.79C1599.41 1370.72 1611.58 1313.07 1616.06 1262.3C1620.55 1211.53 1609.66 1186.58 1604.21 1147C1598.76 1107.42 1604.21 1053.21 1611.58 988.673C1618.94 924.138 1610.66 915.861 1606.5 866.815Z" fill="#E68236"/>
<path d="M1640.5 866.815C1637.17 827.578 1641.73 766.101 1645.58 740H1659.67L1658.07 748.605C1658.28 747.17 1657.94 749.121 1654.87 768.395C1651.02 792.488 1648.84 828.991 1656.47 876.813C1665.12 931.022 1661.91 955.975 1656.47 1009.32C1651.02 1062.67 1647.5 1123.76 1656.47 1166.79C1665.44 1209.81 1662.88 1251.97 1661.91 1276.07C1661.03 1298.31 1653.12 1353.54 1650.7 1382.76C1648.78 1405.99 1657 1457.05 1661.91 1479.99H1650.7C1650.49 1480.28 1648.4 1469.84 1641.73 1425.79C1633.41 1370.72 1645.58 1313.07 1650.06 1262.3C1654.55 1211.53 1643.66 1186.58 1638.21 1147C1632.76 1107.42 1638.21 1053.21 1645.58 988.673C1652.94 924.138 1644.66 915.861 1640.5 866.815Z" fill="#E68236"/>
<path d="M1674.5 866.815C1671.17 827.578 1675.73 766.101 1679.58 740H1693.67L1692.07 748.605C1692.28 747.17 1691.94 749.121 1688.87 768.395C1685.02 792.488 1682.84 828.991 1690.47 876.813C1699.12 931.022 1695.91 955.975 1690.47 1009.32C1685.02 1062.67 1681.5 1123.76 1690.47 1166.79C1699.44 1209.81 1696.88 1251.97 1695.91 1276.07C1695.03 1298.31 1687.12 1353.54 1684.7 1382.76C1682.78 1405.99 1691 1457.05 1695.91 1479.99H1684.7C1684.49 1480.28 1682.4 1469.84 1675.73 1425.79C1667.41 1370.72 1679.58 1313.07 1684.06 1262.3C1688.55 1211.53 1677.66 1186.58 1672.21 1147C1666.76 1107.42 1672.21 1053.21 1679.58 988.673C1686.94 924.138 1678.66 915.861 1674.5 866.815Z" fill="#E68236"/>
<path d="M1708.5 866.815C1705.17 827.578 1709.73 766.101 1713.58 740H1727.67L1726.07 748.605C1726.28 747.17 1725.94 749.121 1722.87 768.395C1719.02 792.488 1716.84 828.991 1724.47 876.813C1733.12 931.022 1729.91 955.975 1724.47 1009.32C1719.02 1062.67 1715.5 1123.76 1724.47 1166.79C1733.44 1209.81 1730.88 1251.97 1729.91 1276.07C1729.03 1298.31 1721.12 1353.54 1718.7 1382.76C1716.78 1405.99 1725 1457.05 1729.91 1479.99H1718.7C1718.49 1480.28 1716.4 1469.84 1709.73 1425.79C1701.41 1370.72 1713.58 1313.07 1718.06 1262.3C1722.55 1211.53 1711.66 1186.58 1706.21 1147C1700.76 1107.42 1706.21 1053.21 1713.58 988.673C1720.94 924.138 1712.66 915.861 1708.5 866.815Z" fill="#E68236"/>
</svg>
