<svg width="971" height="998" viewBox="0 0 971 998" fill="none" xmlns="http://www.w3.org/2000/svg">
<path d="M127.043 483.5C127.043 483.5 272.013 411.231 263.16 315.631C254.306 220.031 150.762 150.262 127.043 144.5" fill="#E68236"/>
<path fill-rule="evenodd" clip-rule="evenodd" d="M644.543 68.998C644.543 68.998 432.556 126.501 412.495 244.3C392.431 361.976 501.06 470.903 529.546 484L577.146 312.22H525.542L525.542 191L610.736 191L644.543 68.998ZM845.543 312.22L970.596 312.22V191L845.543 191V312.22Z" fill="#E68236"/>
<path d="M126.543 88V12.5518C156.625 8.97866 219.583 1.83238 230.751 1.83238C244.712 1.83238 681.49 -2.29047 688.969 1.83238C696.448 5.95523 676.005 29.4554 654.565 35.6397C637.413 40.5872 293.077 72.4706 126.543 88Z" fill="#E68236"/>
<path d="M641.543 73L661.543 30" stroke="#E68236" stroke-width="3"/>
<path d="M127.043 969.5C127.043 969.5 272.013 897.231 263.16 801.631C254.306 706.031 150.762 636.262 127.043 630.5" fill="#E68236"/>
<path d="M644.543 554.998C644.543 554.998 432.555 612.501 412.494 730.3C392.431 847.976 501.06 956.903 529.545 970" fill="#E68236"/>
<path d="M126.543 574V498.552C156.625 494.979 219.583 487.832 230.751 487.832C244.712 487.832 681.49 483.71 688.969 487.832C696.448 491.955 676.005 515.455 654.565 521.64C637.413 526.587 293.077 558.471 126.543 574Z" fill="#E68236"/>
<path d="M641.543 559L661.543 516" stroke="#E68236" stroke-width="3"/>
</svg>
