<svg width="653" height="989" viewBox="0 0 653 989" fill="none" xmlns="http://www.w3.org/2000/svg">
<path d="M237.323 118.871C234.287 134.741 219.407 147.142 197.065 154.092C174.792 161.02 145.489 162.381 114.461 156.445C83.4327 150.509 56.7011 138.427 38.5589 123.766C20.3605 109.06 11.1085 92.0428 14.1448 76.1725C17.1811 60.3023 32.0613 47.9017 54.4029 40.9517C76.6755 34.0233 105.979 32.6621 137.007 38.5984C168.035 44.5347 194.767 56.6164 212.909 71.277C231.107 85.983 240.359 103.001 237.323 118.871Z" stroke="#BE000D" stroke-width="3"/>
<path d="M236.656 122.355C233.49 138.904 218.46 151.881 196.057 159.247C173.709 166.594 144.363 168.217 113.344 162.282C82.3243 156.347 55.6499 144.007 37.5922 128.93C19.4896 113.814 10.3117 96.2056 13.4778 79.6565C16.644 63.1074 31.6736 50.1302 54.0772 42.7645C76.4253 35.4171 105.771 33.7947 136.79 39.7293C167.81 45.6639 194.484 58.0039 212.542 73.0818C230.644 88.1971 239.822 105.806 236.656 122.355Z" stroke="#BE000D" stroke-width="3"/>
<ellipse cx="125.809" cy="97.1295" rx="72.1993" ry="38.7319" transform="rotate(10.8309 125.809 97.1295)" fill="#BE000D"/>
<path d="M237.323 326.871C234.287 342.741 219.407 355.142 197.065 362.092C174.792 369.02 145.489 370.381 114.461 364.445C83.4327 358.509 56.7011 346.427 38.5589 331.766C20.3605 317.06 11.1085 300.043 14.1448 284.173C17.1811 268.302 32.0613 255.902 54.4029 248.952C76.6755 242.023 105.979 240.662 137.007 246.598C168.035 252.535 194.767 264.616 212.909 279.277C231.107 293.983 240.359 311.001 237.323 326.871Z" stroke="#BE000D" stroke-width="3"/>
<path d="M236.656 330.355C233.49 346.904 218.46 359.881 196.057 367.247C173.709 374.594 144.363 376.217 113.344 370.282C82.3243 364.347 55.6499 352.007 37.5922 336.93C19.4896 321.814 10.3117 304.206 13.4778 287.657C16.644 271.107 31.6736 258.13 54.0772 250.764C76.4253 243.417 105.771 241.795 136.79 247.729C167.81 253.664 194.484 266.004 212.542 281.082C230.644 296.197 239.822 313.806 236.656 330.355Z" stroke="#BE000D" stroke-width="3"/>
<ellipse cx="125.809" cy="305.13" rx="72.1993" ry="38.7319" transform="rotate(10.8309 125.809 305.13)" fill="#BE000D"/>
<path d="M237.323 517.871C234.287 533.741 219.407 546.142 197.065 553.092C174.792 560.02 145.489 561.381 114.461 555.445C83.4327 549.509 56.7011 537.427 38.5589 522.766C20.3605 508.06 11.1085 491.043 14.1448 475.173C17.1811 459.302 32.0613 446.902 54.4029 439.952C76.6755 433.023 105.979 431.662 137.007 437.598C168.035 443.535 194.767 455.616 212.909 470.277C231.107 484.983 240.359 502.001 237.323 517.871Z" stroke="#BE000D" stroke-width="3"/>
<path d="M236.656 521.355C233.49 537.904 218.46 550.881 196.057 558.247C173.709 565.594 144.363 567.217 113.344 561.282C82.3243 555.347 55.6499 543.007 37.5922 527.93C19.4896 512.814 10.3117 495.206 13.4778 478.657C16.644 462.107 31.6736 449.13 54.0772 441.764C76.4253 434.417 105.771 432.795 136.79 438.729C167.81 444.664 194.484 457.004 212.542 472.082C230.644 487.197 239.822 504.806 236.656 521.355Z" stroke="#BE000D" stroke-width="3"/>
<ellipse cx="125.809" cy="496.13" rx="72.1993" ry="38.7319" transform="rotate(10.8309 125.809 496.13)" fill="#BE000D"/>
<path d="M237.323 709.871C234.287 725.741 219.407 738.142 197.065 745.092C174.792 752.02 145.489 753.381 114.461 747.445C83.4327 741.509 56.7011 729.427 38.5589 714.766C20.3605 700.06 11.1085 683.043 14.1448 667.173C17.1811 651.302 32.0613 638.902 54.4029 631.952C76.6755 625.023 105.979 623.662 137.007 629.598C168.035 635.535 194.767 647.616 212.909 662.277C231.107 676.983 240.359 694.001 237.323 709.871Z" stroke="#BE000D" stroke-width="3"/>
<path d="M236.656 713.355C233.49 729.904 218.46 742.881 196.057 750.247C173.709 757.594 144.363 759.217 113.344 753.282C82.3243 747.347 55.6499 735.007 37.5922 719.93C19.4896 704.814 10.3117 687.206 13.4778 670.657C16.644 654.107 31.6736 641.13 54.0772 633.764C76.4253 626.417 105.771 624.795 136.79 630.729C167.81 636.664 194.484 649.004 212.542 664.082C230.644 679.197 239.822 696.806 236.656 713.355Z" stroke="#BE000D" stroke-width="3"/>
<ellipse cx="125.809" cy="688.13" rx="72.1993" ry="38.7319" transform="rotate(10.8309 125.809 688.13)" fill="#BE000D"/>
<path d="M237.323 900.972C234.287 916.843 219.407 929.243 197.065 936.193C174.792 943.122 145.489 944.483 114.461 938.546C83.4327 932.61 56.7011 920.528 38.5589 905.868C20.3605 891.162 11.1085 874.144 14.1448 858.274C17.1811 842.404 32.0613 830.003 54.4029 823.053C76.6755 816.125 105.979 814.764 137.007 820.7C168.035 826.636 194.767 838.718 212.909 853.379C231.107 868.085 240.359 885.102 237.323 900.972Z" stroke="#BE000D" stroke-width="3"/>
<path d="M236.656 904.456C233.49 921.005 218.46 933.983 196.057 941.348C173.709 948.696 144.363 950.318 113.344 944.384C82.3243 938.449 55.6499 926.109 37.5922 911.031C19.4896 895.916 10.3117 878.307 13.4778 861.758C16.644 845.209 31.6736 832.232 54.0772 824.866C76.4253 817.519 105.771 815.896 136.79 821.831C167.81 827.765 194.484 840.105 212.542 855.183C230.644 870.299 239.822 887.907 236.656 904.456Z" stroke="#BE000D" stroke-width="3"/>
<ellipse cx="125.809" cy="879.231" rx="72.1993" ry="38.7319" transform="rotate(10.8309 125.809 879.231)" fill="#BE000D"/>
<path d="M623.118 58.2287C628.697 73.3931 622.338 91.6896 606.777 109.162C591.263 126.58 566.854 142.852 537.206 153.76C507.558 164.668 478.424 168.095 455.321 164.884C432.146 161.664 415.446 151.851 409.867 136.686C404.287 121.522 410.646 103.225 426.208 85.7531C441.721 68.335 466.13 52.063 495.778 41.1552C525.426 30.2474 554.56 26.8203 577.663 30.0309C600.838 33.2514 617.539 43.0644 623.118 58.2287Z" stroke="#BE000D" stroke-width="3"/>
<path d="M624.343 61.5573C630.161 77.3702 623.972 96.238 608.571 114.098C593.209 131.915 568.899 148.432 539.259 159.337C509.62 170.242 480.401 173.418 457.155 169.806C433.851 166.185 416.91 155.828 411.092 140.015C405.274 124.202 411.464 105.334 426.864 87.4737C442.227 69.6575 466.537 53.14 496.176 42.2353C525.816 31.3305 555.034 28.1544 578.28 31.766C601.584 35.3866 618.526 45.7443 624.343 61.5573Z" stroke="#BE000D" stroke-width="3"/>
<ellipse cx="516.355" cy="97.0827" rx="72.1993" ry="38.7319" transform="rotate(-20.1991 516.355 97.0827)" fill="#BE000D"/>
<path d="M623.118 266.229C628.697 281.393 622.338 299.69 606.777 317.162C591.263 334.58 566.854 350.852 537.206 361.76C507.558 372.668 478.424 376.095 455.321 372.884C432.146 369.664 415.446 359.851 409.867 344.686C404.287 329.522 410.646 311.225 426.208 293.753C441.721 276.335 466.13 260.063 495.778 249.155C525.426 238.247 554.56 234.82 577.663 238.031C600.838 241.251 617.539 251.064 623.118 266.229Z" stroke="#BE000D" stroke-width="3"/>
<path d="M624.343 269.557C630.161 285.37 623.972 304.238 608.571 322.098C593.209 339.915 568.899 356.432 539.259 367.337C509.62 378.242 480.401 381.418 457.155 377.806C433.851 374.185 416.91 363.828 411.092 348.015C405.274 332.202 411.464 313.334 426.864 295.474C442.227 277.658 466.537 261.14 496.176 250.235C525.816 239.33 555.034 236.154 578.28 239.766C601.584 243.387 618.526 253.744 624.343 269.557Z" stroke="#BE000D" stroke-width="3"/>
<ellipse cx="516.355" cy="305.083" rx="72.1993" ry="38.7319" transform="rotate(-20.1991 516.355 305.083)" fill="#BE000D"/>
<path d="M628.047 457.022C633.627 472.186 627.268 490.483 611.706 507.955C596.193 525.373 571.784 541.645 542.136 552.553C512.488 563.461 483.354 566.888 460.251 563.677C437.076 560.457 420.375 550.644 414.796 535.479C409.217 520.315 415.575 502.018 431.137 484.546C446.651 467.128 471.06 450.856 500.708 439.948C530.355 429.04 559.49 425.613 582.593 428.824C605.768 432.044 622.468 441.857 628.047 457.022Z" stroke="#BE000D" stroke-width="3"/>
<path d="M629.273 460.35C635.091 476.163 628.902 495.031 613.501 512.891C598.138 530.708 573.829 547.225 544.189 558.13C514.549 569.035 485.331 572.211 462.085 568.599C438.781 564.978 421.84 554.621 416.022 538.808C410.204 522.995 416.393 504.127 431.794 486.267C447.157 468.45 471.466 451.933 501.106 441.028C530.746 430.123 559.964 426.947 583.21 430.559C606.514 434.18 623.455 444.537 629.273 460.35Z" stroke="#BE000D" stroke-width="3"/>
<ellipse cx="521.285" cy="495.876" rx="72.1993" ry="38.7319" transform="rotate(-20.1991 521.285 495.876)" fill="#BE000D"/>
<path d="M623.118 649.229C628.697 664.393 622.338 682.69 606.777 700.162C591.263 717.58 566.854 733.852 537.206 744.76C507.558 755.668 478.424 759.095 455.321 755.884C432.146 752.664 415.446 742.851 409.867 727.686C404.287 712.522 410.646 694.225 426.208 676.753C441.721 659.335 466.13 643.063 495.778 632.155C525.426 621.247 554.56 617.82 577.663 621.031C600.838 624.251 617.539 634.064 623.118 649.229Z" stroke="#BE000D" stroke-width="3"/>
<path d="M624.343 652.557C630.161 668.37 623.972 687.238 608.571 705.098C593.209 722.915 568.899 739.432 539.259 750.337C509.62 761.242 480.401 764.418 457.155 760.806C433.851 757.185 416.91 746.828 411.092 731.015C405.274 715.202 411.464 696.334 426.864 678.474C442.227 660.658 466.537 644.14 496.176 633.235C525.816 622.33 555.034 619.154 578.28 622.766C601.584 626.387 618.526 636.744 624.343 652.557Z" stroke="#BE000D" stroke-width="3"/>
<ellipse cx="516.355" cy="688.083" rx="72.1993" ry="38.7319" transform="rotate(-20.1991 516.355 688.083)" fill="#BE000D"/>
<path d="M623.001 846.422C628.58 861.586 622.221 879.883 606.659 897.355C591.146 914.773 566.737 931.045 537.089 941.953C507.441 952.861 478.307 956.288 455.204 953.077C432.029 949.857 415.328 940.044 409.749 924.88C404.17 909.715 410.529 891.419 426.091 873.947C441.604 856.528 466.013 840.256 495.661 829.349C525.309 818.441 554.443 815.014 577.546 818.224C600.721 821.445 617.421 831.258 623.001 846.422Z" stroke="#BE000D" stroke-width="3"/>
<path d="M624.226 849.751C630.044 865.564 623.855 884.431 608.454 902.292C593.092 920.108 568.782 936.625 539.142 947.53C509.502 958.435 480.284 961.611 457.038 957.999C433.734 954.379 416.793 944.021 410.975 928.208C405.157 912.395 411.346 893.527 426.747 875.667C442.11 857.851 466.419 841.333 496.059 830.429C525.699 819.524 554.917 816.348 578.163 819.959C601.467 823.58 618.408 833.938 624.226 849.751Z" stroke="#BE000D" stroke-width="3"/>
<ellipse cx="516.238" cy="885.276" rx="72.1993" ry="38.7319" transform="rotate(-20.1991 516.238 885.276)" fill="#BE000D"/>
</svg>
