<svg width="996.152344" height="570.921875" viewBox="0 0 996.152 570.922" fill="none" xmlns="http://www.w3.org/2000/svg" xmlns:xlink="http://www.w3.org/1999/xlink">
	<desc>
			Created with Pixso.
	</desc>
	<defs/>
	<path id="Vector 120" d="M915.607 119.633L791.236 120.816C788.867 120.816 784.129 123.186 784.129 132.662C784.129 142.139 784.129 307.967 784.129 389.695" stroke="#BE000D" stroke-opacity="1.000000" stroke-width="11.844864"/>
	<path id="Vector 121" d="M707.139 290.199L752.148 290.199" stroke="#BE000D" stroke-opacity="1.000000" stroke-width="11.844864"/>
	<path id="Vector 118" d="M9.47461 5.92188L9.47461 390.881L669.234 390.881L669.234 78.1758L669.234 5.92188L9.47461 5.92188Z" fill="#F9EEEC" fill-opacity="1.000000" fill-rule="nonzero"/>
	<path id="Vector 118" d="M9.47461 5.92188L669.234 5.92188L669.234 78.1758L669.234 390.881L9.47461 390.881L9.47461 5.92188ZM669.234 78.1758L850.461 78.1758C865.857 77.7812 894.049 78.6484 902.578 90.0195C911.105 101.391 962.197 211.232 984.307 264.141L984.307 387.326" stroke="#BE000D" stroke-opacity="1.000000" stroke-width="11.844864"/>
	<path id="Vector 117" d="M5.92188 392.064L5.92188 450.104L990.23 450.104L990.23 392.064L5.92188 392.064Z" fill="#F9EEEC" fill-opacity="1.000000" fill-rule="nonzero"/>
	<path id="Vector 117" d="M5.92188 392.064L990.23 392.064L990.23 450.104L5.92188 450.104L5.92188 392.064Z" stroke="#BE000D" stroke-opacity="1.000000" stroke-width="11.844864"/>
	<path id="Vector 119" d="M816.109 145.691L885.994 145.691L935.742 255.85L816.109 255.85L816.109 145.691ZM754.518 145.691L754.518 252.295L701.215 252.295L701.215 145.691L754.518 145.691ZM816.109 290.199L859.936 290.199" stroke="#BE000D" stroke-opacity="1.000000" stroke-width="11.844864"/>
	<circle id="Ellipse 800" cx="182.410156" cy="473.794922" r="92.389938" fill="#F9EEEC" fill-opacity="1.000000"/>
	<circle id="Ellipse 800" cx="182.410156" cy="473.794922" r="88.836479" stroke="#BE000D" stroke-opacity="1.000000" stroke-width="7.106918"/>
	<circle id="Ellipse 802" cx="819.664062" cy="478.533203" r="92.389938" fill="#F9EEEC" fill-opacity="1.000000"/>
	<circle id="Ellipse 802" cx="819.664062" cy="478.533203" r="88.836479" stroke="#BE000D" stroke-opacity="1.000000" stroke-width="7.106918"/>
	<circle id="Ellipse 801" cx="182.410156" cy="473.792969" r="52.117401" fill="#F9EEEC" fill-opacity="1.000000"/>
	<circle id="Ellipse 801" cx="182.410156" cy="473.792969" r="48.563942" stroke="#BE000D" stroke-opacity="1.000000" stroke-width="7.106918"/>
	<circle id="Ellipse 803" cx="819.664062" cy="478.531250" r="52.117401" fill="#F9EEEC" fill-opacity="1.000000"/>
	<circle id="Ellipse 803" cx="819.664062" cy="478.531250" r="48.563942" stroke="#BE000D" stroke-opacity="1.000000" stroke-width="7.106918"/>
	<path id="Subtract" d="M244.242 168.373L244.242 165.232L246.318 165.232L246.318 170.449L255.732 170.449L255.732 206.611L266.1 206.611L266.1 165.232L286.744 165.232L286.744 206.611L297.111 206.611L297.111 165.232L317.756 165.232L317.756 227.256L235.088 227.256L235.088 205.754L237.32 205.754L237.32 196.062L235.088 196.062L242.166 196.062L242.166 184.986L237.32 184.986L237.32 175.295L235.088 175.295L235.088 168.373L244.242 168.373ZM430.453 169.064L440.836 169.064L440.836 173.219L450.527 173.219L450.527 165.232L454.387 165.232L454.387 180.738L418.146 180.738L418.146 188.447L440.121 188.447C442.779 188.447 445.291 188.979 447.652 190.041C450.016 191.047 452.084 192.434 453.855 194.207C455.627 195.92 457.016 197.957 458.02 200.32C459.023 202.684 459.525 205.193 459.525 207.852C459.525 210.51 459.023 213.02 458.02 215.383C457.016 217.746 455.627 219.812 453.855 221.586C452.084 223.357 450.016 224.746 447.652 225.75C445.291 226.754 442.779 227.256 440.121 227.256L397.502 227.256L397.502 180.834L399.994 180.834L399.994 170.449L397.502 170.449L397.502 170.449L404.148 170.449L404.148 165.232L430.453 165.232L430.453 169.064ZM552.285 169.064L552.285 163.729C554.965 162.959 557.756 162.574 560.656 162.574Q564.99 162.574 568.996 163.719L568.998 163.719Q570.889 164.26 572.707 165.055C576.488 166.65 579.766 168.836 582.543 171.611C585.377 174.389 587.594 177.666 589.188 181.447C590.842 185.229 591.668 189.244 591.668 193.498L591.668 206.611L595.744 206.611L595.922 232.395L575.188 232.395L575.188 227.256L546.125 227.256L546.125 232.395L525.393 232.395L525.568 206.611L529.734 206.611L529.734 205.061L534.287 205.061L534.287 198.139L531.518 198.139L531.518 193.986L529.734 193.986L529.734 193.498Q529.734 188.863 530.996 184.604L531.014 184.547Q531.482 182.971 532.125 181.447C532.752 180.018 533.457 178.658 534.244 177.371L541.209 177.371L541.209 172.527L547.439 172.527L547.439 169.064L552.285 169.064ZM112.717 169.758L112.717 163.25Q115.855 162.574 119.188 162.574Q123.52 162.574 127.527 163.719L127.527 163.719L127.527 163.719Q129.418 164.26 131.236 165.055Q135.748 166.957 139.305 169.982Q140.221 170.76 141.072 171.611C143.908 174.389 146.123 177.666 147.719 181.447C149.371 185.229 150.199 189.244 150.199 193.498L150.199 206.611L154.275 206.611L154.451 232.395L133.719 232.395L133.719 227.256L104.656 227.256L104.656 232.395L83.9219 232.395L84.0996 206.611L88.2637 206.611L88.2637 205.754L94.7207 205.754L94.7207 198.83L91.9512 198.83L91.9512 194.678L88.2637 194.678L88.2637 193.498Q88.2637 188.863 89.5254 184.604L89.5254 184.604L89.5254 184.604Q90.002 182.998 90.6562 181.447Q91.4277 179.682 92.3633 178.064L101.643 178.064L101.643 173.219L107.875 173.219L107.875 169.758L112.717 169.758ZM99.3359 169.758Q99.791 169.381 100.26 169.021L100.26 169.758L99.3359 169.758ZM357.6 229.914C352.992 229.914 348.621 229.029 344.486 227.256C340.41 225.484 336.836 223.092 333.766 220.08Q332.607 218.898 331.572 217.619Q328.566 213.906 326.588 209.357C324.816 205.281 323.93 200.939 323.93 196.332C323.93 191.725 324.816 187.383 326.588 183.309C328.359 179.174 330.752 175.6 333.766 172.586C336.836 169.516 340.41 167.094 344.486 165.32C348.621 163.549 352.992 162.662 357.6 162.662C362.207 162.662 366.549 163.549 370.625 165.32Q375.029 167.236 378.604 170.16L378.605 170.162L378.605 170.162Q379.994 171.297 381.258 172.586C384.33 175.6 386.752 179.174 388.523 183.309Q389.279 185.047 389.82 186.85L389.82 186.852Q391.182 191.389 391.182 196.332Q391.182 201.277 389.82 205.814L389.82 205.816Q389.279 207.619 388.523 209.357C386.752 213.434 384.33 217.008 381.258 220.08Q380.354 220.982 379.387 221.811L379.387 221.812Q375.516 225.129 370.625 227.256Q368.889 228.012 367.09 228.551L367.088 228.553L367.082 228.553Q362.545 229.914 357.6 229.914ZM209.072 165.232L229.717 227.256L208.01 227.256L206.326 222.117L183.111 222.117L181.428 227.256L159.719 227.256L180.363 165.232L209.072 165.232ZM466.551 227.256L466.551 165.232L518.207 165.232L518.207 180.738L487.195 180.738L487.195 188.447L513.068 188.447L513.068 203.953L487.195 203.953L487.195 211.75L518.207 211.75L518.207 227.256L466.551 227.256ZM108.908 206.611L129.555 206.611L129.555 193.498C129.555 192.08 129.287 190.721 128.756 189.422Q128.072 187.455 126.811 185.984Q126.766 185.93 126.719 185.877C125.832 184.873 124.74 184.076 123.439 183.484C122.199 182.895 120.781 182.6 119.188 182.6C117.65 182.6 116.232 182.895 114.934 183.484C113.693 184.076 112.631 184.873 111.744 185.877C110.857 186.881 110.148 188.062 109.617 189.422Q109.408 189.994 109.262 190.584L109.262 190.584L109.262 190.584Q108.908 191.996 108.908 193.498L108.908 206.611ZM550.379 206.611L571.023 206.611L571.023 193.498Q571.023 192.297 570.77 191.152Q570.574 190.27 570.227 189.422C569.754 188.062 569.074 186.881 568.188 185.877C567.303 184.873 566.209 184.076 564.91 183.484C563.67 182.895 562.252 182.6 560.656 182.6C559.121 182.6 557.703 182.895 556.404 183.484C555.164 184.076 554.1 184.873 553.215 185.877C552.328 186.881 551.619 188.062 551.088 189.422C550.615 190.721 550.379 192.08 550.379 193.498L550.379 206.611ZM357.6 209.447C359.373 209.447 361.025 209.121 362.562 208.473C364.156 207.764 365.545 206.818 366.727 205.637Q367.271 205.092 367.742 204.486Q368.799 203.127 369.473 201.473C370.182 199.877 370.537 198.164 370.537 196.332C370.537 194.502 370.182 192.789 369.473 191.193Q368.799 189.539 367.742 188.18L367.742 188.18Q367.271 187.574 366.727 187.029Q365.895 186.156 364.926 185.477L364.924 185.477Q363.83 184.711 362.562 184.193C361.025 183.484 359.373 183.131 357.6 183.131C355.828 183.131 354.145 183.484 352.549 184.193Q351.281 184.711 350.188 185.477L350.186 185.477Q349.217 186.156 348.385 187.029Q348.072 187.344 347.781 187.676Q346.426 189.225 345.549 191.193C344.9 192.789 344.574 194.502 344.574 196.332C344.574 198.164 344.9 199.877 345.549 201.473Q346.424 203.438 347.775 204.984L347.781 204.99L347.785 204.996L347.793 205.006Q348.078 205.33 348.385 205.637C349.566 206.818 350.955 207.764 352.549 208.473C354.145 209.121 355.828 209.447 357.6 209.447ZM188.338 206.611L201.186 206.611L194.719 187.295L188.338 206.611ZM418.146 203.953L418.146 211.75L434.982 211.75Q435.721 211.75 436.363 211.504L436.367 211.502Q437.111 211.217 437.729 210.598C438.498 209.83 438.881 208.914 438.881 207.852C438.881 206.789 438.498 205.873 437.729 205.105C436.961 204.338 436.045 203.953 434.982 203.953L418.146 203.953Z" clip-rule="evenodd" fill="#BE000D" fill-opacity="1.000000" fill-rule="evenodd"/>
</svg>
