<svg width="384.730469" height="151.892578" viewBox="0 0 384.73 151.893" fill="none" xmlns="http://www.w3.org/2000/svg" xmlns:xlink="http://www.w3.org/1999/xlink">
	<desc>
			Created with Pixso.
	</desc>
	<defs/>
	<path id="Group 1 (Traced)" d="M42.1328 0.597656C39 1.58984 35.9766 4.74023 34.918 8.11133C34.2324 10.2949 34.1328 11.8223 34.2949 17.5547C34.5742 27.377 35.3203 29.0977 44.0801 40.1484C46.8203 43.6055 49.7031 47.7168 50.4863 49.2891C51.8262 51.9746 51.9141 52.4473 51.9336 57.1895C51.9609 63.3379 51.3906 64.6504 48.6953 64.6387C45.3066 64.625 44.9941 63.7559 44.9941 54.332L44.9941 46.6562L39.1445 46.6562L33.2969 46.6562L33.2969 54.9551C33.2969 66.4824 34.1094 69.707 37.8125 72.877C40.4414 75.125 44.1836 76.0547 49.5645 75.7988C60.4961 75.2793 64.8711 69.0098 64.2207 54.791C63.8203 45.9902 62.7207 43.6445 53.4238 31.7402C46.5508 22.9395 46.1797 22.2012 45.9668 16.877C45.7559 11.6152 46.3301 10.2246 48.7168 10.2363C49.5156 10.2402 50.4258 10.4062 50.7402 10.6055C51.7578 11.252 52.1934 13.9355 52.1934 19.5586L52.1934 25.0703L57.5938 25.0703L62.9922 25.0703L62.9922 17.1738C62.9922 8.3125 62.6113 6.11523 60.6602 3.75C58.2383 0.814453 56.3477 0.15625 49.9434 0.0214844C45.8477 -0.0644531 43.7266 0.0917969 42.1328 0.597656ZM0 37.6621L0 74.9902L5.625 74.9902L11.248 74.9902L11.248 58.7988L11.248 42.6094L15.0723 42.6094L18.8984 42.6094L18.8984 58.7988L18.8984 74.9902L24.75 74.9902L30.6016 74.9902L30.4863 37.7754L30.3711 0.560547L24.6348 0.433594L18.8984 0.308594L18.8984 15.4062L18.8984 30.5039L15.1855 30.373L11.4727 30.2422L11.3555 15.2891L11.2363 0.335938L5.61914 0.335938L0 0.335938L0 37.6621ZM67.3418 0.634766C67.1777 0.800781 67.041 17.5977 67.041 37.9629L67.041 74.9902L80.3145 74.9902L93.5879 74.9902L93.5879 69.3672L93.5879 63.7461L86.1641 63.7461L78.7402 63.7461L78.7402 52.9531L78.7402 42.1602L84.3652 42.1602L89.9883 42.1602L89.9883 36.5371L89.9883 30.916L84.3652 30.916L78.7402 30.916L78.7402 21.248L78.7402 11.5781L85.9395 11.5781L93.1387 11.5781L93.1387 5.95703L93.1387 0.335938L80.3906 0.335938C73.3789 0.335938 67.5059 0.470703 67.3418 0.634766ZM113.205 1.57227C113.066 2.25195 112.551 6.14844 112.061 10.2285C110.822 20.5312 108.318 41.0078 106.186 58.291C105.197 66.2969 104.387 73.3281 104.387 73.918C104.387 74.9844 104.414 74.9902 109.498 74.9902L114.609 74.9902L115.143 69.4805C115.436 66.4492 115.791 63.3125 115.932 62.5098L116.186 61.0488L120.092 61.0488L124 61.0488L124.562 66.7812C124.873 69.9355 125.234 73.0723 125.365 73.752L125.605 74.9902L131.133 74.9902C136.611 74.9902 136.658 74.9805 136.498 73.9766C136.41 73.4219 134.314 57.2812 131.842 38.1113C129.369 18.9434 127.232 2.60156 127.096 1.79688L126.844 0.335938L120.15 0.335938L113.457 0.335938L113.205 1.57227ZM138.133 37.6211L138.133 74.9902L143.982 74.9902L149.832 74.9902L149.832 58.2871L149.832 41.5859L152.42 41.8906C153.842 42.0566 155.311 42.4961 155.682 42.8652C156.244 43.4277 156.395 46.0156 156.588 58.4766C156.715 66.6934 156.988 73.7695 157.197 74.2031C157.531 74.8926 158.301 74.9902 163.426 74.9902C168.814 74.9902 169.252 74.9277 168.967 74.2031C168.107 72.0117 167.834 67.2031 167.832 54.1387C167.83 40.5 167.785 39.7285 166.902 38.1582C166.391 37.25 165.404 36.125 164.709 35.6582L163.445 34.8086L164.801 33.668C167.531 31.373 167.809 30 167.816 18.7734C167.822 13.168 167.617 7.91016 167.359 6.98242C166.721 4.68359 164.873 2.625 162.445 1.50977C160.588 0.65625 159.406 0.558594 149.27 0.414062L138.133 0.253906L138.133 37.6211ZM170.08 5.95703L170.08 11.5781L174.805 11.5781L179.527 11.5781L179.527 43.2832L179.527 74.9902L185.152 74.9902L190.777 74.9902L190.777 43.2832L190.777 11.5781L195.502 11.5781L200.227 11.5781L200.227 5.95703L200.227 0.335938L185.152 0.335938L170.08 0.335938L170.08 5.95703ZM219.795 0.898438C219.686 1.20703 218.979 6.51953 218.223 12.7031C217.467 18.8867 216.354 27.9941 215.748 32.9395C215.143 37.8867 213.838 48.6133 212.848 56.7754C211.859 64.9375 210.941 72.375 210.807 73.3027L210.564 74.9902L215.744 74.9902C218.592 74.9902 220.941 74.8379 220.965 74.6523C220.988 74.4668 221.342 71.3809 221.752 67.793L222.498 61.2734L226.396 61.1426L230.293 61.0137L230.535 62.2676C230.67 62.957 231.018 66.1016 231.311 69.2559L231.842 74.9902L237.406 74.9902C242.111 74.9902 242.971 74.8828 242.971 74.2988C242.971 73.918 241.967 65.9746 240.738 56.6465C239.512 47.3184 237.365 30.9844 235.973 20.3496C234.578 9.71289 233.344 0.859375 233.229 0.673828C233.113 0.488281 230.088 0.335938 226.508 0.335938C221.703 0.335938 219.943 0.482422 219.795 0.898438ZM244.77 37.6621L244.77 74.9902L249.939 74.9902L255.109 74.9902L255.227 54.7637L255.344 34.5371L257.672 43.6328C258.953 48.6348 261.26 57.7363 262.797 63.8594L265.596 74.9902L270.256 74.9902L274.916 74.9902L274.916 37.6621L274.916 0.335938L269.742 0.335938L264.568 0.335938L264.529 19.5605L264.49 38.7871L263.014 32.9395C262.201 29.7246 260.072 21.0742 258.283 13.7148L255.029 0.335938L249.898 0.335938L244.77 0.335938L244.77 37.6621ZM278.967 37.6484L278.967 75.0469L290.102 74.9043L301.238 74.7637L303.41 73.4883C305.988 71.9727 307.963 69.0996 308.674 65.8242C309.02 64.2324 309.131 55.0566 309.031 36.0879L308.889 8.6543L307.768 6.46289C306.486 3.95508 304.426 2.08789 302.008 1.23828C300.893 0.847656 296.793 0.585938 289.652 0.453125L278.967 0.251953L278.967 37.6484ZM155.641 11.7949C156.244 12.3984 156.355 13.8242 156.355 20.8535C156.355 29.0801 156.342 29.209 155.293 30.0566C154.572 30.6406 153.527 30.916 152.031 30.916L149.832 30.916L149.832 20.7344L149.832 10.5527L152.377 10.8164C153.793 10.9609 155.242 11.3965 155.641 11.7949ZM295.092 11.1719C296.156 11.541 296.621 12.0664 296.982 13.3066C297.303 14.4062 297.418 22.7441 297.326 38.4375C297.191 61.4258 297.17 61.9434 296.266 62.8457C295.684 63.4258 294.477 63.8691 293.004 64.0449L290.664 64.3223L290.664 37.5L290.664 10.6797L292.172 10.6797C293.002 10.6797 294.314 10.9004 295.092 11.1719ZM121.238 36.0879C121.871 42.0254 122.498 47.5391 122.631 48.3438L122.877 49.8047L120.012 49.8047L117.146 49.8047L117.467 46.9941C117.643 45.4492 118.254 39.7441 118.82 34.3184C119.391 28.8945 119.908 24.6445 119.973 24.875C120.035 25.1055 120.605 30.1523 121.238 36.0879ZM228.994 48.5684C229.021 49.7852 228.98 49.8047 226.271 49.8047L223.521 49.8047L223.781 47.8926C223.926 46.8418 224.467 41.834 224.986 36.7637C225.504 31.6914 226.051 27.0371 226.201 26.4199C226.436 25.4492 228.914 45.0996 228.994 48.5684ZM74.2402 75.7012C67.3047 76.9277 64.0312 80.252 62.9551 87.1621C62.4199 90.6016 62.6641 96.918 63.4746 100.535C64.2793 104.135 66.6914 108.195 72.2598 115.33C75.3105 119.238 78.3711 123.447 79.0605 124.684C80.2559 126.826 80.3145 127.213 80.3145 132.844C80.3145 138.023 80.209 138.871 79.459 139.701C78.207 141.084 75.9082 140.969 74.7246 139.465C73.8613 138.369 73.791 137.689 73.791 130.469L73.791 122.66L67.9043 122.66L62.0156 122.66L62.1699 132.441C62.3125 141.512 62.3984 142.387 63.3574 144.471C65.1875 148.453 67.7285 150.408 72.3516 151.387C76.6738 152.303 82.0078 151.832 85.3672 150.24C90.9688 147.582 93.6348 140.283 92.916 129.576C92.3867 121.707 91.3047 119.498 82.1797 107.664C79.5391 104.238 76.8789 100.586 76.2715 99.5469C74.1797 95.9824 73.9141 87.793 75.8418 86.3828C76.9062 85.6055 78.3438 85.6191 79.4414 86.4199C80.2227 86.9883 80.3398 87.7949 80.541 93.9531L80.7656 100.848L86.2773 100.975L91.7891 101.102L91.7773 93.3301C91.7715 89.0547 91.5586 84.6465 91.3047 83.5332C90.4902 79.9785 88.0039 77.3262 84.543 76.3184C82.8047 75.8145 75.9355 75.4004 74.2402 75.7012ZM121.898 75.8633C116.465 76.8613 112.797 80.6309 111.586 86.4609C111.264 88.0098 111.146 97.8535 111.232 115.953C111.373 145.395 111.225 143.656 113.92 147.688C115.611 150.217 118.982 151.893 122.381 151.893C125.736 151.893 129.119 149.918 131.422 146.619L133.062 144.268L133.91 147.518L134.758 150.768L138.021 150.9L141.283 151.031L141.283 128.301L141.283 105.57L133.408 105.57L125.535 105.57L125.535 111.416L125.535 117.264L128.01 117.264L130.484 117.264L130.484 127.188C130.484 137.234 130.32 138.398 128.723 139.623C127.617 140.473 125.199 140.312 124.211 139.324C123.729 138.844 123.213 137.781 123.062 136.965C122.914 136.146 122.852 124.885 122.926 111.939L123.061 88.4004L124.123 87.541C125.654 86.3008 127.525 86.4355 128.652 87.8672C129.48 88.9199 129.584 89.668 129.584 94.6133L129.584 100.174L135.26 100.174L140.936 100.174L140.742 92.416C140.592 86.4062 140.373 84.2578 139.775 82.8828C137.645 77.9766 134.422 76.0117 127.969 75.6875C125.764 75.5762 123.033 75.6562 121.898 75.8633ZM199.992 75.8555C195.559 76.5625 192.531 78.8438 190.701 82.8594C189.18 86.1973 188.957 95.4199 190.271 100.615C191.477 105.379 192.727 107.488 199.346 115.914C206.211 124.654 207.057 126.371 207.312 132.078C207.549 137.34 206.898 139.744 205.062 140.389C203.422 140.963 201.531 140.277 200.805 138.842C200.418 138.08 200.236 135.336 200.232 130.193L200.227 122.66L194.377 122.66L188.527 122.66L188.527 130.447C188.527 139.299 188.998 142.637 190.688 145.752C192.658 149.391 196.145 151.262 201.855 151.744C211.025 152.518 216.93 148.676 218.898 140.654C219.527 138.082 219.643 136.168 219.469 131.062C219.148 121.648 218.447 120.084 209.248 108.27C201.996 98.9551 201.352 97.6191 201.352 91.9277C201.352 87.8223 201.426 87.4414 202.412 86.6426C203.756 85.5547 204.793 85.5547 206.137 86.6406C207.156 87.4648 207.205 87.7812 207.346 94.3008L207.49 101.1L212.969 100.975L218.449 100.848L218.422 92.5293C218.396 84.8906 218.311 84.0195 217.373 81.8926C216.152 79.125 215.068 78.0332 212.357 76.834C210.021 75.8008 203.549 75.2891 199.992 75.8555ZM233.521 75.7207C228.529 76.6875 225.668 78.8242 223.662 83.084L222.498 85.5586L222.498 113.711L222.498 141.863L224.076 144.967C226.758 150.236 230.994 152.188 238.936 151.809C245.506 151.494 248.992 149.191 251.195 143.711C252.07 141.537 252.172 140.285 252.326 129.742L252.498 118.162L246.871 118.162L241.246 118.162L241.096 128.32L240.945 138.479L239.684 139.564C237.375 141.549 234.768 140.525 234.201 137.414C234.053 136.596 233.99 125.271 234.064 112.25C234.191 89.7012 234.238 88.5293 235.055 87.6289C235.977 86.6094 237.971 86.3828 239.381 87.1367C240.73 87.8594 241.166 90.457 241.168 97.8125L241.172 104.672L246.84 104.672L252.508 104.672L252.334 94.8887C252.174 85.7969 252.088 84.9395 251.104 82.7305C249.84 79.8906 246.922 77.1699 244.301 76.3848C242.297 75.7852 235.385 75.3594 233.521 75.7207ZM300.979 75.8633C295.012 76.959 291.375 81.084 290.246 88.0332C289.633 91.8086 289.621 134.801 290.232 139.074C291.051 144.801 294.408 149.551 298.617 150.939C301.689 151.953 308.154 152.104 311.154 151.232C316.16 149.777 318.637 147.209 320.281 141.773C321.18 138.807 321.621 95.0391 320.814 88.9844C319.939 82.416 317.662 78.8223 313.094 76.8086C310.699 75.7539 304.299 75.2539 300.979 75.8633ZM335.596 75.8691C329.771 76.9316 326.314 80.5762 324.879 87.1641C324.494 88.9277 324.387 96.6582 324.492 115.016C324.625 138.41 324.701 140.6 325.467 142.635C328.066 149.555 332.965 152.326 341.639 151.787C347.752 151.404 351.305 149.328 353.6 144.797C355.322 141.391 355.457 139.125 355.457 113.371C355.457 92.1895 355.35 87.9746 354.756 85.6777C353.562 81.0762 351.188 78.1738 347.48 76.7891C344.74 75.7637 338.721 75.2988 335.596 75.8691ZM0 113.672L0 151.064L10.6855 150.916C20.8223 150.775 21.4824 150.713 23.5098 149.715C26.0215 148.48 28.0078 146.23 29.1133 143.373C29.8301 141.52 29.9219 138.842 30.0605 115.24C30.1699 96.6777 30.0625 88.2773 29.6875 86.1055C28.9902 82.082 27.1016 79.248 24.0859 77.707C21.9004 76.5898 21.6055 76.5605 10.9258 76.4219L0 76.2812L0 113.672ZM33.7461 113.666L33.7461 150.992L47.0195 150.992L60.293 150.992L60.293 145.146L60.293 139.299L52.8691 139.299L45.4453 139.299L45.4453 128.73L45.4453 118.162L51.0684 118.162L56.6934 118.162L56.6934 112.316L56.6934 106.471L51.0684 106.471L45.4453 106.471L45.4453 97.0254L45.4453 87.582L52.6445 87.582L59.8438 87.582L59.8438 81.9609L59.8438 76.3379L46.7949 76.3379L33.7461 76.3379L33.7461 113.666ZM95.8379 113.666L95.8379 150.992L101.688 150.992L107.537 150.992L107.537 113.666L107.537 76.3379L101.688 76.3379L95.8379 76.3379L95.8379 113.666ZM144.992 113.553L145.107 150.768L150.395 150.895L155.682 151.021L155.723 130.656L155.764 110.293L160.189 127.832C162.625 137.479 164.957 146.637 165.373 148.182L166.129 150.992L170.805 150.992L175.479 150.992L175.479 113.666L175.479 76.3379L170.305 76.3379L165.131 76.3379L165.084 95.5645C165.043 112.197 164.957 114.518 164.447 112.766C164.123 111.652 161.977 103.002 159.678 93.541L155.5 76.3379L150.189 76.3379L144.877 76.3379L144.992 113.553ZM255.568 113.666L255.568 150.992L261.418 150.992L267.268 150.992L267.268 134.578L267.268 118.162L271.092 118.162L274.916 118.162L274.916 134.578L274.916 150.992L280.541 150.992L286.166 150.992L286.166 113.666L286.166 76.3379L280.541 76.3379L274.916 76.3379L274.916 91.1797L274.916 106.02L271.092 106.02L267.268 106.02L267.268 91.1797L267.268 76.3379L261.418 76.3379L255.568 76.3379L255.568 113.666ZM359.057 113.672L359.057 151.006L371.768 150.887L384.479 150.768L384.605 145.033L384.73 139.299L377.742 139.299L370.756 139.299L370.756 107.818L370.756 76.3379L364.906 76.3379L359.057 76.3379L359.057 113.672ZM17.2773 88.1758C18.2109 89.4297 18.2227 89.7656 18.2227 113.215C18.2227 136.666 18.2109 137.002 17.2773 138.256C16.4629 139.348 15.9766 139.543 13.7891 139.66L11.248 139.795L11.248 113.215L11.248 86.6367L13.7891 86.7715C15.9766 86.8887 16.4629 87.084 17.2773 88.1758ZM308.01 87.873L309.113 89.0625L309.113 113.252C309.113 127.48 308.936 137.906 308.684 138.568C307.752 141.021 304.08 141.248 302.52 138.951C301.746 137.811 301.678 136.26 301.541 116.588C301.369 92.2148 301.525 89.2793 303.062 87.7422C304.521 86.2832 306.586 86.3379 308.01 87.873ZM341.941 87.123C343.646 88.0352 343.758 89.6855 343.752 113.846C343.744 139.002 343.758 138.859 341.42 140.17C339.732 141.117 337.904 140.4 336.891 138.395C336.158 136.947 336.107 134.998 336.217 112.914L336.334 89.002L337.426 87.8418C338.574 86.6211 340.445 86.3223 341.941 87.123Z" fill="#BE000D" fill-opacity="1.000000" fill-rule="evenodd"/>
</svg>
