<svg width="744.000000" height="496.000000" viewBox="0 0 744 496" fill="none" xmlns="http://www.w3.org/2000/svg" xmlns:xlink="http://www.w3.org/1999/xlink">
	<desc>
			Created with Pixso.
	</desc>
	<defs/>
	<rect id="Rectangle 285" width="31.000000" height="31.000000" fill="#B33F36" fill-opacity="1.000000"/>
	<rect id="Rectangle 752" y="62.000000" width="31.000000" height="31.000000" fill="#B33F36" fill-opacity="1.000000"/>
	<rect id="Rectangle 780" y="124.000000" width="31.000000" height="31.000000" fill="#B33F36" fill-opacity="1.000000"/>
	<rect id="Rectangle 808" y="186.000000" width="31.000000" height="31.000000" fill="#B33F36" fill-opacity="1.000000"/>
	<rect id="Rectangle 836" y="248.000000" width="31.000000" height="31.000000" fill="#B33F36" fill-opacity="1.000000"/>
	<rect id="Rectangle 864" y="310.000000" width="31.000000" height="31.000000" fill="#B33F36" fill-opacity="1.000000"/>
	<rect id="Rectangle 892" y="372.000000" width="31.000000" height="31.000000" fill="#B33F36" fill-opacity="1.000000"/>
	<rect id="Rectangle 920" y="434.000000" width="31.000000" height="31.000000" fill="#B33F36" fill-opacity="1.000000"/>
	<rect id="Rectangle 540" width="31.000000" height="31.000000" fill="#BE000D" fill-opacity="1.000000"/>
	<rect id="Rectangle 753" y="62.000000" width="31.000000" height="31.000000" fill="#BE000D" fill-opacity="1.000000"/>
	<rect id="Rectangle 781" y="124.000000" width="31.000000" height="31.000000" fill="#BE000D" fill-opacity="1.000000"/>
	<rect id="Rectangle 809" y="186.000000" width="31.000000" height="31.000000" fill="#BE000D" fill-opacity="1.000000"/>
	<rect id="Rectangle 837" y="248.000000" width="31.000000" height="31.000000" fill="#BE000D" fill-opacity="1.000000"/>
	<rect id="Rectangle 865" y="310.000000" width="31.000000" height="31.000000" fill="#BE000D" fill-opacity="1.000000"/>
	<rect id="Rectangle 893" y="372.000000" width="31.000000" height="31.000000" fill="#BE000D" fill-opacity="1.000000"/>
	<rect id="Rectangle 921" y="434.000000" width="31.000000" height="31.000000" fill="#BE000D" fill-opacity="1.000000"/>
	<rect id="Rectangle 541" x="93.000000" y="31.000000" width="31.000000" height="31.000000" fill="#B33F36" fill-opacity="1.000000"/>
	<rect id="Rectangle 754" x="93.000000" y="93.000000" width="31.000000" height="31.000000" fill="#B33F36" fill-opacity="1.000000"/>
	<rect id="Rectangle 782" x="93.000000" y="155.000000" width="31.000000" height="31.000000" fill="#B33F36" fill-opacity="1.000000"/>
	<rect id="Rectangle 810" x="93.000000" y="217.000000" width="31.000000" height="31.000000" fill="#B33F36" fill-opacity="1.000000"/>
	<rect id="Rectangle 838" x="93.000000" y="279.000000" width="31.000000" height="31.000000" fill="#B33F36" fill-opacity="1.000000"/>
	<rect id="Rectangle 866" x="93.000000" y="341.000000" width="31.000000" height="31.000000" fill="#B33F36" fill-opacity="1.000000"/>
	<rect id="Rectangle 894" x="93.000000" y="403.000000" width="31.000000" height="31.000000" fill="#B33F36" fill-opacity="1.000000"/>
	<rect id="Rectangle 922" x="93.000000" y="465.000000" width="31.000000" height="31.000000" fill="#B33F36" fill-opacity="1.000000"/>
	<rect id="Rectangle 543" x="93.000000" y="31.000000" width="31.000000" height="31.000000" fill="#BE000D" fill-opacity="1.000000"/>
	<rect id="Rectangle 755" x="93.000000" y="93.000000" width="31.000000" height="31.000000" fill="#BE000D" fill-opacity="1.000000"/>
	<rect id="Rectangle 783" x="93.000000" y="155.000000" width="31.000000" height="31.000000" fill="#BE000D" fill-opacity="1.000000"/>
	<rect id="Rectangle 811" x="93.000000" y="217.000000" width="31.000000" height="31.000000" fill="#BE000D" fill-opacity="1.000000"/>
	<rect id="Rectangle 839" x="93.000000" y="279.000000" width="31.000000" height="31.000000" fill="#BE000D" fill-opacity="1.000000"/>
	<rect id="Rectangle 867" x="93.000000" y="341.000000" width="31.000000" height="31.000000" fill="#BE000D" fill-opacity="1.000000"/>
	<rect id="Rectangle 895" x="93.000000" y="403.000000" width="31.000000" height="31.000000" fill="#BE000D" fill-opacity="1.000000"/>
	<rect id="Rectangle 923" x="93.000000" y="465.000000" width="31.000000" height="31.000000" fill="#BE000D" fill-opacity="1.000000"/>
	<rect id="Rectangle 544" x="217.000000" y="31.000000" width="31.000000" height="31.000000" fill="#BE000D" fill-opacity="1.000000"/>
	<rect id="Rectangle 756" x="217.000000" y="93.000000" width="31.000000" height="31.000000" fill="#BE000D" fill-opacity="1.000000"/>
	<rect id="Rectangle 784" x="217.000000" y="155.000000" width="31.000000" height="31.000000" fill="#BE000D" fill-opacity="1.000000"/>
	<rect id="Rectangle 812" x="217.000000" y="217.000000" width="31.000000" height="31.000000" fill="#BE000D" fill-opacity="1.000000"/>
	<rect id="Rectangle 840" x="217.000000" y="279.000000" width="31.000000" height="31.000000" fill="#BE000D" fill-opacity="1.000000"/>
	<rect id="Rectangle 868" x="217.000000" y="341.000000" width="31.000000" height="31.000000" fill="#BE000D" fill-opacity="1.000000"/>
	<rect id="Rectangle 896" x="217.000000" y="403.000000" width="31.000000" height="31.000000" fill="#BE000D" fill-opacity="1.000000"/>
	<rect id="Rectangle 924" x="217.000000" y="465.000000" width="31.000000" height="31.000000" fill="#BE000D" fill-opacity="1.000000"/>
	<rect id="Rectangle 547" x="341.000000" y="31.000000" width="31.000000" height="31.000000" fill="#B33F36" fill-opacity="1.000000"/>
	<rect id="Rectangle 757" x="341.000000" y="93.000000" width="31.000000" height="31.000000" fill="#B33F36" fill-opacity="1.000000"/>
	<rect id="Rectangle 785" x="341.000000" y="155.000000" width="31.000000" height="31.000000" fill="#B33F36" fill-opacity="1.000000"/>
	<rect id="Rectangle 813" x="341.000000" y="217.000000" width="31.000000" height="31.000000" fill="#B33F36" fill-opacity="1.000000"/>
	<rect id="Rectangle 841" x="341.000000" y="279.000000" width="31.000000" height="31.000000" fill="#B33F36" fill-opacity="1.000000"/>
	<rect id="Rectangle 869" x="341.000000" y="341.000000" width="31.000000" height="31.000000" fill="#B33F36" fill-opacity="1.000000"/>
	<rect id="Rectangle 897" x="341.000000" y="403.000000" width="31.000000" height="31.000000" fill="#B33F36" fill-opacity="1.000000"/>
	<rect id="Rectangle 925" x="341.000000" y="465.000000" width="31.000000" height="31.000000" fill="#B33F36" fill-opacity="1.000000"/>
	<rect id="Rectangle 549" x="341.000000" y="31.000000" width="31.000000" height="31.000000" fill="#BE000D" fill-opacity="1.000000"/>
	<rect id="Rectangle 758" x="341.000000" y="93.000000" width="31.000000" height="31.000000" fill="#BE000D" fill-opacity="1.000000"/>
	<rect id="Rectangle 786" x="341.000000" y="155.000000" width="31.000000" height="31.000000" fill="#BE000D" fill-opacity="1.000000"/>
	<rect id="Rectangle 814" x="341.000000" y="217.000000" width="31.000000" height="31.000000" fill="#BE000D" fill-opacity="1.000000"/>
	<rect id="Rectangle 842" x="341.000000" y="279.000000" width="31.000000" height="31.000000" fill="#BE000D" fill-opacity="1.000000"/>
	<rect id="Rectangle 870" x="341.000000" y="341.000000" width="31.000000" height="31.000000" fill="#BE000D" fill-opacity="1.000000"/>
	<rect id="Rectangle 898" x="341.000000" y="403.000000" width="31.000000" height="31.000000" fill="#BE000D" fill-opacity="1.000000"/>
	<rect id="Rectangle 926" x="341.000000" y="465.000000" width="31.000000" height="31.000000" fill="#BE000D" fill-opacity="1.000000"/>
	<rect id="Rectangle 550" x="465.000000" y="31.000000" width="31.000000" height="31.000000" fill="#BE000D" fill-opacity="1.000000"/>
	<rect id="Rectangle 759" x="465.000000" y="93.000000" width="31.000000" height="31.000000" fill="#BE000D" fill-opacity="1.000000"/>
	<rect id="Rectangle 787" x="465.000000" y="155.000000" width="31.000000" height="31.000000" fill="#BE000D" fill-opacity="1.000000"/>
	<rect id="Rectangle 815" x="465.000000" y="217.000000" width="31.000000" height="31.000000" fill="#BE000D" fill-opacity="1.000000"/>
	<rect id="Rectangle 843" x="465.000000" y="279.000000" width="31.000000" height="31.000000" fill="#BE000D" fill-opacity="1.000000"/>
	<rect id="Rectangle 871" x="465.000000" y="341.000000" width="31.000000" height="31.000000" fill="#BE000D" fill-opacity="1.000000"/>
	<rect id="Rectangle 899" x="465.000000" y="403.000000" width="31.000000" height="31.000000" fill="#BE000D" fill-opacity="1.000000"/>
	<rect id="Rectangle 927" x="465.000000" y="465.000000" width="31.000000" height="31.000000" fill="#BE000D" fill-opacity="1.000000"/>
	<rect id="Rectangle 552" x="589.000000" y="31.000000" width="31.000000" height="31.000000" fill="#BE000D" fill-opacity="1.000000"/>
	<rect id="Rectangle 760" x="589.000000" y="93.000000" width="31.000000" height="31.000000" fill="#BE000D" fill-opacity="1.000000"/>
	<rect id="Rectangle 788" x="589.000000" y="155.000000" width="31.000000" height="31.000000" fill="#BE000D" fill-opacity="1.000000"/>
	<rect id="Rectangle 816" x="589.000000" y="217.000000" width="31.000000" height="31.000000" fill="#BE000D" fill-opacity="1.000000"/>
	<rect id="Rectangle 844" x="589.000000" y="279.000000" width="31.000000" height="31.000000" fill="#BE000D" fill-opacity="1.000000"/>
	<rect id="Rectangle 872" x="589.000000" y="341.000000" width="31.000000" height="31.000000" fill="#BE000D" fill-opacity="1.000000"/>
	<rect id="Rectangle 900" x="589.000000" y="403.000000" width="31.000000" height="31.000000" fill="#BE000D" fill-opacity="1.000000"/>
	<rect id="Rectangle 928" x="589.000000" y="465.000000" width="31.000000" height="31.000000" fill="#BE000D" fill-opacity="1.000000"/>
	<rect id="Rectangle 554" x="713.000000" y="31.000000" width="31.000000" height="31.000000" fill="#BE000D" fill-opacity="1.000000"/>
	<rect id="Rectangle 761" x="713.000000" y="93.000000" width="31.000000" height="31.000000" fill="#BE000D" fill-opacity="1.000000"/>
	<rect id="Rectangle 789" x="713.000000" y="155.000000" width="31.000000" height="31.000000" fill="#BE000D" fill-opacity="1.000000"/>
	<rect id="Rectangle 817" x="713.000000" y="217.000000" width="31.000000" height="31.000000" fill="#BE000D" fill-opacity="1.000000"/>
	<rect id="Rectangle 845" x="713.000000" y="279.000000" width="31.000000" height="31.000000" fill="#BE000D" fill-opacity="1.000000"/>
	<rect id="Rectangle 873" x="713.000000" y="341.000000" width="31.000000" height="31.000000" fill="#BE000D" fill-opacity="1.000000"/>
	<rect id="Rectangle 901" x="713.000000" y="403.000000" width="31.000000" height="31.000000" fill="#BE000D" fill-opacity="1.000000"/>
	<rect id="Rectangle 929" x="713.000000" y="465.000000" width="31.000000" height="31.000000" fill="#BE000D" fill-opacity="1.000000"/>
	<rect id="Rectangle 293" x="248.000000" width="31.000000" height="31.000000" fill="#BE000D" fill-opacity="1.000000"/>
	<rect id="Rectangle 762" x="248.000000" y="62.000000" width="31.000000" height="31.000000" fill="#BE000D" fill-opacity="1.000000"/>
	<rect id="Rectangle 790" x="248.000000" y="124.000000" width="31.000000" height="31.000000" fill="#BE000D" fill-opacity="1.000000"/>
	<rect id="Rectangle 818" x="248.000000" y="186.000000" width="31.000000" height="31.000000" fill="#BE000D" fill-opacity="1.000000"/>
	<rect id="Rectangle 846" x="248.000000" y="248.000000" width="31.000000" height="31.000000" fill="#BE000D" fill-opacity="1.000000"/>
	<rect id="Rectangle 874" x="248.000000" y="310.000000" width="31.000000" height="31.000000" fill="#BE000D" fill-opacity="1.000000"/>
	<rect id="Rectangle 902" x="248.000000" y="372.000000" width="31.000000" height="31.000000" fill="#BE000D" fill-opacity="1.000000"/>
	<rect id="Rectangle 930" x="248.000000" y="434.000000" width="31.000000" height="31.000000" fill="#BE000D" fill-opacity="1.000000"/>
	<rect id="Rectangle 301" x="496.000000" width="31.000000" height="31.000000" fill="#BE000D" fill-opacity="1.000000"/>
	<rect id="Rectangle 763" x="496.000000" y="62.000000" width="31.000000" height="31.000000" fill="#BE000D" fill-opacity="1.000000"/>
	<rect id="Rectangle 791" x="496.000000" y="124.000000" width="31.000000" height="31.000000" fill="#BE000D" fill-opacity="1.000000"/>
	<rect id="Rectangle 819" x="496.000000" y="186.000000" width="31.000000" height="31.000000" fill="#BE000D" fill-opacity="1.000000"/>
	<rect id="Rectangle 847" x="496.000000" y="248.000000" width="31.000000" height="31.000000" fill="#BE000D" fill-opacity="1.000000"/>
	<rect id="Rectangle 875" x="496.000000" y="310.000000" width="31.000000" height="31.000000" fill="#BE000D" fill-opacity="1.000000"/>
	<rect id="Rectangle 903" x="496.000000" y="372.000000" width="31.000000" height="31.000000" fill="#BE000D" fill-opacity="1.000000"/>
	<rect id="Rectangle 931" x="496.000000" y="434.000000" width="31.000000" height="31.000000" fill="#BE000D" fill-opacity="1.000000"/>
	<rect id="Rectangle 287" x="62.000000" width="31.000000" height="31.000000" fill="#E68236" fill-opacity="1.000000"/>
	<rect id="Rectangle 764" x="62.000000" y="62.000000" width="31.000000" height="31.000000" fill="#E68236" fill-opacity="1.000000"/>
	<rect id="Rectangle 792" x="62.000000" y="124.000000" width="31.000000" height="31.000000" fill="#E68236" fill-opacity="1.000000"/>
	<rect id="Rectangle 820" x="62.000000" y="186.000000" width="31.000000" height="31.000000" fill="#E68236" fill-opacity="1.000000"/>
	<rect id="Rectangle 848" x="62.000000" y="248.000000" width="31.000000" height="31.000000" fill="#E68236" fill-opacity="1.000000"/>
	<rect id="Rectangle 876" x="62.000000" y="310.000000" width="31.000000" height="31.000000" fill="#E68236" fill-opacity="1.000000"/>
	<rect id="Rectangle 904" x="62.000000" y="372.000000" width="31.000000" height="31.000000" fill="#E68236" fill-opacity="1.000000"/>
	<rect id="Rectangle 932" x="62.000000" y="434.000000" width="31.000000" height="31.000000" fill="#E68236" fill-opacity="1.000000"/>
	<rect id="Rectangle 539" x="31.000000" y="31.000000" width="31.000000" height="31.000000" fill="#E68236" fill-opacity="1.000000"/>
	<rect id="Rectangle 765" x="31.000000" y="93.000000" width="31.000000" height="31.000000" fill="#E68236" fill-opacity="1.000000"/>
	<rect id="Rectangle 793" x="31.000000" y="155.000000" width="31.000000" height="31.000000" fill="#E68236" fill-opacity="1.000000"/>
	<rect id="Rectangle 821" x="31.000000" y="217.000000" width="31.000000" height="31.000000" fill="#E68236" fill-opacity="1.000000"/>
	<rect id="Rectangle 849" x="31.000000" y="279.000000" width="31.000000" height="31.000000" fill="#E68236" fill-opacity="1.000000"/>
	<rect id="Rectangle 877" x="31.000000" y="341.000000" width="31.000000" height="31.000000" fill="#E68236" fill-opacity="1.000000"/>
	<rect id="Rectangle 905" x="31.000000" y="403.000000" width="31.000000" height="31.000000" fill="#E68236" fill-opacity="1.000000"/>
	<rect id="Rectangle 933" x="31.000000" y="465.000000" width="31.000000" height="31.000000" fill="#E68236" fill-opacity="1.000000"/>
	<rect id="Rectangle 542" x="155.000000" y="31.000000" width="31.000000" height="31.000000" fill="#0E0B04" fill-opacity="1.000000"/>
	<rect id="Rectangle 766" x="155.000000" y="93.000000" width="31.000000" height="31.000000" fill="#0E0B04" fill-opacity="1.000000"/>
	<rect id="Rectangle 794" x="155.000000" y="155.000000" width="31.000000" height="31.000000" fill="#0E0B04" fill-opacity="1.000000"/>
	<rect id="Rectangle 822" x="155.000000" y="217.000000" width="31.000000" height="31.000000" fill="#0E0B04" fill-opacity="1.000000"/>
	<rect id="Rectangle 850" x="155.000000" y="279.000000" width="31.000000" height="31.000000" fill="#0E0B04" fill-opacity="1.000000"/>
	<rect id="Rectangle 878" x="155.000000" y="341.000000" width="31.000000" height="31.000000" fill="#0E0B04" fill-opacity="1.000000"/>
	<rect id="Rectangle 906" x="155.000000" y="403.000000" width="31.000000" height="31.000000" fill="#0E0B04" fill-opacity="1.000000"/>
	<rect id="Rectangle 934" x="155.000000" y="465.000000" width="31.000000" height="31.000000" fill="#0E0B04" fill-opacity="1.000000"/>
	<rect id="Rectangle 545" x="155.000000" y="31.000000" width="31.000000" height="31.000000" fill="#E68236" fill-opacity="1.000000"/>
	<rect id="Rectangle 767" x="155.000000" y="93.000000" width="31.000000" height="31.000000" fill="#E68236" fill-opacity="1.000000"/>
	<rect id="Rectangle 795" x="155.000000" y="155.000000" width="31.000000" height="31.000000" fill="#E68236" fill-opacity="1.000000"/>
	<rect id="Rectangle 823" x="155.000000" y="217.000000" width="31.000000" height="31.000000" fill="#E68236" fill-opacity="1.000000"/>
	<rect id="Rectangle 851" x="155.000000" y="279.000000" width="31.000000" height="31.000000" fill="#E68236" fill-opacity="1.000000"/>
	<rect id="Rectangle 879" x="155.000000" y="341.000000" width="31.000000" height="31.000000" fill="#E68236" fill-opacity="1.000000"/>
	<rect id="Rectangle 907" x="155.000000" y="403.000000" width="31.000000" height="31.000000" fill="#E68236" fill-opacity="1.000000"/>
	<rect id="Rectangle 935" x="155.000000" y="465.000000" width="31.000000" height="31.000000" fill="#E68236" fill-opacity="1.000000"/>
	<rect id="Rectangle 546" x="279.000000" y="31.000000" width="31.000000" height="31.000000" fill="#E68236" fill-opacity="1.000000"/>
	<rect id="Rectangle 768" x="279.000000" y="93.000000" width="31.000000" height="31.000000" fill="#E68236" fill-opacity="1.000000"/>
	<rect id="Rectangle 796" x="279.000000" y="155.000000" width="31.000000" height="31.000000" fill="#E68236" fill-opacity="1.000000"/>
	<rect id="Rectangle 824" x="279.000000" y="217.000000" width="31.000000" height="31.000000" fill="#E68236" fill-opacity="1.000000"/>
	<rect id="Rectangle 852" x="279.000000" y="279.000000" width="31.000000" height="31.000000" fill="#E68236" fill-opacity="1.000000"/>
	<rect id="Rectangle 880" x="279.000000" y="341.000000" width="31.000000" height="31.000000" fill="#E68236" fill-opacity="1.000000"/>
	<rect id="Rectangle 908" x="279.000000" y="403.000000" width="31.000000" height="31.000000" fill="#E68236" fill-opacity="1.000000"/>
	<rect id="Rectangle 936" x="279.000000" y="465.000000" width="31.000000" height="31.000000" fill="#E68236" fill-opacity="1.000000"/>
	<rect id="Rectangle 548" x="403.000000" y="31.000000" width="31.000000" height="31.000000" fill="#E68236" fill-opacity="1.000000"/>
	<rect id="Rectangle 769" x="403.000000" y="93.000000" width="31.000000" height="31.000000" fill="#E68236" fill-opacity="1.000000"/>
	<rect id="Rectangle 797" x="403.000000" y="155.000000" width="31.000000" height="31.000000" fill="#E68236" fill-opacity="1.000000"/>
	<rect id="Rectangle 825" x="403.000000" y="217.000000" width="31.000000" height="31.000000" fill="#E68236" fill-opacity="1.000000"/>
	<rect id="Rectangle 853" x="403.000000" y="279.000000" width="31.000000" height="31.000000" fill="#E68236" fill-opacity="1.000000"/>
	<rect id="Rectangle 881" x="403.000000" y="341.000000" width="31.000000" height="31.000000" fill="#E68236" fill-opacity="1.000000"/>
	<rect id="Rectangle 909" x="403.000000" y="403.000000" width="31.000000" height="31.000000" fill="#E68236" fill-opacity="1.000000"/>
	<rect id="Rectangle 937" x="403.000000" y="465.000000" width="31.000000" height="31.000000" fill="#E68236" fill-opacity="1.000000"/>
	<rect id="Rectangle 551" x="527.000000" y="31.000000" width="31.000000" height="31.000000" fill="#E68236" fill-opacity="1.000000"/>
	<rect id="Rectangle 770" x="527.000000" y="93.000000" width="31.000000" height="31.000000" fill="#E68236" fill-opacity="1.000000"/>
	<rect id="Rectangle 798" x="527.000000" y="155.000000" width="31.000000" height="31.000000" fill="#E68236" fill-opacity="1.000000"/>
	<rect id="Rectangle 826" x="527.000000" y="217.000000" width="31.000000" height="31.000000" fill="#E68236" fill-opacity="1.000000"/>
	<rect id="Rectangle 854" x="527.000000" y="279.000000" width="31.000000" height="31.000000" fill="#E68236" fill-opacity="1.000000"/>
	<rect id="Rectangle 882" x="527.000000" y="341.000000" width="31.000000" height="31.000000" fill="#E68236" fill-opacity="1.000000"/>
	<rect id="Rectangle 910" x="527.000000" y="403.000000" width="31.000000" height="31.000000" fill="#E68236" fill-opacity="1.000000"/>
	<rect id="Rectangle 938" x="527.000000" y="465.000000" width="31.000000" height="31.000000" fill="#E68236" fill-opacity="1.000000"/>
	<rect id="Rectangle 553" x="651.000000" y="31.000000" width="31.000000" height="31.000000" fill="#E68236" fill-opacity="1.000000"/>
	<rect id="Rectangle 771" x="651.000000" y="93.000000" width="31.000000" height="31.000000" fill="#E68236" fill-opacity="1.000000"/>
	<rect id="Rectangle 799" x="651.000000" y="155.000000" width="31.000000" height="31.000000" fill="#E68236" fill-opacity="1.000000"/>
	<rect id="Rectangle 827" x="651.000000" y="217.000000" width="31.000000" height="31.000000" fill="#E68236" fill-opacity="1.000000"/>
	<rect id="Rectangle 855" x="651.000000" y="279.000000" width="31.000000" height="31.000000" fill="#E68236" fill-opacity="1.000000"/>
	<rect id="Rectangle 883" x="651.000000" y="341.000000" width="31.000000" height="31.000000" fill="#E68236" fill-opacity="1.000000"/>
	<rect id="Rectangle 911" x="651.000000" y="403.000000" width="31.000000" height="31.000000" fill="#E68236" fill-opacity="1.000000"/>
	<rect id="Rectangle 939" x="651.000000" y="465.000000" width="31.000000" height="31.000000" fill="#E68236" fill-opacity="1.000000"/>
	<rect id="Rectangle 295" x="310.000000" width="31.000000" height="31.000000" fill="#E68236" fill-opacity="1.000000"/>
	<rect id="Rectangle 772" x="310.000000" y="62.000000" width="31.000000" height="31.000000" fill="#E68236" fill-opacity="1.000000"/>
	<rect id="Rectangle 800" x="310.000000" y="124.000000" width="31.000000" height="31.000000" fill="#E68236" fill-opacity="1.000000"/>
	<rect id="Rectangle 828" x="310.000000" y="186.000000" width="31.000000" height="31.000000" fill="#E68236" fill-opacity="1.000000"/>
	<rect id="Rectangle 856" x="310.000000" y="248.000000" width="31.000000" height="31.000000" fill="#E68236" fill-opacity="1.000000"/>
	<rect id="Rectangle 884" x="310.000000" y="310.000000" width="31.000000" height="31.000000" fill="#E68236" fill-opacity="1.000000"/>
	<rect id="Rectangle 912" x="310.000000" y="372.000000" width="31.000000" height="31.000000" fill="#E68236" fill-opacity="1.000000"/>
	<rect id="Rectangle 940" x="310.000000" y="434.000000" width="31.000000" height="31.000000" fill="#E68236" fill-opacity="1.000000"/>
	<rect id="Rectangle 303" x="558.000000" width="31.000000" height="31.000000" fill="#E68236" fill-opacity="1.000000"/>
	<rect id="Rectangle 773" x="558.000000" y="62.000000" width="31.000000" height="31.000000" fill="#E68236" fill-opacity="1.000000"/>
	<rect id="Rectangle 801" x="558.000000" y="124.000000" width="31.000000" height="31.000000" fill="#E68236" fill-opacity="1.000000"/>
	<rect id="Rectangle 829" x="558.000000" y="186.000000" width="31.000000" height="31.000000" fill="#E68236" fill-opacity="1.000000"/>
	<rect id="Rectangle 857" x="558.000000" y="248.000000" width="31.000000" height="31.000000" fill="#E68236" fill-opacity="1.000000"/>
	<rect id="Rectangle 885" x="558.000000" y="310.000000" width="31.000000" height="31.000000" fill="#E68236" fill-opacity="1.000000"/>
	<rect id="Rectangle 913" x="558.000000" y="372.000000" width="31.000000" height="31.000000" fill="#E68236" fill-opacity="1.000000"/>
	<rect id="Rectangle 941" x="558.000000" y="434.000000" width="31.000000" height="31.000000" fill="#E68236" fill-opacity="1.000000"/>
	<rect id="Rectangle 289" x="124.000000" width="31.000000" height="31.000000" fill="#BE000D" fill-opacity="1.000000"/>
	<rect id="Rectangle 774" x="124.000000" y="62.000000" width="31.000000" height="31.000000" fill="#BE000D" fill-opacity="1.000000"/>
	<rect id="Rectangle 802" x="124.000000" y="124.000000" width="31.000000" height="31.000000" fill="#BE000D" fill-opacity="1.000000"/>
	<rect id="Rectangle 830" x="124.000000" y="186.000000" width="31.000000" height="31.000000" fill="#BE000D" fill-opacity="1.000000"/>
	<rect id="Rectangle 858" x="124.000000" y="248.000000" width="31.000000" height="31.000000" fill="#BE000D" fill-opacity="1.000000"/>
	<rect id="Rectangle 886" x="124.000000" y="310.000000" width="31.000000" height="31.000000" fill="#BE000D" fill-opacity="1.000000"/>
	<rect id="Rectangle 914" x="124.000000" y="372.000000" width="31.000000" height="31.000000" fill="#BE000D" fill-opacity="1.000000"/>
	<rect id="Rectangle 942" x="124.000000" y="434.000000" width="31.000000" height="31.000000" fill="#BE000D" fill-opacity="1.000000"/>
	<rect id="Rectangle 297" x="372.000000" width="31.000000" height="31.000000" fill="#BE000D" fill-opacity="1.000000"/>
	<rect id="Rectangle 775" x="372.000000" y="62.000000" width="31.000000" height="31.000000" fill="#BE000D" fill-opacity="1.000000"/>
	<rect id="Rectangle 803" x="372.000000" y="124.000000" width="31.000000" height="31.000000" fill="#BE000D" fill-opacity="1.000000"/>
	<rect id="Rectangle 831" x="372.000000" y="186.000000" width="31.000000" height="31.000000" fill="#BE000D" fill-opacity="1.000000"/>
	<rect id="Rectangle 859" x="372.000000" y="248.000000" width="31.000000" height="31.000000" fill="#BE000D" fill-opacity="1.000000"/>
	<rect id="Rectangle 887" x="372.000000" y="310.000000" width="31.000000" height="31.000000" fill="#BE000D" fill-opacity="1.000000"/>
	<rect id="Rectangle 915" x="372.000000" y="372.000000" width="31.000000" height="31.000000" fill="#BE000D" fill-opacity="1.000000"/>
	<rect id="Rectangle 943" x="372.000000" y="434.000000" width="31.000000" height="31.000000" fill="#BE000D" fill-opacity="1.000000"/>
	<rect id="Rectangle 305" x="620.000000" width="31.000000" height="31.000000" fill="#BE000D" fill-opacity="1.000000"/>
	<rect id="Rectangle 776" x="620.000000" y="62.000000" width="31.000000" height="31.000000" fill="#BE000D" fill-opacity="1.000000"/>
	<rect id="Rectangle 804" x="620.000000" y="124.000000" width="31.000000" height="31.000000" fill="#BE000D" fill-opacity="1.000000"/>
	<rect id="Rectangle 832" x="620.000000" y="186.000000" width="31.000000" height="31.000000" fill="#BE000D" fill-opacity="1.000000"/>
	<rect id="Rectangle 860" x="620.000000" y="248.000000" width="31.000000" height="31.000000" fill="#BE000D" fill-opacity="1.000000"/>
	<rect id="Rectangle 888" x="620.000000" y="310.000000" width="31.000000" height="31.000000" fill="#BE000D" fill-opacity="1.000000"/>
	<rect id="Rectangle 916" x="620.000000" y="372.000000" width="31.000000" height="31.000000" fill="#BE000D" fill-opacity="1.000000"/>
	<rect id="Rectangle 944" x="620.000000" y="434.000000" width="31.000000" height="31.000000" fill="#BE000D" fill-opacity="1.000000"/>
	<rect id="Rectangle 291" x="186.000000" width="31.000000" height="31.000000" fill="#E68236" fill-opacity="1.000000"/>
	<rect id="Rectangle 777" x="186.000000" y="62.000000" width="31.000000" height="31.000000" fill="#E68236" fill-opacity="1.000000"/>
	<rect id="Rectangle 805" x="186.000000" y="124.000000" width="31.000000" height="31.000000" fill="#E68236" fill-opacity="1.000000"/>
	<rect id="Rectangle 833" x="186.000000" y="186.000000" width="31.000000" height="31.000000" fill="#E68236" fill-opacity="1.000000"/>
	<rect id="Rectangle 861" x="186.000000" y="248.000000" width="31.000000" height="31.000000" fill="#E68236" fill-opacity="1.000000"/>
	<rect id="Rectangle 889" x="186.000000" y="310.000000" width="31.000000" height="31.000000" fill="#E68236" fill-opacity="1.000000"/>
	<rect id="Rectangle 917" x="186.000000" y="372.000000" width="31.000000" height="31.000000" fill="#E68236" fill-opacity="1.000000"/>
	<rect id="Rectangle 945" x="186.000000" y="434.000000" width="31.000000" height="31.000000" fill="#E68236" fill-opacity="1.000000"/>
	<rect id="Rectangle 299" x="434.000000" width="31.000000" height="31.000000" fill="#E68236" fill-opacity="1.000000"/>
	<rect id="Rectangle 778" x="434.000000" y="62.000000" width="31.000000" height="31.000000" fill="#E68236" fill-opacity="1.000000"/>
	<rect id="Rectangle 806" x="434.000000" y="124.000000" width="31.000000" height="31.000000" fill="#E68236" fill-opacity="1.000000"/>
	<rect id="Rectangle 834" x="434.000000" y="186.000000" width="31.000000" height="31.000000" fill="#E68236" fill-opacity="1.000000"/>
	<rect id="Rectangle 862" x="434.000000" y="248.000000" width="31.000000" height="31.000000" fill="#E68236" fill-opacity="1.000000"/>
	<rect id="Rectangle 890" x="434.000000" y="310.000000" width="31.000000" height="31.000000" fill="#E68236" fill-opacity="1.000000"/>
	<rect id="Rectangle 918" x="434.000000" y="372.000000" width="31.000000" height="31.000000" fill="#E68236" fill-opacity="1.000000"/>
	<rect id="Rectangle 946" x="434.000000" y="434.000000" width="31.000000" height="31.000000" fill="#E68236" fill-opacity="1.000000"/>
	<rect id="Rectangle 307" x="682.000000" width="31.000000" height="31.000000" fill="#E68236" fill-opacity="1.000000"/>
	<rect id="Rectangle 779" x="682.000000" y="62.000000" width="31.000000" height="31.000000" fill="#E68236" fill-opacity="1.000000"/>
	<rect id="Rectangle 807" x="682.000000" y="124.000000" width="31.000000" height="31.000000" fill="#E68236" fill-opacity="1.000000"/>
	<rect id="Rectangle 835" x="682.000000" y="186.000000" width="31.000000" height="31.000000" fill="#E68236" fill-opacity="1.000000"/>
	<rect id="Rectangle 863" x="682.000000" y="248.000000" width="31.000000" height="31.000000" fill="#E68236" fill-opacity="1.000000"/>
	<rect id="Rectangle 891" x="682.000000" y="310.000000" width="31.000000" height="31.000000" fill="#E68236" fill-opacity="1.000000"/>
	<rect id="Rectangle 919" x="682.000000" y="372.000000" width="31.000000" height="31.000000" fill="#E68236" fill-opacity="1.000000"/>
	<rect id="Rectangle 947" x="682.000000" y="434.000000" width="31.000000" height="31.000000" fill="#E68236" fill-opacity="1.000000"/>
</svg>
